<svg xmlns="http://www.w3.org/2000/svg" width="105" height="105" viewBox="0 0 105 105">
  <g id="Group_431" data-name="Group 431" transform="translate(170.215 15.161)">
    <g id="Group_421" data-name="Group 421" transform="translate(128 -61)">
      <path id="Path_906" data-name="Path 906" d="M-210.616,106.634a3.7,3.7,0,0,0-2.242-2.213,3.706,3.706,0,0,0-3.149.174,6.959,6.959,0,0,0-2.123,2.225l-1.569,2.25c-.035-1.161-.266-2.289-1.028-2.718a1.742,1.742,0,0,0-1.746.181,4.5,4.5,0,0,0-.827-1.738,8.859,8.859,0,0,0,.117-1.138c-.332-4.713-5.268-4.538-8.88-4.408a13.635,13.635,0,0,1-3.478-.13c-9.855-1.99-26.1,2.924-27.542,3.368-.013-.01-.023-.023-.036-.033a3.373,3.373,0,0,0-3.543-.5,3.457,3.457,0,0,0-1.384,1.421.559.559,0,0,0-.242-.061,33.143,33.143,0,0,1-11.152-1.506.5.5,0,0,0-.487.1.5.5,0,0,0-.163.47c1.171,6.288,4.59,7.815,8.142,7.815a17.726,17.726,0,0,0,3.083-.312,23.555,23.555,0,0,0,1.4,4.549,35.193,35.193,0,0,0-5.557-3.733,3.688,3.688,0,0,0-2.737-.424,1.514,1.514,0,0,0-.916.892,2.355,2.355,0,0,0,.051,1.549,13.778,13.778,0,0,0,1.363,3.117,4.387,4.387,0,0,0-1.8-.206,3.424,3.424,0,0,0-3.081,2.791,3.785,3.785,0,0,0,2.45,3.7,8.057,8.057,0,0,0,3.187.526c.368,0,.731-.011,1.08-.021,3.551-.106,7.561-.25,11.571-.4,3.758-.135,7.517-.271,10.9-.375a1.375,1.375,0,0,0,.6,0l.069-.018a.5.5,0,0,0,.355-.166,2.4,2.4,0,0,0,.513-.472,18.365,18.365,0,0,0,3.118-6.458l.367-1.119c.255,0,.509-.007.762-.018.012.011.018.026.03.037,4,3.272,9.927,5.051,17.6,5.289l.131,0c.886.027,1.779.054,2.669.054a16.19,16.19,0,0,0,7.513-1.432,8.178,8.178,0,0,0,3.126-1.638,11.132,11.132,0,0,0,3.507-6.156A5.857,5.857,0,0,0-210.616,106.634Z" fill="#ec5a5f"/>
    </g>
    <rect id="Rectangle_58" data-name="Rectangle 58" width="105" height="105" transform="translate(-170.215 -15.161)" fill="none"/>
  </g>
</svg>
