<svg xmlns="http://www.w3.org/2000/svg" width="105" height="105" viewBox="0 0 105 105">
  <g id="Group_429" data-name="Group 429" transform="translate(252.215 15.161)">
    <path id="Path_905" data-name="Path 905" d="M-64.188,6.916c.108-3.238-.467-5.743-1.759-7.656A4.108,4.108,0,0,0-69.04-2.755,4.173,4.173,0,0,0-72.228-.9c-1.75,2.215-2.5,5.036-3.152,7.525q-.618,2.345-1.234,4.69-.017-.979-.056-1.956C-76.7,8.675-76.785,6.584-78.347,6A2.513,2.513,0,0,0-81.2,7.122,5.54,5.54,0,0,0-81.9,9.9a39.3,39.3,0,0,0,.154,5.354,4.1,4.1,0,0,0-.822-.746,2.564,2.564,0,0,0-3.408.319,3.343,3.343,0,0,0-.257,2.892,26.261,26.261,0,0,0,.785,2.556,1.082,1.082,0,0,1,.1.442c-.03.14-.266.309-.408.411L-92.2,25.743a.48.48,0,0,0-.172.244c-3.3-.376-6.549-.538-7.694-.587A10.215,10.215,0,0,1-100,22.856l.047-.281a5.372,5.372,0,0,0,.112-1.478,4.382,4.382,0,0,0-1.31-2.513,19.037,19.037,0,0,0-4.087-3.056,25.1,25.1,0,0,1-3.007-2.057,24.791,24.791,0,0,1-4.817-6.259A30.585,30.585,0,0,1-116.489.4a30.637,30.637,0,0,1-.983-7.5c-.027-.563-.054-1.125-.088-1.686a2.962,2.962,0,0,0-.832-2.2,2.553,2.553,0,0,0-2.943.157,8.3,8.3,0,0,0-3.183,4.732c-1.6,5.237-.368,10.813,1.065,15.654l-3.027-3.9a9.913,9.913,0,0,0-2.371-2.409,3.666,3.666,0,0,0-3.561-.356c-1.887.954-2.049,3.463-1.571,5.494a18.5,18.5,0,0,0,3.73,7.473q-1.086-.538-2.216-.985a2.135,2.135,0,0,0-1.383-.182,1.926,1.926,0,0,0-1.231,1.847c-.257,2.9,1.9,5.281,4.26,7.426l3.24,2.941a29.021,29.021,0,0,0,6.426,4.784,30.425,30.425,0,0,1-7.761-1.449.5.5,0,0,0-.487.1.5.5,0,0,0-.163.469c.585,3.141,1.9,5.378,3.925,6.648,3.638,2.284,8.63.93,11.615.121.551-.149,1.053-.286,1.442-.368a11.022,11.022,0,0,0,.226,3.641l-3.539-.08a.509.509,0,0,0-.511.489.5.5,0,0,0,.489.511l3.171.071a4.436,4.436,0,0,1-1.734,2.753,8.557,8.557,0,0,1-3.719,1.5.5.5,0,0,0-.4.583.5.5,0,0,0,.49.408.488.488,0,0,0,.093-.009,9.517,9.517,0,0,0,4.145-1.689,5.945,5.945,0,0,0,1.083-1.091,2.392,2.392,0,0,1-1.077,1.648,6.024,6.024,0,0,1-2.155.817.5.5,0,0,0-.386.594.5.5,0,0,0,.488.4.543.543,0,0,0,.1-.011,7.761,7.761,0,0,0,2.085-.723.5.5,0,0,0,.485.42h.023a5,5,0,0,0,3.776-2.157,8.808,8.808,0,0,0,1.164-2.831,2.607,2.607,0,0,0,.747.119,2.287,2.287,0,0,0,1.044-.244,8.188,8.188,0,0,0,.912-.6c.422-.3,1.539-1.108,1.821-.97a.486.486,0,0,0,.213.045,18.762,18.762,0,0,0,7.209,1.355c6.247,0,12.266-2.514,15.5-3.865.895-.373,1.613-.674,2-.778a8.182,8.182,0,0,0,1.149.041,2.612,2.612,0,0,0,.442.04,1.845,1.845,0,0,0,.688-.124.455.455,0,0,0,.089-.058,5.383,5.383,0,0,0,.523-.158.5.5,0,0,0,.316-.017,2.9,2.9,0,0,1,2.753.585.5.5,0,0,0,.327.122.529.529,0,0,0,.125-.016.5.5,0,0,0,.344-.312,4.631,4.631,0,0,0-.7-4.382,8.853,8.853,0,0,0,.118-1.138,4.145,4.145,0,0,0-3.077-3.973A27.3,27.3,0,0,0-64.188,6.916Zm-46.081,37.793a4.039,4.039,0,0,1-2.589,1.68,3.571,3.571,0,0,0,.695-.885.485.485,0,0,0,.15-.032,7.535,7.535,0,0,0,2.157-1.487A5.068,5.068,0,0,1-110.269,44.709Zm-1.515-.5c0-.141.007-.282,0-.424s-.01-.281,0-.422a4.367,4.367,0,0,1,.809-1.754.5.5,0,0,0,.108-.172c.305-.095.646-.214,1.026-.362a2.06,2.06,0,0,0,.441.7A6.563,6.563,0,0,1-111.784,44.206Z" transform="translate(-100 11)" fill="#ec5a5f"/>
    <rect id="Rectangle_57" data-name="Rectangle 57" width="105" height="105" transform="translate(-252.215 -15.161)" fill="none"/>
  </g>
</svg>
