<svg xmlns="http://www.w3.org/2000/svg" width="105" height="105" viewBox="0 0 105 105">
  <g id="Group_428" data-name="Group 428" transform="translate(321.115 15.161)">
    <path id="Path_904" data-name="Path 904" d="M-147.925,33.07c-.332-4.715-5.271-4.535-8.879-4.409a14.692,14.692,0,0,1-3.356-.088c-.045-.022-.1-.041-.145-.063a157.694,157.694,0,0,1,10-14.389l.081-.1a9.42,9.42,0,0,0,1.626-2.515,9.232,9.232,0,0,0,.447-2.082,145.97,145.97,0,0,0,1.21-18.674c0-1.847-.227-4.094-1.989-5.069a3.1,3.1,0,0,0-2.438-.211,4.569,4.569,0,0,0-2.634,2.193,10.51,10.51,0,0,0-.713,5.426l.349,6.949q-.185-.417-.391-.826a6.607,6.607,0,0,0-2.028-2.573,3.16,3.16,0,0,0-3.434-.195C-161.58-2.665-161.686-.9-161.61.7l.284,6.042a4.435,4.435,0,0,0-3.495-1.556,3.761,3.761,0,0,0-2.826,1.7,3.161,3.161,0,0,0-.427,2.809,5.649,5.649,0,0,0,1.18,1.782c.156.181.313.362.459.549.214.274.886,1.228.537,1.978a2.138,2.138,0,0,1-.619.691,17.481,17.481,0,0,1-3.3,1.935,11.418,11.418,0,0,0-4.43,3.134,26.8,26.8,0,0,1-.3-3.944l.006-.665a11.471,11.471,0,0,0-.33-3.575A11.489,11.489,0,0,0-177.117,7.9c-.276-.348-.554-.7-.814-1.05C-180.056,3.964-181.4.231-182.159-4.9c-.258-1.743-.439-3.532-.616-5.262-.251-2.471-.511-5.024-1-7.513-.272-1.392-.961-2.147-1.87-2.149-1.09.032-1.588,1.221-1.751,1.612A30.349,30.349,0,0,0-188.66,1.2L-192.3-1.911A9.911,9.911,0,0,0-196.205-4.3a2.311,2.311,0,0,0-2.313.471,2.5,2.5,0,0,0-.555,1.695c-.1,3.643,1.845,6.78,4.271,9.857a5.985,5.985,0,0,0-2.769-.083,4.311,4.311,0,0,0-3.349,3.3,5.032,5.032,0,0,0,1.715,4.279,17.424,17.424,0,0,0,1.968,1.606c.479.353.975.718,1.425,1.109a1.225,1.225,0,0,1,.423.529,1.447,1.447,0,0,1-.163.748l-.053.141a7.852,7.852,0,0,0,.47,6.033,20.343,20.343,0,0,0,3.462,4.831,26.058,26.058,0,0,0,2.181,2.191,33.892,33.892,0,0,1-14.689-1.191.5.5,0,0,0-.488.1.5.5,0,0,0-.163.468c.585,3.142,1.9,5.379,3.926,6.648,3.638,2.287,8.631.931,11.614.122.551-.149,1.054-.286,1.442-.368a11.022,11.022,0,0,0,.227,3.641l-3.538-.08a.512.512,0,0,0-.512.489.5.5,0,0,0,.489.511l3.171.071a4.436,4.436,0,0,1-1.734,2.753,8.567,8.567,0,0,1-3.719,1.5.5.5,0,0,0-.4.584.5.5,0,0,0,.49.407.5.5,0,0,0,.094-.009,9.506,9.506,0,0,0,4.144-1.689,5.972,5.972,0,0,0,1.083-1.09,2.4,2.4,0,0,1-1.077,1.647,6.027,6.027,0,0,1-2.156.817.5.5,0,0,0-.385.594.5.5,0,0,0,.488.4.537.537,0,0,0,.106-.011,7.826,7.826,0,0,0,2.083-.722.5.5,0,0,0,.485.418h.024a5,5,0,0,0,3.775-2.156,8.785,8.785,0,0,0,1.165-2.832,2.607,2.607,0,0,0,.747.119,2.272,2.272,0,0,0,1.042-.244,9.048,9.048,0,0,0,.864-.543c.461-.312,1.7-1.144,1.991-1a.476.476,0,0,0,.147.038,18.8,18.8,0,0,0,7.154,1.332c6.248,0,12.266-2.513,15.5-3.863.894-.374,1.614-.675,2-.779a8.425,8.425,0,0,0,1.144.04,2.569,2.569,0,0,0,.446.041,1.85,1.85,0,0,0,.689-.124.5.5,0,0,0,.09-.059,5.1,5.1,0,0,0,.522-.158.482.482,0,0,0,.315-.017,2.9,2.9,0,0,1,2.753.586.5.5,0,0,0,.328.121.482.482,0,0,0,.125-.016.5.5,0,0,0,.344-.311,4.63,4.63,0,0,0-.7-4.382A8.679,8.679,0,0,0-147.925,33.07Zm-37.607,12.617a4.041,4.041,0,0,1-2.588,1.681,3.609,3.609,0,0,0,.694-.885.5.5,0,0,0,.15-.033,7.577,7.577,0,0,0,2.152-1.48A5.062,5.062,0,0,1-185.532,45.687Z" transform="translate(-93 9)" fill="#ec5a5f"/>
    <rect id="Rectangle_56" data-name="Rectangle 56" width="105" height="105" transform="translate(-321.115 -15.161)" fill="none"/>
  </g>
</svg>
