<svg xmlns="http://www.w3.org/2000/svg" width="105" height="105" viewBox="0 0 105 105">
  <g id="Group_432" data-name="Group 432" transform="translate(90.215 15.161)">
    <path id="Path_907" data-name="Path 907" d="M-131.206,119.21c-.474-1.585-2.375-2.178-3.927-2.069-.5.038-.992.121-1.469.2a7.439,7.439,0,0,1-2.507.146c-1.721-.305-3.012-1.86-4.086-3.3a128,128,0,0,1-9.191-14.123,8.552,8.552,0,0,1-1.379-3.626c1.056-.445,1.978-.88,2.712-1.231a15.183,15.183,0,0,1,1.854-.81,8.227,8.227,0,0,0,1.142.039,2.586,2.586,0,0,0,.448.042,1.831,1.831,0,0,0,.689-.125.5.5,0,0,0,.09-.059,5.34,5.34,0,0,0,.521-.157.5.5,0,0,0,.315-.017,2.9,2.9,0,0,1,2.754.585.5.5,0,0,0,.327.122.482.482,0,0,0,.125-.016.5.5,0,0,0,.345-.311,4.633,4.633,0,0,0-.7-4.382,8.871,8.871,0,0,0,.118-1.139c-.332-4.713-5.268-4.537-8.88-4.408a13.587,13.587,0,0,1-3.478-.13c-10.093-2.035-26.143,3.085-26.821,3.3a.506.506,0,0,0-.182.108c-4.279,1.648-13.224.513-16.9-.722a.5.5,0,0,0-.488.1.5.5,0,0,0-.163.47,9.729,9.729,0,0,0,6.318,7.7,9.5,9.5,0,0,0,3.04.492A12.674,12.674,0,0,0-183.5,93.5c-.118.274-.228.552-.328.83a31.965,31.965,0,0,0-.783,20.675,2.87,2.87,0,0,0-1.107.24,3.725,3.725,0,0,0-1.8,4.129,5.538,5.538,0,0,0,.189.716,3.365,3.365,0,0,0-2.171-1.014,3.342,3.342,0,0,0-2.494.781,3.329,3.329,0,0,0-1.068,2.384,3.509,3.509,0,0,0,.317,1.591,1.7,1.7,0,0,0-1.616,1.115,1.331,1.331,0,0,0,.208,1.218,3.306,3.306,0,0,0,2.53,1.007h.034c5.465,0,12.257-1.42,17.716-2.561l.658-.138a.485.485,0,0,0,.191-.084,5.774,5.774,0,0,0,2.3-1.047,10.583,10.583,0,0,0,2.831-3.9,40.837,40.837,0,0,0,3.217-8.835,8.946,8.946,0,0,0,1.9,3.592,5.144,5.144,0,0,0,3.478,1.576,3.765,3.765,0,0,0,1.8-.384,8.85,8.85,0,0,0,3.067,5.421,2.8,2.8,0,0,0,1.449.709,2.537,2.537,0,0,0,2.258-1.279,9.323,9.323,0,0,0,6.937,4.864,12.382,12.382,0,0,0,2.055.167,18.889,18.889,0,0,0,7.273-1.67C-132.588,122.816-130.61,121.192-131.206,119.21Z" transform="translate(128 -46)" fill="#ec5a5f"/>
    <rect id="Rectangle_59" data-name="Rectangle 59" width="105" height="105" transform="translate(-90.215 -15.161)" fill="none"/>
  </g>
</svg>
