<svg xmlns="http://www.w3.org/2000/svg" width="105" height="106.766" viewBox="0 0 105 106.766">
  <g id="Group_433" data-name="Group 433" transform="translate(10.215 15.161)">
    <g id="Group_422" data-name="Group 422" transform="translate(136 -46)">
      <path id="Path_908" data-name="Path 908" d="M-61.524,136.284a44.565,44.565,0,0,0-4.034-8.041c-2.034-3.451-3.956-6.712-4.605-10.477-.131-.76-.209-1.55-.284-2.314-.067-.692-.135-1.383-.241-2.069-1.019-6.624-5.5-12.3-9.214-16.891,1.331-.546,2.446-1.119,3.337-1.582a11.54,11.54,0,0,1,1.713-.8,8.112,8.112,0,0,0,1.144.04,2.55,2.55,0,0,0,.445.041,1.826,1.826,0,0,0,.688-.125.474.474,0,0,0,.088-.057,5.381,5.381,0,0,0,.527-.159.5.5,0,0,0,.313-.017,2.908,2.908,0,0,1,2.753.585.5.5,0,0,0,.327.122.482.482,0,0,0,.125-.016.5.5,0,0,0,.345-.311,4.635,4.635,0,0,0-.7-4.383,8.836,8.836,0,0,0,.118-1.138c-.331-4.714-5.268-4.538-8.88-4.408a13.534,13.534,0,0,1-3.478-.13c-10.093-2.035-26.143,3.085-26.821,3.3a.479.479,0,0,0-.182.109c-4.283,1.647-13.226.513-16.894-.724a.506.506,0,0,0-.488.1.5.5,0,0,0-.163.47,9.729,9.729,0,0,0,6.317,7.7,9.509,9.509,0,0,0,3.041.492,12.9,12.9,0,0,0,7.482-2.693,19.689,19.689,0,0,0,1.179,16.818l.088.153a3.927,3.927,0,0,1,.649,1.591,4.187,4.187,0,0,1-1.039,2.443c-.709,1.046-1.442,2.127-1.068,3.419a3.075,3.075,0,0,0,3.772,1.784,5.666,5.666,0,0,0,2.029-1.071,14.024,14.024,0,0,1-1.368,2.1,9.246,9.246,0,0,0-2.115,4.171c-.219,1.685.785,3.728,2.578,3.97a4.478,4.478,0,0,0,2.9-.914,26.09,26.09,0,0,0,5.419-4.59l-1.3,6.615a11,11,0,0,0-.28,3.93,4.071,4.071,0,0,0,2.5,3.266,3.144,3.144,0,0,0,1.017.163,5.429,5.429,0,0,0,3.761-1.9c2.7-2.816,3.781-6.779,4.47-10.334a2.2,2.2,0,0,0,1.366.84,2.1,2.1,0,0,0,1.663-.6,20.951,20.951,0,0,0,2.326,5.349,2.726,2.726,0,0,0,1.65,1.427,1.7,1.7,0,0,0,1.346-.28,4.469,4.469,0,0,0,1.41-2.819l.028-.18a16.46,16.46,0,0,0,4.289,6.74,10.105,10.105,0,0,0,6.5,2.6,7.348,7.348,0,0,0,3.188-.709A.5.5,0,0,0-61.524,136.284Z" fill="#ec5a5f"/>
    </g>
    <rect id="Rectangle_60" data-name="Rectangle 60" width="105" height="105" transform="translate(-10.215 -15.161)" fill="none"/>
  </g>
</svg>
