<svg xmlns="http://www.w3.org/2000/svg" width="128.127" height="73.495" viewBox="0 0 128.127 73.495">
  <path id="Path_880" data-name="Path 880" d="M341.949,591.834c4.909,4.353,7.141,8.085,13.836,7.463,10.266-.622,19.193,9.328,29.459,4.975,4.464-1.866,7.588-6.841,12.052-8.085,5.356-1.243,10.265,2.488,16.068-.622,4.017-1.865,12.944-9.328,11.6-16.791-.893-7.462-9.82-8.706-13.39-4.975-2.232-6.219.446-14.3-1.786-21.144-2.678-8.084-10.712-13.681-16.068-16.791-16.961-10.572-22.318,8.707-31.691,23.632-3.124,5.6-8.48,5.6-12.051,9.95-4.017,4.353-3.125,9.328-9.82,11.194-10.712,2.488-23.656.622-34.368,1.244-4.464,0-11.605,0-5.356,6.841,3.124,4.353,11.158,2.487,15.175,2.487,5.356,0,21.871-3.109,25.442,1.244Z" transform="translate(-297.485 -532.375)" fill="rgba(255,255,255,0.2)" stroke="#ae0721" stroke-width="1"/>
</svg>
