<svg xmlns="http://www.w3.org/2000/svg" width="406.764" height="123.282" viewBox="0 0 406.764 123.282">
  <path id="Path_902" data-name="Path 902" d="M728.336,350.238c3.3-23.3-2.94-49.212-21.14-64.124s-49.218-14.009-62.564,5.369c-6.812,9.892-8.231,22.436-12.822,33.534s-15.112,21.839-26.886,19.47c-8.146-1.639-13.708-8.873-19.951-14.356s-16.181-9.337-22.444-3.877c-2.508,2.186-3.8,5.414-5.662,8.17a22.831,22.831,0,0,1-26.183,8.3c-7.464-2.825-14.755-9.761-22.163-6.792-4.841,1.939-7.25,7.476-11.676,10.236-5.677,3.54-12.972,1.727-19.6.835-11.959-1.609-24.085.218-36.013,2.044q-57.936,8.867-115.867,17.777c37.049,7.944,75.836-2.236,113.357,3.049,19.972,2.813,39.366,9.985,59.533,10.273,14.279.2,28.739-3.053,42.724-.161,20.768,4.3,39.456,21.83,60.2,17.417,16.36-3.481,29.134-20.24,45.786-18.678,4.72.443,9.149,2.382,13.512,4.238,14.8,6.3,31.063,12,46.676,8.14s28.7-21.379,22.111-36.05" transform="translate(-324.861 -275.31)" fill="rgba(255,255,255,0.23)" stroke="#ae0721" stroke-linecap="round" stroke-linejoin="round" stroke-width="1"/>
</svg>
