<svg xmlns="http://www.w3.org/2000/svg" width="189.703" height="74.469" viewBox="0 0 189.703 74.469">
  <path id="Path_871" data-name="Path 871" d="M114.052,989.522a199.791,199.791,0,0,0,49.511,1.105c4.208-.4,8.526-.851,12.91-1.379,6.013-.108,12.028-.264,18.055-.588,12.8-.688,25.727-1.51,38.457-4.286,11.868-2.589,24.754-5.362,34.85-13.49a7.593,7.593,0,0,0,1.431-9.94,22.133,22.133,0,0,1-2.46-5.175,3.441,3.441,0,0,0-2.353-2.161c-2.689-6.1-9.226-9.107-16.907-9.795a72.106,72.106,0,0,0-15.424.246c-1.157-.213-2.27-.375-3.3-.484-9.42-1-18.336,2-26.98,6.7a64.431,64.431,0,0,1-12.558,5.637c-3.867-14.208-16.962-23.838-31.139-26.354-.318-.457-.651-.913-1.013-1.364a29.041,29.041,0,0,0-37.9-6.754c-9.574,5.731-15.008,15.889-16.942,26.664-9.284,2.008-19.947,6.3-21.348,17.226C78.727,982.668,102.523,987.714,114.052,989.522Zm-13.229-29.568c.2.112.295.113.329.059.023.041.057.1.083.144C101.1,960.086,100.957,960.029,100.823,959.954Z" transform="translate(-80.804 -917.179)" fill="rgba(255,255,255,0.2)"/>
</svg>
