<svg xmlns="http://www.w3.org/2000/svg" width="186.242" height="99.915" viewBox="0 0 186.242 99.915">
  <g id="Group_416" data-name="Group 416" transform="translate(-65.291 -91.102)">
    <path id="Path_865" data-name="Path 865" d="M248.976,158.9c-4.958-3.781-17.4,1.444-20.441,2.215,18.8-20.317-22.641-37.96-31.85-16.039,2.12-8.371-11.056-12.207-15.551-7.332,4.453-8.488-4.751-23.789-10.544-16.728-.383-.535-.383-.789-.767-1.324a1.052,1.052,0,0,0,.384.815h-.384c0-10.741-8.826-12.578-14.582-8.835-3.07-49.189-59.863,4.939-37.99,27.4-4.989-3.208-9.594,2.737-6.14,9.688-8.826-4.278-19.954,1.635-13.047,16.606-5.756-5.881-11.9-9.608-19.187-8.539-3.751.825-8.719,2.93-11.3,6.084-2.438,2.978-2.751,6.9,2.093,11.57,5.569,5.691,20.477,8.38,26.653,2.738a5.613,5.613,0,0,0,.214.557,6.239,6.239,0,0,0,3.31,3.042c3.461,1.545,7.565.682,11.066-.076a50.4,50.4,0,0,0,10.265-3.485c.2.143.394.286.592.427a2.257,2.257,0,0,0,1.541,1.072,69.985,69.985,0,0,0,12.7,6.881,68.428,68.428,0,0,0,22.523,4.808c13.578.7,26.807-3.485,39.592-9.453q1.258-.378,2.511-.8a13.274,13.274,0,0,0,3.9,2.875c2.458,1.115,5.265.983,7.806.69,4.112-.472,9.291-1.772,12.778-5.564l2.649.032c5.373,0,20.339-2.138,22.641-10.158C251.69,163.16,250.889,160.363,248.976,158.9Z" fill="rgba(255,255,255,0.2)" stroke="#ae0721" stroke-width="1"/>
  </g>
</svg>
