<svg xmlns="http://www.w3.org/2000/svg" width="247.942" height="107.502" viewBox="0 0 247.942 107.502">
  <path id="Path_876" data-name="Path 876" d="M1146.5,176.679c-3.986-7.777-6.794-13.319-13.982-10.537-7.207,2.232-9.209,2.232-16.417-2.789-4.8-3.348-6.406-6.137-12.412-5.579-5.206,0-11.212,2.789-16.017,4.463-10.411,4.463-20.821,3.347-31.232-2.232-5.606-2.789-4.8-9.484-9.61-13.389-4-2.79-10.01-1.116-14.014-1.674-7.608-1.116-6.007-2.231-8.81-10.042-2.8-7.252-5.6-8.368-11.211-4.463-.4-20.084-8.809-3.9-17.218-12.274-3.6-3.9-4.4-11.157-8.809-15.063a21.837,21.837,0,0,0-15.215-4.463c-13.214,1.116-21.222,13.39-27.629,27.895-3.2,7.252-6.006,14.505-11.211,18.968-4.8,3.9-9.61,1.674-14.816,4.463-10.41,5.021-18.819,22.316-10.01,34.589,8.008,11.716,20.421,10.042,31.232,10.042,12.013,0,23.224-4.463,34.836-7.81,9.209-2.79,17.218,2.232,26.027,1.674l-1.6.558c6.006-.558,8.809,10.042,14.815,10.042,8.009-.558,10.811-16.179,17.619-19.527.4,6.137,4.805,9.485,8.809,11.158,10.01,3.348,16.817-3.347,26.026,5.579,4.805,5.021,11.212,11.158,18.019,9.484,6.006-1.673,7.608-10.042,12.413-13.947,4-3.9,9.61-3.9,13.614-4.463,6.006-.558,12.413-3.9,18.419-4.463,3.2,0,7.607,1.115,11.211,1.673,4.805.558,8.008-1.115,12.813-1.115C1151.407,179.339,1149.32,176.66,1146.5,176.679Z" transform="translate(-904.199 -98.531)" fill="rgba(255,255,255,0.2)"/>
</svg>
