<svg xmlns="http://www.w3.org/2000/svg" width="221.534" height="31.298" viewBox="0 0 221.534 31.298">
  <path id="Path_887" data-name="Path 887" d="M733.714,953.336c2.09-5.987,7.664-11.973.7-17.416-6.27-4.354-22.293-2.721-29.259-1.633-9.056,1.633-17.416,5.443-26.473,7.62-7.663,1.633-13.236.544-21.6,1.088-15.326,1.089-33.439,3.266-48.765,5.987-7.663,1.088-15.326,4.9-23.686,4.9-7.663,0-11.843-1.632-19.506.545,2.786,2.176,4.18,4.9,3.483,6.53l2.787-.544c11.146,3.266,25.776,2.177,37.619,2.177,27.866,1.089,55.731-.544,82.9.544,28.562,1.089,68.271,3.81,94.744-5.442C769.243,950.615,750.434,957.146,733.714,953.336Z" transform="translate(-565.126 -933.063)" fill="rgba(255,255,255,0.2)"/>
</svg>
