<svg xmlns="http://www.w3.org/2000/svg" width="152.292" height="76.09" viewBox="0 0 152.292 76.09">
  <path id="Path_886" data-name="Path 886" d="M654.486,1070.353c-8.261-2.466-17.7,3.289-26.551,0,2.36-15.619-2.36-8.22-7.08-11.509-1.77-1.644-1.77,3.289-4.13-.822-1.181-1.644,1.18-8.22.59-10.686-6.491-26.307-30.681,4.11-9.441,12.33-6.958-2.982-36.737,12.976-40-2.448,8.1.194,18.354,1.73,21.712-11.527,4.13-13.153-4.72-20.551-12.981-23.839-16.52-6.577-35.99,9.042-37.76,34.526-.031.562-.046,1.11-.059,1.653-14.7,1.7-18.8,23.014-2.3,26.3-7.67,4.933-16.52,4.933-24.19,10.687,11.21,1.644,22.42-3.288,33.631-3.288,6.518,0,12.185-.012,18.086-3.039,15.564,3.033,34.408-.223,44.455-1.071l-.59-.822c4.72,2.466,7.081-2.467,10.621-2.467,4.72,0,8.26,4.111,12.98,4.933,6.49.822,7.08-4.933,11.21-5.755,4.13-1.644,4.72,0,8.851,0C662.746,1084.328,668.646,1074.464,654.486,1070.353Z" transform="translate(-511.032 -1019.687)" fill="rgba(255,255,255,0.2)" stroke="#ae0721" stroke-width="1"/>
</svg>
