<svg xmlns="http://www.w3.org/2000/svg" width="366.817" height="123.522" viewBox="0 0 366.817 123.522">
  <path id="Path_874" data-name="Path 874" d="M495.846,166.75c13.362,7.16,37-5.729,52.421-4.3s30.836,10.025,46.254,7.161c11.307-1.432,18.5-7.161,30.837-4.3,11.306,4.3,19.529,8.592,30.836,8.592,15.418,1.432,14.39,4.3,27.752,12.889,16.446,10.025,17.474-4.3,31.864-8.592s17.474,14.321,29.809,21.482c12.334,5.728,20.557-2.865,30.836-10.025s18.5-11.457,29.808-14.322c14.39-4.3,42.143-5.728,47.282-28.642-15.418-8.593-33.919,7.161-51.393,2.864-29.809-7.16-7.2-54.421-40.087-68.742-32.892-12.889-26.725,45.828-51.394,48.692-5.139,0-9.251-10.024-14.39-8.592-8.223,1.432-6.167,10.025-11.307,15.753-10.278,8.593-15.418,7.161-28.78,5.729-12.335-1.433-12.335,2.864-22.613,5.728-8.223,2.864-15.418-2.864-23.641-2.864-16.446,0-31.864,8.593-50.366,7.16-16.446-1.432-32.892-4.3-49.338-1.432-8.223,1.432-32.892,7.161-17.474,21.482Z" transform="translate(-487.297 -78.512)" fill="rgba(255,255,255,0.2)" stroke="#ae0721" stroke-width="1"/>
</svg>
