<svg xmlns="http://www.w3.org/2000/svg" width="354.618" height="96.201" viewBox="0 0 354.618 96.201">
  <path id="Path_901" data-name="Path 901" d="M-115.4,342.731c17.054-2.717,49.637,5.509,60.418-10.775a30.644,30.644,0,0,0,3.451-8.484l4.36-14.84c4.019-13.684,9.454-28.979,23.371-34.876,32.28-13.679,53.022,18.022,63.329,39.949,1.36,2.894,3.017,6.04,6.158,7.272,7.032,2.759,12.4-5.657,18.168-10.153,8.546-6.659,23.668-3.73,28.828,5.584,2.126,3.838,3.432,9.008,7.937,10.084,5.5,1.312,9.283-4.733,14.111-7.4,10.093-5.578,21.677,4.212,31.241,10.776,22.984,15.775,54.152,14.326,82.454,12.164,3.611,2.147-1.235,6.763-5.344,7.771-51.356,12.6-105.186,14.088-158.461,15.51-57.208,1.525-114.674,3.041-171.6-3.412-4.864-.551-9.991-1.262-13.841-4.1s-5.662-8.566-2.458-11.941C-121.358,343.834-118.28,343.191-115.4,342.731Z" transform="translate(124.926 -270.443)" fill="rgba(255,255,255,0.23)"/>
</svg>
