<svg xmlns="http://www.w3.org/2000/svg" width="961" height="864.559" viewBox="0 0 961 864.559">
  <g id="Mountains_stroked" data-name="Mountains stroked" transform="translate(131.32 -120.709)">
    <g id="Group_29" data-name="Group 29" transform="translate(145.017 121.209)">
      <circle id="Ellipse_3" data-name="Ellipse 3" cx="227.181" cy="227.181" r="227.181" fill="#fcb124" opacity="0.15" stroke-linecap="round" stroke-linejoin="round" stroke-width="1" stroke="#ae0721"/>
      <circle id="Ellipse_4" data-name="Ellipse 4" cx="136.373" cy="136.373" r="136.373" transform="translate(34.321 227.181) rotate(-45)" stroke-width="1" stroke="#ae0721" stroke-linecap="round" stroke-linejoin="round" fill="#fcb124"/>
    </g>
    <g id="Group_34" data-name="Group 34" transform="translate(-130.82 336.418)">
      <g id="Group_30" data-name="Group 30" transform="translate(730.2 72.276)">
        <path id="Path_43" data-name="Path 43" d="M486.961,456.064l88.568-66.43,46.888,33.215L707.48,360.78V538.512H477.68Z" transform="translate(-477.68 -360.78)" fill="#db394c" stroke="#ae0721" stroke-linecap="round" stroke-linejoin="round" stroke-width="1"/>
        <path id="Path_44" data-name="Path 44" d="M559.221,384.825,591.5,428.771l14.61-10.731Z" transform="translate(-461.372 -355.971)" fill="#e44956" stroke="#ae0721" stroke-linecap="round" stroke-linejoin="round" stroke-width="1"/>
      </g>
      <g id="Group_31" data-name="Group 31" transform="translate(0.001 43.476)">
        <path id="Path_45" data-name="Path 45" d="M8.877,336.78,286.1,561.092H-130.82v-109.6Z" transform="translate(130.82 -336.78)" fill="#db394c" stroke="#ae0721" stroke-linecap="round" stroke-linejoin="round" stroke-width="1"/>
        <path id="Path_46" data-name="Path 46" d="M-14.406,336.78l25.5,57.654H-8.2l49.241,47.255L85.9,417.943Z" transform="translate(154.102 -336.78)" fill="#e44956" stroke="#ae0721" stroke-linecap="round" stroke-linejoin="round" stroke-width="1"/>
      </g>
      <g id="Group_33" data-name="Group 33">
        <path id="Path_47" data-name="Path 47" d="M-130.82,526.056s81.908-9.654,282-124.376h36l12-16.8,170.4-84.33,459.6,216.33V681.25h-960Z" transform="translate(130.82 -300.55)" fill="#db394c" stroke="#ae0721" stroke-linecap="round" stroke-linejoin="round" stroke-width="1"/>
        <g id="Group_32" data-name="Group 32" transform="translate(500.4 0)">
          <path id="Path_48" data-name="Path 48" d="M286.18,300.55,419.593,411.261l-99.686-16.835L514.5,509.3,745.78,516.88Z" transform="translate(-286.18 -300.55)" fill="#e44956" stroke="#ae0721" stroke-linecap="round" stroke-linejoin="round" stroke-width="1"/>
          <path id="Path_49" data-name="Path 49" d="M496.925,474.511,374.061,572.888l163.72-98.377Z" transform="translate(-268.604 -265.758)" fill="#e44956" stroke="#ae0721" stroke-linecap="round" stroke-linejoin="round" stroke-width="1"/>
        </g>
        <path id="Path_50" data-name="Path 50" d="M141.647,384.825l-44.8,43.946,28-43.946Z" transform="translate(176.353 -283.695)" fill="#e44956" stroke="#ae0721" stroke-linecap="round" stroke-linejoin="round" stroke-width="1"/>
      </g>
    </g>
    <path id="Path_51" data-name="Path 51" d="M816.339,532.106c0-.013,0-.028,0-.042a7.606,7.606,0,0,0-1.92-4.5c-1.116-1.483-1.858-3.054-2.812-4.59-1.086-1.748-2.286-3.271-2.533-5.4,1.925-1.85,3.852,4.087,6.395,3.272,1.784-.572.923-3.25-.14-4.793a33.782,33.782,0,0,1-4.939-11.8c-.472-2.086-.806-4.2-1.086-6.318-.112-.85-.029-5.423-1.962-4.146a2.764,2.764,0,0,0-.935,1.8c-.811,3.528-1.547,7.088-2.462,10.59-.733,2.8-1.074,6.572-2.864,8.928-.974,1.283-2.176,2.256-2.069,4.033a.734.734,0,0,0,.634.77c2.066.689,3.482-.822,4.812-2.185a1.9,1.9,0,0,1,.588-.462.651.651,0,0,1,.7.088c.456.455.052,1.838-.025,2.377a11.156,11.156,0,0,1-2.185,4.918c-1.73,2.351-4,4.324-5.36,6.9a6.076,6.076,0,0,0-.257.553H787.588l-69.65,69.651c-1.2-2.467-3.341-4.471-5.009-6.592a11.241,11.241,0,0,1-2.294-4.212c-.1-.412-.6-1.855-.368-2.208.541-.829,1.382.241,1.668.726a26.327,26.327,0,0,0,1.476,2.234,5.527,5.527,0,0,0,1.434,1.472,2.178,2.178,0,0,0,1.973.252,2.509,2.509,0,0,0,1.264-2.272,6.768,6.768,0,0,0-1.309-3.994,28.522,28.522,0,0,0-2.784-3.238q-1.069-1.157-2.057-2.388c-.716-.892-3.614-6.325-1.43-7.063a1.594,1.594,0,0,1,1.52.455,16.572,16.572,0,0,1,1.069,1.276,4.408,4.408,0,0,0,3.449,1.445,1.435,1.435,0,0,0,1.511-1.674,7.609,7.609,0,0,0-1.92-4.5c-1.116-1.482-1.858-3.053-2.812-4.589-1.086-1.748-2.286-3.272-2.533-5.4,1.926-1.849,3.852,4.088,6.395,3.274,1.784-.572.923-3.25-.14-4.793a33.762,33.762,0,0,1-4.938-11.8c-.472-2.086-.806-4.2-1.086-6.318-.113-.85-.03-5.423-1.963-4.147a2.767,2.767,0,0,0-.935,1.8c-.81,3.528-1.546,7.088-2.462,10.59-.733,2.8-1.074,6.572-2.864,8.928-.974,1.282-2.176,2.255-2.069,4.033a.916.916,0,0,0,.1.409.925.925,0,0,0,.536.361c2.066.688,3.482-.822,4.812-2.185a1.918,1.918,0,0,1,.588-.463.656.656,0,0,1,.7.088c.456.455.052,1.84-.025,2.378a11.168,11.168,0,0,1-2.185,4.918c-1.73,2.351-4,4.324-5.36,6.9a3.252,3.252,0,0,0-.481,1.705,2.242,2.242,0,0,0,2.263,1.844c1.42.091,2.219-1,2.7-2.216a3.688,3.688,0,0,1,1.411-2.06c.193-.1.472-.148.6.032a.507.507,0,0,1,.065.257A10.2,10.2,0,0,1,705.5,580a12.551,12.551,0,0,1-3.193,3.821,9.743,9.743,0,0,0-1.835,2.128A3.239,3.239,0,0,0,700,587.91a1.952,1.952,0,0,0,1.135,1.59,2.462,2.462,0,0,0,2.528-.812c.33-.338,2.19-3.318,2.869-2.141.242.419-.283,2.03-.379,2.507a25.978,25.978,0,0,1-1.416,4.668c-.067.166-.155.322-.226.486l-3.737-3.737H660.043c.078-2.292-1.294-4.621-2.7-6.3-2.155-2.57-4.853-5.436-4.235-8.734,2.245.2,2.85,4.063,5.1,4.015,1.661-.035,2.335-2.251,1.968-3.871-.774-3.43-3.635-5.887-5.722-8.54a11.241,11.241,0,0,1-2.294-4.212c-.1-.41-.6-1.855-.368-2.208.542-.829,1.382.242,1.668.726a26.342,26.342,0,0,0,1.476,2.234,5.515,5.515,0,0,0,1.435,1.472,2.176,2.176,0,0,0,1.972.252,2.512,2.512,0,0,0,1.265-2.272,6.77,6.77,0,0,0-1.309-3.992,28.3,28.3,0,0,0-2.785-3.239q-1.067-1.157-2.057-2.388c-.716-.892-3.613-6.324-1.43-7.063a1.594,1.594,0,0,1,1.52.455,16.561,16.561,0,0,1,1.07,1.276,4.405,4.405,0,0,0,3.448,1.445,1.435,1.435,0,0,0,1.511-1.674,7.606,7.606,0,0,0-1.92-4.5c-1.115-1.483-1.858-3.054-2.812-4.59-1.085-1.748-2.286-3.271-2.532-5.4,1.925-1.85,3.851,4.087,6.394,3.272,1.784-.572.923-3.25-.14-4.793a33.759,33.759,0,0,1-4.938-11.8c-.472-2.086-.806-4.2-1.086-6.318-.113-.85-.03-5.423-1.963-4.146a2.764,2.764,0,0,0-.935,1.8c-.81,3.528-1.546,7.088-2.461,10.59-.733,2.8-1.075,6.572-2.864,8.928-.976,1.283-2.177,2.256-2.07,4.033a.911.911,0,0,0,.1.41.922.922,0,0,0,.535.36c2.068.689,3.482-.822,4.812-2.185a1.905,1.905,0,0,1,.589-.462.651.651,0,0,1,.7.086c.457.456.053,1.84-.025,2.378a11.143,11.143,0,0,1-2.185,4.918c-1.73,2.351-4,4.324-5.359,6.9a3.241,3.241,0,0,0-.482,1.705,2.245,2.245,0,0,0,2.263,1.846c1.42.09,2.219-1,2.7-2.218a3.689,3.689,0,0,1,1.411-2.06c.193-.1.472-.148.6.032a.509.509,0,0,1,.066.257,10.2,10.2,0,0,1-.947,4.97,12.534,12.534,0,0,1-3.193,3.821A9.77,9.77,0,0,0,642,557.822a3.239,3.239,0,0,0-.469,1.962,1.956,1.956,0,0,0,1.135,1.59,2.461,2.461,0,0,0,2.528-.812c.33-.339,2.19-3.318,2.869-2.14.242.419-.282,2.029-.379,2.507a26.064,26.064,0,0,1-6.839,12.954c-1,1.016-2.162,2.152-2.086,3.572.1,1.906,2.486,2.743,4.1,2.294,2.249-.628,2.183-2.96,3.834-4.172a.554.554,0,0,1,.392-.14c.328.047.367.5.313.827a21.748,21.748,0,0,1-3.643,8.879,36.266,36.266,0,0,0-2.838,4.1,7.924,7.924,0,0,0-.508,1.229H628.926a9.624,9.624,0,0,0-1.643-2.3c-.766-.78-1.661-1.427-2.407-2.225-.505-.539-2.548-4.037-.443-3.95a1.169,1.169,0,0,1,.712.352c.509.464.83,1.1,1.3,1.6a1.7,1.7,0,0,0,1.843.576c.872-.406.82-1.663.524-2.579a15.847,15.847,0,0,0-2.97-5.238c-1.17-1.41-3.2-2.882-2.542-4.969a1.391,1.391,0,0,1,.436-.7,1.237,1.237,0,0,1,1.322-.018,3.647,3.647,0,0,1,1.013.954c.437.533,2.281,3.551,3.126,1.886a1.435,1.435,0,0,0,.1-.731,13.088,13.088,0,0,0-2.266-6.674c-1.229-1.792-2.922-3.3-3.737-5.315-.48-1.184-.562-3.335,1.1-3.367,1.4-.028,2.424,1.634,3.494,2.266.858.508,2.252.414,2.533-.542a2.05,2.05,0,0,0-.106-1.165,14.433,14.433,0,0,0-3.455-5.921c-1.542-1.53-2.824-2.424-3.714-4.6-.335-.816-.5-1.937.236-2.423a1.608,1.608,0,0,1,1.86.343c.509.45.859,1.056,1.366,1.507a1.615,1.615,0,0,0,1.859.356,1.427,1.427,0,0,0,.523-1.436,4.2,4.2,0,0,0-.664-1.464c-.93-1.5-1.95-2.942-2.864-4.453-.694-1.145-1.95-2.65-2.147-3.979a1.161,1.161,0,0,1,.466-1.267.992.992,0,0,1,.961.178,7.111,7.111,0,0,1,.724.724,3.332,3.332,0,0,0,1.849.925,1.438,1.438,0,0,0,1.29-.331,1.417,1.417,0,0,0,.271-1.079c-.136-1.579-1.4-2.795-2.557-3.874-.721-.671-4.358-5.166-2.678-6.073,1.3-.7,3.029,3.416,4.41,1.726a1.791,1.791,0,0,0,.139-1.714,3.679,3.679,0,0,0-1.121-1.6,16.278,16.278,0,0,0-2.1-1.226c-.9-.539-3.14-3.572-1.486-4.334,1.26-.581,2.124,1.268,3.026,1.76a.815.815,0,0,0,.971-.042.531.531,0,0,0,.038-.052.857.857,0,0,0,.1-.407c.131-1.955-.882-3.792-1.954-5.432s-2.268-3.3-2.579-5.231a1.741,1.741,0,0,1,.059-.983.733.733,0,0,1,.8-.455c.529.14.212,1.1.69,1.478a1.534,1.534,0,0,0,1.642-.011,2.129,2.129,0,0,0,.653-2.348,7.893,7.893,0,0,0-1.3-2.248,19.837,19.837,0,0,1-3.2-7.529c-.527-2.657-.112-5.129-.151-7.77-.01-.7.126-4.224-1.066-4.157-1.1.061-1.187,3.131-1.232,3.864-.373,5.911-.875,12.269-4.663,16.823a4.181,4.181,0,0,0-1.165,1.963,1.8,1.8,0,0,0,3.052,1.519c.36-.355.794-1.273,1.414-.661a1.472,1.472,0,0,1,.336.984c.145,2.428-.99,4.744-2.285,6.8s-2.8,4.033-3.551,6.347a4.156,4.156,0,0,0-.205,2.275,1.9,1.9,0,0,0,1.577,1.487c1.273.091,1.47-1.115,2.432-1.608a1.259,1.259,0,0,1,1.477.155,1.416,1.416,0,0,1,.293,1.018c-.074,1.819-1.722,3.1-3.013,4.384a14.9,14.9,0,0,0-3.432,5.32,4.7,4.7,0,0,0-.377,1.813,2.019,2.019,0,0,0,.8,1.608,2.21,2.21,0,0,0,2.628-.448,9.731,9.731,0,0,0,1.58-2.394,2,2,0,0,1,1.169-1.087c2.152-.462.613,3.16.161,3.752-2.55,3.34-6.089,6.613-5.867,10.81a1.891,1.891,0,0,0,.856,1.711c.892.406,1.8-.492,2.376-1.286.365-.508,2.795-5.5,3.122-2.887.31,2.47-1.568,3.606-2.932,5.25a17.819,17.819,0,0,0-3.392,6.4c-.288,1-.317,2.371.648,2.756,1.487.594,2-1.409,2.869-2.092a1.5,1.5,0,0,1,2.474.882,3.191,3.191,0,0,1-.509,2.162c-1.573,2.749-4.786,4.41-5.88,7.382a2.072,2.072,0,0,0,.354,2.388c1.159.84,2.285-.613,3.048-1.292a1.354,1.354,0,0,1,.882-.451.882.882,0,0,1,.757.7,2.029,2.029,0,0,1-.1,1.086c-.949,3.07-3.649,4.393-5.473,6.8a8.277,8.277,0,0,0-1.565,3.644A3.526,3.526,0,0,0,610,584.69a1.669,1.669,0,0,0,1.483,1.082c.829-.019,1.426-.809,1.735-1.578a6.574,6.574,0,0,1,1.058-2.23c.72-.755,2.244-.66,2.344.548.076.924-1.409,2.179-1.883,2.921-1.063,1.662-2.094,3.344-3.108,5.036H599.144l-32.156,32.156a23.922,23.922,0,0,0-1.842-2.036,17.558,17.558,0,0,1-4.441-7.848,17.387,17.387,0,0,0,3.377,3.287c.9.665,1.889.574,2.26-.638a3.966,3.966,0,0,0,.064-1.57,10.721,10.721,0,0,0-.772-3.3c-.8-1.786-2.327-3.119-3.587-4.615s-2.32-3.427-1.884-5.335a1.089,1.089,0,0,1,.474-.766c.44-.226.968.142,1.222.568.553.928.568,1.612,1.754,1.236a2.241,2.241,0,0,0,1.378-2.114,4.394,4.394,0,0,0-.749-1.954c-1.841-3.161-5.468-6.044-4.88-10.121a1.219,1.219,0,0,1,.342-.782c.553-.47,1.361.146,1.768.748s1.016,1.333,1.694,1.074c.652-.248.656-1.166.485-1.842-.78-3.068-2.72-5.7-4.009-8.588a4.64,4.64,0,0,1-.538-2.362.855.855,0,0,1,.144-.433.708.708,0,0,1,.992,0c.641.568.7,1.711,1.781,1.847,1.007.126,1.775-1.039,1.685-2.051a6.5,6.5,0,0,0-1.268-2.732c-3.964-6.306-3.922-14.63-6.342-21.566a1.411,1.411,0,0,0-.424-.709,1,1,0,0,0-1.386.527,3.149,3.149,0,0,0-.086,1.675c.564,4.759-.325,9.559-1.211,14.27a34.147,34.147,0,0,1-1.294,5.311c-.8,2.218-2.047,4.247-2.927,6.433-.445,1.1-.566,2.746.564,3.116,1.409.463,2.417-1.81,3.9-1.758,2.438.084.516,3.373.054,4.3-1.08,2.168-2.851,4.208-2.906,6.746a1.788,1.788,0,0,0,.215,1.009c1.3,2.023,3.1-1.225,3.664-2.011a.939.939,0,0,1,1.183-.395c.366.239.362.767.318,1.2-.521,5.05-5.746,8.129-7.106,12.94a2.58,2.58,0,0,0,0,1.829c.638,1.286,2.659.949,3.694-.046.728-.7,1.18-1.646,1.9-2.342.75-.722,2.111-1.115,1.769.55a3.374,3.374,0,0,1-.919,1.481c-1.116,1.246-2.234,2.492-3.46,3.632a13.017,13.017,0,0,0-1.8,1.85,10.486,10.486,0,0,0-1.289,2.878c-.3.9-.534,2.039.184,2.653a1.59,1.59,0,0,0,1.646.149,3.872,3.872,0,0,0,1.326-1.111,14.718,14.718,0,0,0,1.637-2.376.64.64,0,0,1,.856.317,1.66,1.66,0,0,1,.071,1.009c-.434,2.8-1.789,4.088-3.776,5.861-2.138,1.908-4.64,3.937-4.909,6.792a2.773,2.773,0,0,0,.238,1.522H470.721a2.778,2.778,0,0,0,.026-.314,7.6,7.6,0,0,0-1.92-4.5c-1.115-1.483-1.858-3.053-2.812-4.59-1.085-1.747-2.286-3.271-2.532-5.4,1.925-1.85,3.852,4.088,6.395,3.272,1.784-.572.923-3.25-.14-4.793a33.752,33.752,0,0,1-4.939-11.8c-.472-2.084-.806-4.2-1.086-6.317-.112-.851-.029-5.424-1.963-4.147a2.771,2.771,0,0,0-.934,1.8c-.811,3.528-1.547,7.088-2.462,10.59-.733,2.8-1.075,6.572-2.864,8.928-.974,1.283-2.176,2.256-2.069,4.033a.736.736,0,0,0,.632.772c2.068.688,3.482-.822,4.813-2.186a1.9,1.9,0,0,1,.588-.462.652.652,0,0,1,.7.088c.456.455.052,1.838-.025,2.377a11.156,11.156,0,0,1-2.185,4.918c-1.73,2.351-4,4.324-5.36,6.9a3.239,3.239,0,0,0-.481,1.705,2.241,2.241,0,0,0,2.263,1.846c1.42.09,2.219-1,2.7-2.218a3.69,3.69,0,0,1,1.412-2.06c.192-.1.47-.146.594.032a.5.5,0,0,1,.066.258,10.043,10.043,0,0,1-.671,4.266L445.9,635.529c0-.014,0-.031-.006-.046-.775-3.43-3.635-5.887-5.723-8.54a11.258,11.258,0,0,1-2.294-4.212c-.1-.41-.6-1.855-.367-2.208.541-.829,1.382.242,1.668.726a26.3,26.3,0,0,0,1.475,2.234,5.552,5.552,0,0,0,1.435,1.472,2.176,2.176,0,0,0,1.972.252,2.507,2.507,0,0,0,1.265-2.272,6.77,6.77,0,0,0-1.309-3.992,28.3,28.3,0,0,0-2.784-3.238q-1.069-1.159-2.057-2.389c-.716-.892-3.614-6.324-1.43-7.063a1.6,1.6,0,0,1,1.52.455,16.552,16.552,0,0,1,1.069,1.276,4.407,4.407,0,0,0,3.449,1.445,1.434,1.434,0,0,0,1.51-1.674,7.6,7.6,0,0,0-1.919-4.5c-1.116-1.483-1.859-3.054-2.812-4.59-1.086-1.748-2.287-3.271-2.533-5.4,1.925-1.85,3.852,4.087,6.395,3.272,1.784-.572.923-3.25-.14-4.793a33.76,33.76,0,0,1-4.939-11.8c-.472-2.086-.806-4.2-1.086-6.318-.112-.849-.029-5.423-1.963-4.146a2.768,2.768,0,0,0-.934,1.8c-.811,3.528-1.547,7.088-2.462,10.59-.733,2.8-1.075,6.572-2.864,8.928-.974,1.283-2.176,2.256-2.069,4.033a.734.734,0,0,0,.632.77c2.068.689,3.482-.822,4.813-2.185a1.9,1.9,0,0,1,.588-.462.654.654,0,0,1,.7.086c.456.456.052,1.84-.025,2.378a11.155,11.155,0,0,1-2.185,4.918c-1.732,2.351-4,4.324-5.36,6.9a3.239,3.239,0,0,0-.481,1.705,2.242,2.242,0,0,0,2.263,1.846c1.42.09,2.219-1,2.7-2.218a3.69,3.69,0,0,1,1.412-2.06c.192-.1.47-.148.594.032a.5.5,0,0,1,.066.257,10.209,10.209,0,0,1-.946,4.97,12.538,12.538,0,0,1-3.194,3.821,9.765,9.765,0,0,0-1.834,2.128,3.24,3.24,0,0,0-.47,1.962,1.955,1.955,0,0,0,1.136,1.59,2.459,2.459,0,0,0,2.527-.812c.33-.338,2.19-3.318,2.87-2.14.241.419-.283,2.029-.38,2.507a26.035,26.035,0,0,1-6.839,12.954c-1,1.016-2.161,2.152-2.086,3.572.1,1.906,2.486,2.743,4.1,2.294,2.25-.628,2.184-2.96,3.834-4.172a.557.557,0,0,1,.394-.14c.326.047.367.5.312.827a21.717,21.717,0,0,1-1.231,4.373l-20.354,7.272c-.464-.527-.934-1.048-1.373-1.594-.716-.892-3.614-6.325-1.43-7.063a1.594,1.594,0,0,1,1.52.455,16.551,16.551,0,0,1,1.069,1.276,4.408,4.408,0,0,0,3.449,1.445,1.435,1.435,0,0,0,1.511-1.674,7.609,7.609,0,0,0-1.92-4.5c-1.116-1.482-1.858-3.053-2.812-4.589-1.086-1.748-2.286-3.272-2.533-5.4,1.926-1.849,3.852,4.088,6.395,3.274,1.784-.572.923-3.25-.14-4.793a33.759,33.759,0,0,1-4.938-11.8c-.472-2.086-.806-4.2-1.086-6.318-.113-.85-.03-5.423-1.963-4.147a2.767,2.767,0,0,0-.935,1.8c-.81,3.528-1.546,7.088-2.462,10.59-.733,2.8-1.074,6.572-2.864,8.928-.974,1.282-2.176,2.255-2.069,4.033a.736.736,0,0,0,.634.77c2.066.688,3.482-.822,4.812-2.185a1.917,1.917,0,0,1,.588-.463.656.656,0,0,1,.7.088c.456.455.052,1.84-.025,2.378a11.168,11.168,0,0,1-2.185,4.918c-1.73,2.351-4,4.324-5.36,6.9a3.25,3.25,0,0,0-.481,1.705,2.242,2.242,0,0,0,2.263,1.844c1.42.091,2.219-1,2.7-2.216a3.689,3.689,0,0,1,1.411-2.06c.193-.1.472-.148.6.032a.508.508,0,0,1,.065.257,10.2,10.2,0,0,1-.946,4.97,12.535,12.535,0,0,1-3.193,3.821,9.739,9.739,0,0,0-1.835,2.128,3.252,3.252,0,0,0-.47,1.938l-12.9,4.607H338.6l-22.842-10.554a30.182,30.182,0,0,0-2.7-3.118q-1.069-1.157-2.057-2.388c-.716-.892-3.614-6.325-1.43-7.063a1.6,1.6,0,0,1,1.52.455,16.571,16.571,0,0,1,1.069,1.276,4.406,4.406,0,0,0,3.449,1.445,1.434,1.434,0,0,0,1.51-1.674,7.6,7.6,0,0,0-1.919-4.5c-1.116-1.482-1.858-3.053-2.812-4.589-1.086-1.748-2.286-3.272-2.533-5.4,1.925-1.849,3.852,4.088,6.395,3.274,1.784-.572.923-3.25-.14-4.793a33.761,33.761,0,0,1-4.939-11.8c-.472-2.086-.806-4.2-1.086-6.318-.112-.85-.029-5.423-1.963-4.147a2.771,2.771,0,0,0-.934,1.8c-.811,3.528-1.547,7.088-2.462,10.59-.733,2.8-1.075,6.572-2.864,8.928-.974,1.282-2.176,2.256-2.069,4.033a.736.736,0,0,0,.632.77c2.068.688,3.482-.822,4.813-2.185a1.882,1.882,0,0,1,.588-.462.653.653,0,0,1,.7.086c.456.455.052,1.84-.025,2.378a11.167,11.167,0,0,1-2.185,4.918c-1.73,2.351-4,4.324-5.36,6.9a3.24,3.24,0,0,0-.481,1.705,2.241,2.241,0,0,0,2.263,1.844c1.42.091,2.219-1,2.7-2.218a3.687,3.687,0,0,1,1.412-2.059c.192-.1.47-.148.594.032a.5.5,0,0,1,.066.257,10.211,10.211,0,0,1-.946,4.97,7.288,7.288,0,0,1-.913,1.458l-7.484-3.457a6.9,6.9,0,0,0-1.295-3.769,28.406,28.406,0,0,0-2.784-3.238q-1.069-1.159-2.057-2.389c-.716-.892-3.614-6.324-1.43-7.063a1.6,1.6,0,0,1,1.52.455c.409.376.7.862,1.069,1.276a4.406,4.406,0,0,0,3.449,1.445,1.435,1.435,0,0,0,1.511-1.674,7.606,7.606,0,0,0-1.92-4.5c-1.116-1.483-1.858-3.053-2.812-4.59-1.086-1.747-2.286-3.271-2.533-5.4,1.925-1.85,3.852,4.088,6.395,3.272,1.784-.572.923-3.25-.14-4.793a33.775,33.775,0,0,1-4.939-11.8c-.472-2.084-.806-4.2-1.086-6.317-.112-.851-.029-5.424-1.962-4.147a2.767,2.767,0,0,0-.935,1.8c-.811,3.528-1.547,7.088-2.462,10.59-.733,2.8-1.074,6.574-2.864,8.928-.974,1.283-2.176,2.256-2.069,4.033a.736.736,0,0,0,.634.772c2.066.688,3.482-.822,4.812-2.186a1.9,1.9,0,0,1,.588-.462.651.651,0,0,1,.7.088c.456.455.052,1.839-.025,2.377a11.156,11.156,0,0,1-2.185,4.918c-1.73,2.351-4,4.324-5.36,6.9a3.24,3.24,0,0,0-.481,1.705,2.242,2.242,0,0,0,2.263,1.846c1.42.09,2.219-1,2.7-2.218a3.7,3.7,0,0,1,1.412-2.06c.192-.1.472-.146.594.032a.5.5,0,0,1,.066.258,10.207,10.207,0,0,1-.946,4.969,12.061,12.061,0,0,1-3.076,3.71L268.759,624.9a11.831,11.831,0,0,0-2.556-4.777c-2.155-2.572-4.853-5.436-4.235-8.734,2.245.2,2.849,4.062,5.1,4.015,1.661-.035,2.334-2.251,1.968-3.872-.775-3.428-3.635-5.886-5.722-8.54a11.236,11.236,0,0,1-2.294-4.211c-.1-.412-.6-1.855-.368-2.209.541-.829,1.382.242,1.668.727a26.512,26.512,0,0,0,1.476,2.234,5.522,5.522,0,0,0,1.434,1.471,2.174,2.174,0,0,0,1.973.252,2.507,2.507,0,0,0,1.264-2.27,6.766,6.766,0,0,0-1.309-3.994,28.4,28.4,0,0,0-2.784-3.238q-1.069-1.159-2.057-2.388c-.716-.893-3.614-6.325-1.43-7.063a1.6,1.6,0,0,1,1.52.454c.409.376.7.862,1.069,1.276a4.4,4.4,0,0,0,3.449,1.445,1.435,1.435,0,0,0,1.511-1.673,7.609,7.609,0,0,0-1.92-4.5c-1.116-1.483-1.858-3.053-2.812-4.589-1.086-1.748-2.286-3.272-2.533-5.4,1.926-1.85,3.852,4.088,6.395,3.272,1.784-.572.923-3.248-.14-4.793a33.753,33.753,0,0,1-4.938-11.8c-.472-2.086-.806-4.2-1.086-6.318-.113-.851-.03-5.424-1.963-4.147a2.767,2.767,0,0,0-.935,1.8c-.81,3.528-1.546,7.088-2.462,10.59-.733,2.8-1.074,6.574-2.864,8.928-.974,1.283-2.176,2.256-2.069,4.033a.736.736,0,0,0,.634.772c2.066.688,3.482-.822,4.812-2.186a1.935,1.935,0,0,1,.588-.462.651.651,0,0,1,.7.088c.456.455.052,1.838-.025,2.378a11.157,11.157,0,0,1-2.185,4.916c-1.73,2.351-4,4.324-5.36,6.9A3.254,3.254,0,0,0,249.8,585a2.242,2.242,0,0,0,2.263,1.846c1.42.09,2.219-1,2.7-2.218a3.686,3.686,0,0,1,1.411-2.059c.193-.1.472-.148.6.031a.512.512,0,0,1,.065.258,10.2,10.2,0,0,1-.946,4.97,12.535,12.535,0,0,1-3.193,3.821,9.713,9.713,0,0,0-1.835,2.128,3.236,3.236,0,0,0-.469,1.961,1.952,1.952,0,0,0,1.135,1.591,2.462,2.462,0,0,0,2.528-.814c.33-.338,2.19-3.317,2.869-2.14.242.419-.283,2.03-.379,2.507a26.043,26.043,0,0,1-6.84,12.954c-.995,1.016-2.161,2.152-2.086,3.574.1,1.9,2.486,2.743,4.1,2.293,2.249-.628,2.183-2.959,3.833-4.172a.563.563,0,0,1,.394-.14c.328.047.367.5.313.827a21.7,21.7,0,0,1-1.972,6l-19.811-9.152a2.642,2.642,0,0,0,1.038-2.114,6.776,6.776,0,0,0-1.309-3.994,28.508,28.508,0,0,0-2.784-3.238q-1.069-1.157-2.057-2.388c-.716-.892-3.614-6.325-1.43-7.063a1.6,1.6,0,0,1,1.52.455A16.558,16.558,0,0,1,230.521,592a4.408,4.408,0,0,0,3.449,1.445,1.435,1.435,0,0,0,1.511-1.674,7.609,7.609,0,0,0-1.92-4.5c-1.116-1.483-1.858-3.053-2.812-4.589-1.086-1.748-2.286-3.272-2.533-5.4,1.926-1.849,3.852,4.088,6.395,3.274,1.784-.573.923-3.25-.14-4.793a33.784,33.784,0,0,1-4.939-11.8c-.472-2.086-.806-4.2-1.085-6.318-.113-.85-.03-5.423-1.963-4.147a2.767,2.767,0,0,0-.935,1.8c-.811,3.528-1.546,7.087-2.462,10.59-.733,2.8-1.074,6.572-2.864,8.927-.974,1.283-2.176,2.256-2.069,4.034a.736.736,0,0,0,.634.77c2.066.688,3.482-.822,4.812-2.185a1.921,1.921,0,0,1,.588-.463.656.656,0,0,1,.7.088c.456.455.052,1.84-.025,2.378a11.158,11.158,0,0,1-2.185,4.916c-1.73,2.352-4,4.325-5.36,6.906a3.25,3.25,0,0,0-.481,1.7A2.242,2.242,0,0,0,219.1,594.8c1.42.091,2.219-1,2.7-2.218a3.686,3.686,0,0,1,1.411-2.059c.192-.1.472-.148.594.032a.5.5,0,0,1,.066.257,10.211,10.211,0,0,1-.946,4.97,12.552,12.552,0,0,1-3.193,3.821,10.913,10.913,0,0,0-1.667,1.874l-19.03-8.792c-.29-.311-.582-.622-.871-.934q-1.067-1.159-2.057-2.388c-.716-.893-3.614-6.325-1.43-7.063a1.6,1.6,0,0,1,1.52.454c.409.376.7.862,1.069,1.276a4.4,4.4,0,0,0,3.449,1.445,1.435,1.435,0,0,0,1.511-1.673,7.609,7.609,0,0,0-1.92-4.5c-1.116-1.483-1.858-3.053-2.812-4.589-1.086-1.748-2.286-3.272-2.533-5.4,1.926-1.85,3.852,4.088,6.395,3.272,1.784-.572.923-3.248-.14-4.793a33.753,33.753,0,0,1-4.938-11.8c-.472-2.086-.806-4.2-1.086-6.318-.113-.851-.03-5.424-1.963-4.147a2.767,2.767,0,0,0-.935,1.8c-.81,3.528-1.546,7.088-2.462,10.59-.733,2.8-1.074,6.574-2.864,8.928-.974,1.283-2.176,2.256-2.069,4.033a.736.736,0,0,0,.634.772c2.066.688,3.482-.822,4.812-2.186a1.935,1.935,0,0,1,.588-.462.651.651,0,0,1,.7.088c.456.455.052,1.838-.025,2.378a11.157,11.157,0,0,1-2.185,4.916c-1.73,2.351-4,4.324-5.36,6.9a3.254,3.254,0,0,0-.481,1.705,1.654,1.654,0,0,0,.185.637l-4.787-2.212a32.063,32.063,0,0,0-2.61-3q-1.069-1.157-2.057-2.388c-.716-.892-3.614-6.325-1.43-7.063a1.6,1.6,0,0,1,1.52.455,16.57,16.57,0,0,1,1.069,1.276,4.406,4.406,0,0,0,3.449,1.445,1.435,1.435,0,0,0,1.511-1.674,7.606,7.606,0,0,0-1.92-4.5c-1.116-1.483-1.858-3.054-2.812-4.59-1.086-1.748-2.286-3.271-2.533-5.4,1.925-1.85,3.852,4.087,6.395,3.272,1.784-.572.923-3.25-.14-4.793a33.762,33.762,0,0,1-4.939-11.8c-.472-2.086-.806-4.2-1.086-6.318-.112-.85-.029-5.423-1.963-4.147a2.774,2.774,0,0,0-.934,1.8c-.811,3.528-1.547,7.088-2.462,10.59-.733,2.8-1.075,6.572-2.864,8.928-.974,1.283-2.176,2.256-2.069,4.033a.734.734,0,0,0,.632.77c2.068.689,3.482-.822,4.813-2.185a1.9,1.9,0,0,1,.588-.462.653.653,0,0,1,.7.086c.456.456.052,1.84-.025,2.378a11.162,11.162,0,0,1-2.185,4.918c-1.73,2.351-4,4.324-5.36,6.9a3.24,3.24,0,0,0-.481,1.705,2.244,2.244,0,0,0,2.263,1.846c1.42.09,2.219-1,2.7-2.218a3.691,3.691,0,0,1,1.412-2.06c.192-.1.47-.148.594.032a.5.5,0,0,1,.066.257,10.209,10.209,0,0,1-.946,4.97,7.24,7.24,0,0,1-.87,1.4L144.45,567.468c-.926-1.115-1.918-2.182-2.782-3.281a11.228,11.228,0,0,1-2.294-4.211c-.1-.412-.6-1.855-.367-2.208.541-.83,1.382.241,1.668.726a26.03,26.03,0,0,0,1.475,2.234,5.532,5.532,0,0,0,1.435,1.472,2.175,2.175,0,0,0,1.972.251,2.505,2.505,0,0,0,1.265-2.27,6.776,6.776,0,0,0-1.309-3.994,28.407,28.407,0,0,0-2.784-3.238q-1.069-1.159-2.058-2.388c-.716-.892-3.613-6.325-1.43-7.063a1.6,1.6,0,0,1,1.522.455c.409.376.7.86,1.069,1.274a4.4,4.4,0,0,0,3.448,1.446A1.436,1.436,0,0,0,146.789,545a7.609,7.609,0,0,0-1.92-4.5c-1.115-1.483-1.858-3.053-2.812-4.589-1.085-1.748-2.286-3.272-2.532-5.4,1.925-1.85,3.851,4.088,6.394,3.272,1.786-.571.924-3.248-.139-4.793a33.724,33.724,0,0,1-4.939-11.8c-.472-2.086-.806-4.2-1.086-6.318-.112-.851-.029-5.424-1.963-4.147a2.778,2.778,0,0,0-.935,1.8c-.81,3.527-1.546,7.087-2.461,10.589-.733,2.8-1.075,6.574-2.864,8.928-.976,1.283-2.176,2.256-2.07,4.033a.94.94,0,0,0,.1.41.923.923,0,0,0,.535.361c2.068.688,3.482-.822,4.812-2.185a1.909,1.909,0,0,1,.589-.463.649.649,0,0,1,.7.088c.457.455.053,1.84-.024,2.378a11.157,11.157,0,0,1-2.185,4.916c-1.732,2.351-4,4.325-5.36,6.9a3.255,3.255,0,0,0-.482,1.705,2.243,2.243,0,0,0,2.264,1.846c1.418.09,2.218-1,2.7-2.218a3.687,3.687,0,0,1,1.412-2.059c.192-.1.47-.148.594.031a.512.512,0,0,1,.066.258,10.2,10.2,0,0,1-.947,4.97,12.535,12.535,0,0,1-3.193,3.821,9.744,9.744,0,0,0-1.835,2.128,3.237,3.237,0,0,0-.469,1.961,1.957,1.957,0,0,0,1.135,1.591,2.462,2.462,0,0,0,2.528-.814c.33-.337,2.19-3.317,2.87-2.14.241.419-.283,2.03-.38,2.507a25.853,25.853,0,0,1-1.31,4.373l-20.726-9.576c0-.014,0-.03,0-.044a7.606,7.606,0,0,0-1.92-4.5c-1.115-1.483-1.858-3.053-2.812-4.59-1.085-1.747-2.286-3.271-2.532-5.4,1.925-1.85,3.851,4.088,6.394,3.272,1.786-.572.924-3.25-.139-4.793a33.729,33.729,0,0,1-4.939-11.8c-.472-2.084-.806-4.2-1.086-6.317-.113-.851-.029-5.424-1.963-4.147a2.778,2.778,0,0,0-.935,1.8c-.81,3.528-1.546,7.088-2.461,10.59-.733,2.8-1.075,6.574-2.864,8.928-.976,1.283-2.176,2.256-2.07,4.033a.944.944,0,0,0,.1.41.923.923,0,0,0,.535.361c2.068.688,3.482-.822,4.812-2.186a1.906,1.906,0,0,1,.589-.462.649.649,0,0,1,.7.088c.457.455.053,1.838-.024,2.377a11.156,11.156,0,0,1-2.185,4.918c-.286.388-.588.762-.9,1.134L88.939,541.82c-.536-.614-1.1-1.206-1.656-1.8q-1.069-1.159-2.057-2.389c-.716-.892-3.614-6.324-1.43-7.063a1.6,1.6,0,0,1,1.52.455c.409.376.7.862,1.069,1.276a4.407,4.407,0,0,0,3.449,1.445,1.435,1.435,0,0,0,1.511-1.674,7.606,7.606,0,0,0-1.92-4.5c-1.116-1.483-1.858-3.054-2.812-4.59-1.086-1.748-2.286-3.271-2.533-5.4,1.925-1.85,3.852,4.087,6.395,3.272,1.784-.572.923-3.25-.14-4.793a33.761,33.761,0,0,1-4.939-11.8c-.472-2.086-.806-4.2-1.086-6.318-.112-.85-.029-5.423-1.963-4.146a2.768,2.768,0,0,0-.934,1.8c-.811,3.528-1.547,7.088-2.462,10.59-.733,2.8-1.075,6.572-2.864,8.928-.974,1.283-2.176,2.256-2.069,4.033a.734.734,0,0,0,.632.77c2.068.689,3.482-.822,4.813-2.185a1.9,1.9,0,0,1,.588-.462.651.651,0,0,1,.7.088c.456.455.052,1.838-.025,2.377a11.156,11.156,0,0,1-2.185,4.918c-1.73,2.351-4,4.324-5.36,6.9a3.24,3.24,0,0,0-.481,1.705,2.242,2.242,0,0,0,2.263,1.846c1.42.09,2.219-1,2.7-2.218a3.69,3.69,0,0,1,1.412-2.06c.192-.1.47-.148.594.032a.5.5,0,0,1,.066.257,10.208,10.208,0,0,1-.946,4.97,7.065,7.065,0,0,1-.473.829L64.1,530.341a10.547,10.547,0,0,0-2.707-5.872c-2.155-2.572-4.853-5.436-4.235-8.734,2.245.2,2.849,4.062,5.1,4.015,1.661-.035,2.334-2.252,1.968-3.872-.775-3.43-3.635-5.886-5.722-8.54a11.236,11.236,0,0,1-2.294-4.211c-.1-.412-.6-1.855-.368-2.209.541-.829,1.382.242,1.668.727a26.289,26.289,0,0,0,1.475,2.233,5.532,5.532,0,0,0,1.435,1.472,2.174,2.174,0,0,0,1.973.252,2.507,2.507,0,0,0,1.264-2.27,6.773,6.773,0,0,0-1.309-3.994,28.411,28.411,0,0,0-2.784-3.238q-1.069-1.159-2.057-2.389c-.716-.892-3.614-6.324-1.43-7.063a1.6,1.6,0,0,1,1.52.455c.409.376.7.862,1.069,1.276a4.406,4.406,0,0,0,3.449,1.445,1.435,1.435,0,0,0,1.511-1.674,7.606,7.606,0,0,0-1.92-4.5c-1.116-1.483-1.858-3.053-2.812-4.59-1.086-1.747-2.286-3.271-2.533-5.4,1.926-1.85,3.852,4.088,6.395,3.272,1.784-.572.923-3.25-.14-4.793a33.774,33.774,0,0,1-4.939-11.8c-.472-2.084-.806-4.2-1.086-6.317-.112-.851-.029-5.424-1.962-4.147a2.767,2.767,0,0,0-.935,1.8c-.81,3.528-1.546,7.088-2.462,10.59-.733,2.8-1.074,6.572-2.864,8.928-.974,1.283-2.176,2.256-2.069,4.033a.736.736,0,0,0,.634.772c2.066.688,3.482-.822,4.812-2.186a1.915,1.915,0,0,1,.588-.462.651.651,0,0,1,.7.088c.456.455.052,1.838-.025,2.377a11.156,11.156,0,0,1-2.185,4.918c-1.73,2.351-4,4.324-5.36,6.9a3.251,3.251,0,0,0-.481,1.705,2.242,2.242,0,0,0,2.263,1.846c1.42.09,2.219-1,2.7-2.218a3.689,3.689,0,0,1,1.411-2.06c.193-.1.472-.146.6.032a.512.512,0,0,1,.065.258,10.206,10.206,0,0,1-.946,4.969,12.523,12.523,0,0,1-3.193,3.821,9.744,9.744,0,0,0-1.835,2.129,3.235,3.235,0,0,0-.469,1.961,1.954,1.954,0,0,0,1.135,1.591,2.465,2.465,0,0,0,2.528-.814c.33-.338,2.19-3.317,2.869-2.14.242.419-.283,2.03-.379,2.507a26.056,26.056,0,0,1-6.84,12.954c-.995,1.016-2.161,2.152-2.086,3.574.1,1.9,2.486,2.742,4.1,2.293,2.249-.628,2.183-2.959,3.833-4.172a.563.563,0,0,1,.394-.14c.328.047.367.5.312.827a21.725,21.725,0,0,1-2.372,6.836l-15.215-7.03c-.636-.77-1.337-1.489-2.015-2.225q-1.067-1.157-2.057-2.388c-.716-.892-3.613-6.325-1.43-7.063a1.594,1.594,0,0,1,1.52.455c.409.376.7.86,1.07,1.276a4.4,4.4,0,0,0,3.448,1.445,1.435,1.435,0,0,0,1.511-1.674,7.609,7.609,0,0,0-1.92-4.5c-1.116-1.482-1.858-3.053-2.812-4.589-1.085-1.748-2.286-3.272-2.533-5.4,1.926-1.849,3.852,4.088,6.395,3.274,1.784-.572.923-3.25-.14-4.793a33.759,33.759,0,0,1-4.938-11.8c-.472-2.086-.806-4.2-1.086-6.318-.113-.85-.03-5.423-1.963-4.147a2.767,2.767,0,0,0-.935,1.8c-.81,3.528-1.546,7.088-2.462,10.59-.732,2.8-1.074,6.572-2.864,8.928-.974,1.282-2.176,2.255-2.069,4.033a.736.736,0,0,0,.634.77c2.068.688,3.482-.822,4.812-2.185a1.919,1.919,0,0,1,.588-.463.656.656,0,0,1,.7.088c.456.455.052,1.84-.025,2.378a11.168,11.168,0,0,1-2.185,4.918c-1.73,2.351-4,4.324-5.36,6.9a3.25,3.25,0,0,0-.481,1.7,2.242,2.242,0,0,0,2.263,1.846c1.42.091,2.219-1,2.7-2.218a3.686,3.686,0,0,1,1.411-2.059c.193-.1.472-.148.6.032a.521.521,0,0,1,.066.257,10.212,10.212,0,0,1-.947,4.97,7.1,7.1,0,0,1-.587,1.03l-17.5-8.083c-.752-.874-1.523-1.729-2.21-2.6a11.236,11.236,0,0,1-2.294-4.211c-.1-.412-.6-1.855-.368-2.209.542-.829,1.382.242,1.668.727A26.3,26.3,0,0,0,3.539,497.1a5.5,5.5,0,0,0,1.435,1.472,2.172,2.172,0,0,0,1.972.252,2.508,2.508,0,0,0,1.265-2.27A6.773,6.773,0,0,0,6.9,492.559a28.307,28.307,0,0,0-2.785-3.238q-1.067-1.159-2.057-2.389c-.716-.892-3.613-6.324-1.43-7.063a1.594,1.594,0,0,1,1.52.455c.409.376.7.862,1.07,1.276a4.406,4.406,0,0,0,3.448,1.445,1.727,1.727,0,0,0,.93-.264,1.729,1.729,0,0,0,.581-1.41,7.606,7.606,0,0,0-1.92-4.5c-1.115-1.483-1.858-3.053-2.812-4.59-1.085-1.747-2.286-3.271-2.532-5.4,1.925-1.85,3.851,4.087,6.394,3.272,1.784-.572.923-3.25-.14-4.793a33.75,33.75,0,0,1-4.938-11.8c-.472-2.084-.806-4.2-1.086-6.317-.113-.851-.03-5.424-1.963-4.147a2.772,2.772,0,0,0-.935,1.8c-.81,3.528-1.546,7.088-2.461,10.59-.733,2.8-1.075,6.572-2.864,8.928-.976,1.283-2.177,2.256-2.07,4.033a.911.911,0,0,0,.1.41.919.919,0,0,0,.535.361c2.068.688,3.482-.822,4.812-2.186a1.9,1.9,0,0,1,.589-.462.649.649,0,0,1,.7.088c.457.455.053,1.838-.025,2.377a11.142,11.142,0,0,1-2.185,4.918c-1.73,2.351-4,4.324-5.359,6.9a3.252,3.252,0,0,0-.482,1.705A2.242,2.242,0,0,0-8.2,484.41c1.42.09,2.219-1,2.7-2.218a3.684,3.684,0,0,1,1.412-2.06c.192-.1.47-.146.594.032a.513.513,0,0,1,.066.258,10.193,10.193,0,0,1-.947,4.969,12.506,12.506,0,0,1-3.193,3.821A9.778,9.778,0,0,0-9.4,491.341a3.235,3.235,0,0,0-.469,1.961,1.958,1.958,0,0,0,1.135,1.591,2.464,2.464,0,0,0,2.528-.814c.33-.338,2.19-3.317,2.869-2.14.242.419-.282,2.029-.379,2.507A25.866,25.866,0,0,1-4.9,498.463l-16.38-7.567c-.713-.924-1.535-1.764-2.327-2.623q-1.069-1.159-2.058-2.388c-.716-.892-3.613-6.325-1.43-7.063a1.6,1.6,0,0,1,1.522.455c.409.376.7.86,1.069,1.274A4.4,4.4,0,0,0-21.054,482a1.73,1.73,0,0,0,.93-.265,1.729,1.729,0,0,0,.58-1.409,7.609,7.609,0,0,0-1.92-4.5c-1.115-1.483-1.858-3.053-2.812-4.589-1.085-1.748-2.286-3.272-2.532-5.4,1.925-1.85,3.851,4.088,6.394,3.272,1.786-.571.924-3.248-.139-4.793a33.724,33.724,0,0,1-4.939-11.8c-.472-2.086-.806-4.2-1.086-6.318-.112-.851-.029-5.424-1.963-4.147a2.778,2.778,0,0,0-.935,1.8c-.81,3.527-1.546,7.087-2.461,10.589-.733,2.8-1.075,6.574-2.864,8.928-.976,1.283-2.176,2.256-2.07,4.033a.94.94,0,0,0,.1.41.923.923,0,0,0,.535.361c2.068.688,3.482-.822,4.812-2.185a1.924,1.924,0,0,1,.589-.463.649.649,0,0,1,.7.088c.457.455.053,1.84-.024,2.378a11.157,11.157,0,0,1-2.185,4.916c-1.732,2.351-4,4.325-5.36,6.9a3.255,3.255,0,0,0-.482,1.705,2.243,2.243,0,0,0,2.264,1.846c1.418.09,2.218-1,2.7-2.218a3.687,3.687,0,0,1,1.412-2.059c.192-.1.47-.148.594.031a.513.513,0,0,1,.066.258,10.211,10.211,0,0,1-.946,4.97,7.18,7.18,0,0,1-.724,1.22L-51.7,476.839c-.1-.167-.193-.335-.3-.5-1.086-1.748-2.287-3.272-2.533-5.4,1.925-1.85,3.852,4.088,6.395,3.272,1.784-.571.923-3.248-.14-4.793a33.746,33.746,0,0,1-4.939-11.8c-.472-2.086-.806-4.2-1.086-6.318-.112-.851-.029-5.424-1.963-4.147a2.771,2.771,0,0,0-.934,1.8c-.811,3.528-1.547,7.088-2.462,10.59-.733,2.8-1.075,6.574-2.864,8.928a12.693,12.693,0,0,0-1.8,2.53l-15.995-7.39a6.639,6.639,0,0,1-1.133-4.728c2.245.2,2.849,4.063,5.1,4.015,1.661-.035,2.334-2.251,1.968-3.871-.775-3.43-3.635-5.887-5.723-8.54a11.255,11.255,0,0,1-2.293-4.212c-.1-.412-.6-1.855-.368-2.208.541-.829,1.382.241,1.668.726a26.311,26.311,0,0,0,1.475,2.234,5.551,5.551,0,0,0,1.435,1.472,2.178,2.178,0,0,0,1.973.252,2.509,2.509,0,0,0,1.264-2.272,6.776,6.776,0,0,0-1.309-3.994,28.517,28.517,0,0,0-2.784-3.238q-1.069-1.157-2.057-2.388c-.716-.892-3.614-6.325-1.43-7.063a1.6,1.6,0,0,1,1.52.455,16.554,16.554,0,0,1,1.069,1.276,4.407,4.407,0,0,0,3.449,1.445,1.729,1.729,0,0,0,.93-.264,1.734,1.734,0,0,0,.581-1.41,7.6,7.6,0,0,0-1.92-4.5c-1.116-1.483-1.858-3.054-2.812-4.59-1.086-1.748-2.286-3.272-2.533-5.4,1.925-1.849,3.852,4.088,6.395,3.274,1.784-.572.923-3.25-.14-4.793a33.784,33.784,0,0,1-4.939-11.8c-.472-2.086-.806-4.2-1.086-6.318-.112-.85-.029-5.423-1.962-4.147a2.767,2.767,0,0,0-.935,1.8c-.811,3.528-1.547,7.088-2.462,10.59-.733,2.8-1.074,6.572-2.864,8.928-.974,1.282-2.176,2.256-2.069,4.033a.918.918,0,0,0,.1.409.922.922,0,0,0,.536.361c2.066.688,3.482-.822,4.812-2.185a1.884,1.884,0,0,1,.588-.462.653.653,0,0,1,.7.086c.456.455.052,1.84-.025,2.378a11.168,11.168,0,0,1-2.185,4.918c-1.73,2.351-4,4.324-5.36,6.9a3.239,3.239,0,0,0-.481,1.7,2.242,2.242,0,0,0,2.263,1.846c1.42.091,2.219-1,2.7-2.218a3.691,3.691,0,0,1,1.412-2.059c.192-.1.472-.148.594.032a.5.5,0,0,1,.066.257,10.211,10.211,0,0,1-.946,4.97,12.551,12.551,0,0,1-3.193,3.821,9.739,9.739,0,0,0-1.835,2.128,3.249,3.249,0,0,0-.47,1.962,1.955,1.955,0,0,0,1.136,1.59,2.459,2.459,0,0,0,2.527-.812c.33-.338,2.191-3.318,2.87-2.141.241.419-.283,2.03-.379,2.507a26.079,26.079,0,0,1-1.416,4.668,25.852,25.852,0,0,1-5.424,8.286l-.062.065-10.232-4.727a28.869,28.869,0,0,0-2.758-3.2q-1.069-1.157-2.057-2.388c-.716-.892-3.614-6.325-1.43-7.063a1.6,1.6,0,0,1,1.52.455,16.573,16.573,0,0,1,1.069,1.276,4.408,4.408,0,0,0,3.449,1.445,1.727,1.727,0,0,0,.93-.264,1.734,1.734,0,0,0,.581-1.41,7.609,7.609,0,0,0-1.92-4.5c-1.116-1.482-1.858-3.053-2.812-4.589-1.086-1.748-2.286-3.272-2.533-5.4,1.926-1.849,3.852,4.088,6.395,3.274,1.784-.572.923-3.25-.14-4.793a33.759,33.759,0,0,1-4.938-11.8c-.473-2.086-.808-4.2-1.086-6.318-.113-.85-.03-5.423-1.963-4.147a2.767,2.767,0,0,0-.935,1.8c-.81,3.528-1.546,7.088-2.462,10.59-.733,2.8-1.074,6.572-2.864,8.928-.974,1.282-2.176,2.255-2.069,4.033a.917.917,0,0,0,.1.409.926.926,0,0,0,.536.361c2.066.688,3.482-.822,4.812-2.185a1.919,1.919,0,0,1,.588-.463.656.656,0,0,1,.7.088c.456.455.052,1.84-.025,2.378a11.168,11.168,0,0,1-2.185,4.918c-1.73,2.351-4,4.324-5.36,6.9a3.25,3.25,0,0,0-.481,1.7,2.242,2.242,0,0,0,2.263,1.846c1.42.091,2.219-1,2.7-2.218a3.686,3.686,0,0,1,1.411-2.059c.193-.1.472-.148.6.032a.508.508,0,0,1,.065.257,10.2,10.2,0,0,1-.946,4.97,7.315,7.315,0,0,1-.946,1.5l-14.616-6.752v488.89h960V532.106ZM227.7,604.534c.541-.83,1.382.241,1.668.726.421.714.883,1.4,1.369,2.074L227.858,606C227.7,605.439,227.549,604.761,227.7,604.534Zm-3.73-2.2a3.606,3.606,0,0,1-.2,1.782L222,603.3C222.685,602.461,223.549,601.61,223.968,602.335ZM188.56,584.628a3.686,3.686,0,0,1,1.411-2.059c.193-.1.472-.148.6.031a.511.511,0,0,1,.065.258,10.2,10.2,0,0,1-.946,4.97c-.071.155-.164.282-.244.427l-3.092-1.429A3.084,3.084,0,0,0,188.56,584.628ZM-59.148,471.093a1.905,1.905,0,0,1,.588-.463.652.652,0,0,1,.7.088c.456.455.052,1.84-.025,2.378-.04.272-.116.536-.182.8l-2.744-1.267A14.9,14.9,0,0,0-59.148,471.093Zm-28.728-12.067a.558.558,0,0,1,.394-.14c.326.047.367.5.312.827-.037.226-.106.444-.151.668l-1.294-.6A3.647,3.647,0,0,1-87.876,459.026Zm896.669,71.537a1.6,1.6,0,0,1,1.52.455,9.875,9.875,0,0,1,.92,1.088H808C807.975,531.358,808.178,530.772,808.794,530.563Zm-4.714.263c.192-.1.472-.148.594.032a.5.5,0,0,1,.066.257,9.748,9.748,0,0,1,0,.991h-1.734A2.656,2.656,0,0,1,804.08,530.826ZM562.5,627.11l-.925.924h-.343a10.424,10.424,0,0,1-.581-2.358A17.3,17.3,0,0,0,562.5,627.11Zm-11.9-.653c1.008-1.646,2.927-3.606,4.482-2.461a5.98,5.98,0,0,1-2.4,4.038h-3.468A6.493,6.493,0,0,0,550.6,626.457Zm-87.4-.239a1.6,1.6,0,0,1,1.52.455c.409.376.7.862,1.069,1.276a4.276,4.276,0,0,0,.382.34l-3.4,1.216C462.278,628.009,462.152,626.573,463.2,626.218Zm-24.372,9.121c1.034.091,1.72.961,2.38,1.868l-2.2.786A5.5,5.5,0,0,1,438.828,635.34Z" transform="translate(0 54.32)" fill="#d22b44" stroke="#ae0721" stroke-linecap="round" stroke-linejoin="round" stroke-width="1"/>
    <path id="Path_52" data-name="Path 52" d="M741,651.941a3.785,3.785,0,0,0,2.966-1.7c1.628-2.749-1.348-5.806-3.586-8.087a23.136,23.136,0,0,1-5.852-10.343,22.846,22.846,0,0,0,4.45,4.331c1.188.876,2.49.756,2.978-.84a5.259,5.259,0,0,0,.083-2.069,14.09,14.09,0,0,0-1.016-4.352c-1.052-2.354-3.066-4.11-4.727-6.083s-3.056-4.517-2.483-7.031a1.433,1.433,0,0,1,.624-1.009c.581-.3,1.276.186,1.61.748.728,1.223.748,2.124,2.312,1.628a2.953,2.953,0,0,0,1.816-2.785,5.789,5.789,0,0,0-.988-2.576c-2.425-4.165-7.207-7.964-6.432-13.337a1.619,1.619,0,0,1,.45-1.032c.73-.619,1.794.193,2.33.985s1.34,1.757,2.234,1.416c.858-.328.864-1.536.637-2.428-1.027-4.044-3.584-7.507-5.284-11.318a6.124,6.124,0,0,1-.708-3.113,1.129,1.129,0,0,1,.19-.57.933.933,0,0,1,1.309,0c.842.748.923,2.254,2.346,2.432,1.327.167,2.339-1.369,2.22-2.7a8.561,8.561,0,0,0-1.672-3.6c-5.222-8.31-5.168-19.282-8.358-28.422a1.865,1.865,0,0,0-.558-.936,1.321,1.321,0,0,0-1.828.695,4.158,4.158,0,0,0-.113,2.207c.743,6.275-.428,12.6-1.595,18.808a45.11,45.11,0,0,1-1.706,7c-1.052,2.923-2.7,5.6-3.858,8.479-.586,1.454-.745,3.618.745,4.106,1.855.61,3.185-2.384,5.137-2.316,3.214.11.68,4.446.072,5.669-1.423,2.858-3.758,5.546-3.83,8.892a2.354,2.354,0,0,0,.283,1.33c1.712,2.666,4.085-1.615,4.828-2.651a1.237,1.237,0,0,1,1.559-.52c.482.314.478,1.009.419,1.583-.685,6.655-7.571,10.712-9.365,17.052a3.387,3.387,0,0,0,.006,2.41c.84,1.7,3.5,1.253,4.866-.06.96-.924,1.555-2.17,2.509-3.086.989-.952,2.782-1.47,2.33.725a4.436,4.436,0,0,1-1.211,1.951c-1.471,1.642-2.946,3.286-4.559,4.787a17.151,17.151,0,0,0-2.368,2.438,13.881,13.881,0,0,0-1.7,3.793c-.392,1.18-.7,2.687.24,3.5a2.1,2.1,0,0,0,2.172.2,5.1,5.1,0,0,0,1.746-1.465,19.166,19.166,0,0,0,2.158-3.131.845.845,0,0,1,1.128.418,2.191,2.191,0,0,1,.094,1.331c-.574,3.692-2.358,5.388-4.976,7.723-2.82,2.515-6.116,5.19-6.472,8.951a3.685,3.685,0,0,0,.3,1.985H688.19l-19.421,11.117a33.327,33.327,0,0,0-2.3-2.519,23.136,23.136,0,0,1-5.852-10.343,22.878,22.878,0,0,0,4.45,4.331c1.189.877,2.49.756,2.978-.84a5.256,5.256,0,0,0,.083-2.069,14.088,14.088,0,0,0-1.016-4.352c-1.052-2.354-3.066-4.11-4.727-6.083s-3.056-4.517-2.483-7.031a1.428,1.428,0,0,1,.624-1.008c.581-.3,1.277.185,1.61.746.728,1.224.749,2.124,2.312,1.63a2.955,2.955,0,0,0,1.816-2.786,5.78,5.78,0,0,0-.988-2.575c-2.425-4.165-7.206-7.966-6.432-13.338a1.618,1.618,0,0,1,.45-1.032c.73-.619,1.794.194,2.33.986s1.34,1.757,2.234,1.415c.858-.328.864-1.536.637-2.426-1.027-4.045-3.583-7.508-5.284-11.32a6.123,6.123,0,0,1-.708-3.113,1.139,1.139,0,0,1,.19-.57.934.934,0,0,1,1.309,0c.842.748.923,2.255,2.346,2.434,1.327.167,2.339-1.37,2.22-2.7a8.549,8.549,0,0,0-1.672-3.6c-5.222-8.31-5.168-19.282-8.358-28.422a1.857,1.857,0,0,0-.558-.935,1.32,1.32,0,0,0-1.828.694,4.162,4.162,0,0,0-.113,2.208c.743,6.274-.428,12.6-1.595,18.806a45.11,45.11,0,0,1-1.706,7c-1.052,2.923-2.7,5.6-3.857,8.479-.587,1.454-.746,3.618.744,4.108,1.855.61,3.185-2.384,5.137-2.317,3.214.11.682,4.446.072,5.669-1.423,2.858-3.758,5.546-3.83,8.892a2.355,2.355,0,0,0,.283,1.33c1.712,2.666,4.086-1.615,4.828-2.651a1.238,1.238,0,0,1,1.559-.52c.482.314.479,1.009.419,1.583-.685,6.655-7.571,10.712-9.365,17.052a3.4,3.4,0,0,0,.006,2.411c.84,1.7,3.5,1.252,4.866-.061.961-.924,1.555-2.17,2.509-3.086.989-.952,2.782-1.469,2.33.725a4.429,4.429,0,0,1-1.211,1.951c-1.471,1.642-2.945,3.286-4.559,4.788a17.017,17.017,0,0,0-2.366,2.438,13.825,13.825,0,0,0-1.7,3.792c-.392,1.181-.7,2.687.241,3.5a2.1,2.1,0,0,0,2.171.2,5.1,5.1,0,0,0,1.746-1.464,19.228,19.228,0,0,0,2.158-3.132.845.845,0,0,1,1.128.418,2.192,2.192,0,0,1,.094,1.331c-.572,3.694-2.358,5.388-4.976,7.723-2.82,2.515-6.116,5.19-6.472,8.951a3.253,3.253,0,0,0,.6,2.455c1.675,1.915,4.678-.355,6.006-2.526s3.857-4.753,5.906-3.244c-.145,3.05-3.012,5.472-5.413,6.979-2.534,1.592-4.182,3.094-4.931,5.876l-13.538,7.751H561.75c-.3-.354-.619-.695-.911-1.058-.716-.892-3.614-6.324-1.43-7.063a1.6,1.6,0,0,1,1.52.455c.409.376.7.862,1.069,1.276a4.408,4.408,0,0,0,3.449,1.445,1.435,1.435,0,0,0,1.511-1.674,7.606,7.606,0,0,0-1.92-4.5c-1.116-1.483-1.858-3.053-2.812-4.59-1.086-1.747-2.286-3.271-2.533-5.4,1.926-1.85,3.852,4.087,6.395,3.272,1.784-.572.923-3.25-.14-4.793a33.76,33.76,0,0,1-4.938-11.8c-.472-2.084-.806-4.2-1.086-6.317-.113-.851-.03-5.424-1.963-4.147a2.767,2.767,0,0,0-.935,1.8c-.81,3.528-1.546,7.088-2.462,10.59-.732,2.8-1.074,6.572-2.864,8.928-.974,1.283-2.176,2.256-2.069,4.033a.736.736,0,0,0,.634.772c2.068.688,3.482-.823,4.812-2.186a1.917,1.917,0,0,1,.588-.462.651.651,0,0,1,.7.088c.456.455.052,1.838-.025,2.377a11.156,11.156,0,0,1-2.185,4.918c-1.73,2.351-4,4.324-5.36,6.9a3.251,3.251,0,0,0-.481,1.705,2.242,2.242,0,0,0,2.263,1.846c1.42.09,2.219-1,2.7-2.218a3.689,3.689,0,0,1,1.411-2.06c.193-.1.472-.146.6.032a.511.511,0,0,1,.065.257,10.194,10.194,0,0,1-.946,4.97,8.731,8.731,0,0,1-1.927,2.6H529.836a13.915,13.915,0,0,1-1.04-3.808,12.7,12.7,0,0,0,4.616,2.929c1.769.5,3.95.037,4.886-1.544,1.63-2.75-1.346-5.806-3.586-8.087a23.152,23.152,0,0,1-5.852-10.344,22.894,22.894,0,0,0,4.451,4.332c1.188.876,2.489.756,2.977-.841a5.259,5.259,0,0,0,.084-2.069,14.166,14.166,0,0,0-1.016-4.352c-1.054-2.354-3.066-4.11-4.728-6.082s-3.056-4.518-2.482-7.031a1.433,1.433,0,0,1,.624-1.009c.581-.3,1.276.186,1.609.746.73,1.224.749,2.124,2.314,1.63a2.957,2.957,0,0,0,1.816-2.786,5.814,5.814,0,0,0-.988-2.575c-2.425-4.165-7.207-7.964-6.432-13.338a1.606,1.606,0,0,1,.45-1.031c.73-.619,1.794.193,2.33.985s1.339,1.757,2.233,1.416c.859-.329.864-1.537.638-2.428-1.028-4.045-3.584-7.507-5.284-11.318a6.126,6.126,0,0,1-.709-3.114,1.13,1.13,0,0,1,.191-.569.932.932,0,0,1,1.308,0c.844.748.924,2.254,2.346,2.432,1.327.167,2.34-1.369,2.221-2.7a8.571,8.571,0,0,0-1.673-3.6c-5.222-8.31-5.167-19.28-8.357-28.422a1.864,1.864,0,0,0-.559-.935,1.318,1.318,0,0,0-1.826.695,4.133,4.133,0,0,0-.113,2.207c.742,6.274-.43,12.6-1.6,18.808a45.1,45.1,0,0,1-1.705,7c-1.052,2.922-2.7,5.6-3.858,8.478-.586,1.456-.745,3.618.744,4.108,1.856.61,3.186-2.384,5.137-2.317,3.215.11.682,4.446.073,5.669-1.424,2.858-3.76,5.546-3.832,8.892a2.354,2.354,0,0,0,.283,1.33c1.714,2.666,4.086-1.615,4.828-2.651a1.239,1.239,0,0,1,1.56-.52c.482.314.478,1.01.419,1.583-.686,6.655-7.572,10.712-9.366,17.053a3.4,3.4,0,0,0,.006,2.41c.84,1.7,3.5,1.252,4.867-.06.96-.924,1.555-2.17,2.508-3.088.989-.95,2.782-1.469,2.33.726a4.44,4.44,0,0,1-1.21,1.951c-1.472,1.642-2.946,3.286-4.56,4.787a17.083,17.083,0,0,0-2.366,2.438,13.876,13.876,0,0,0-1.7,3.792c-.392,1.181-.7,2.687.241,3.5a2.1,2.1,0,0,0,2.171.2,5.084,5.084,0,0,0,1.747-1.464,19.245,19.245,0,0,0,2.156-3.132.846.846,0,0,1,1.129.418,2.2,2.2,0,0,1,.094,1.331c-.574,3.694-2.359,5.388-4.978,7.724-2.819,2.515-6.115,5.189-6.47,8.951a3.244,3.244,0,0,0,.6,2.454,2.369,2.369,0,0,0,.266.252h-9.461c-1.031-1.291-2.188-2.506-3.175-3.762a11.244,11.244,0,0,1-2.294-4.211c-.1-.412-.6-1.855-.367-2.208.541-.83,1.382.241,1.668.726a26.322,26.322,0,0,0,1.475,2.234,5.532,5.532,0,0,0,1.435,1.472,2.177,2.177,0,0,0,1.973.251,2.507,2.507,0,0,0,1.264-2.27,6.776,6.776,0,0,0-1.309-3.994,28.409,28.409,0,0,0-2.784-3.238q-1.069-1.159-2.057-2.388c-.716-.892-3.614-6.325-1.43-7.063a1.6,1.6,0,0,1,1.52.455,16.558,16.558,0,0,1,1.069,1.274,4.4,4.4,0,0,0,3.449,1.446,1.436,1.436,0,0,0,1.51-1.674,7.6,7.6,0,0,0-1.919-4.5c-1.116-1.483-1.859-3.053-2.813-4.589-1.085-1.748-2.286-3.272-2.532-5.4,1.925-1.85,3.852,4.088,6.395,3.272,1.784-.572.923-3.248-.14-4.793a33.746,33.746,0,0,1-4.939-11.8c-.472-2.086-.806-4.2-1.086-6.318-.112-.851-.029-5.424-1.963-4.147a2.771,2.771,0,0,0-.934,1.8c-.811,3.528-1.547,7.088-2.462,10.59-.733,2.8-1.075,6.574-2.864,8.928-.974,1.283-2.176,2.256-2.069,4.033a.736.736,0,0,0,.632.772c2.068.688,3.482-.822,4.813-2.185a1.9,1.9,0,0,1,.588-.463.651.651,0,0,1,.7.088c.456.455.052,1.84-.025,2.378a11.157,11.157,0,0,1-2.185,4.916c-1.732,2.351-4,4.324-5.36,6.9a3.243,3.243,0,0,0-.481,1.705,2.241,2.241,0,0,0,2.263,1.846c1.42.09,2.219-1,2.7-2.218a3.687,3.687,0,0,1,1.412-2.059c.192-.1.47-.148.594.031a.5.5,0,0,1,.066.258,10.212,10.212,0,0,1-.946,4.97,12.539,12.539,0,0,1-3.194,3.821,9.74,9.74,0,0,0-1.834,2.128,3.239,3.239,0,0,0-.47,1.961,1.955,1.955,0,0,0,1.136,1.591,2.46,2.46,0,0,0,2.527-.814c.33-.338,2.19-3.317,2.87-2.14.241.419-.283,2.03-.38,2.507a25.976,25.976,0,0,1-1.415,4.668c-.064.155-.145.3-.211.454L476,668.108H386.6a4.162,4.162,0,0,0,.354-2.762c-.775-3.43-3.635-5.887-5.723-8.54a11.241,11.241,0,0,1-2.294-4.212c-.1-.41-.6-1.855-.367-2.208.541-.829,1.382.241,1.668.726a26.329,26.329,0,0,0,1.475,2.234,5.534,5.534,0,0,0,1.435,1.472,2.176,2.176,0,0,0,1.972.252,2.507,2.507,0,0,0,1.265-2.272,6.776,6.776,0,0,0-1.309-3.994,28.509,28.509,0,0,0-2.784-3.238q-1.069-1.157-2.057-2.388c-.718-.892-3.614-6.325-1.432-7.063a1.6,1.6,0,0,1,1.522.455,16.565,16.565,0,0,1,1.069,1.276,4.406,4.406,0,0,0,3.449,1.445,1.434,1.434,0,0,0,1.51-1.674,7.6,7.6,0,0,0-1.92-4.5c-1.115-1.482-1.858-3.053-2.812-4.589-1.085-1.748-2.286-3.272-2.532-5.4,1.925-1.849,3.852,4.088,6.394,3.274,1.786-.572.924-3.25-.139-4.793a33.762,33.762,0,0,1-4.939-11.8c-.472-2.086-.806-4.2-1.086-6.318-.112-.85-.029-5.423-1.963-4.147a2.771,2.771,0,0,0-.934,1.8c-.811,3.528-1.547,7.088-2.462,10.59-.733,2.8-1.075,6.572-2.864,8.928-.974,1.282-2.176,2.255-2.069,4.033a.736.736,0,0,0,.632.77c2.068.688,3.482-.822,4.812-2.185a1.921,1.921,0,0,1,.589-.463.656.656,0,0,1,.7.088c.456.455.052,1.84-.025,2.378a11.167,11.167,0,0,1-2.185,4.918c-1.732,2.351-4,4.324-5.36,6.9a3.24,3.24,0,0,0-.481,1.705,2.241,2.241,0,0,0,2.263,1.844c1.418.091,2.218-1,2.7-2.216a3.691,3.691,0,0,1,1.412-2.06c.192-.1.47-.148.594.032a.5.5,0,0,1,.066.257,10.21,10.21,0,0,1-.946,4.97,12.556,12.556,0,0,1-3.194,3.821,9.765,9.765,0,0,0-1.834,2.128,3.24,3.24,0,0,0-.47,1.962,1.956,1.956,0,0,0,1.135,1.59,2.461,2.461,0,0,0,2.528-.812c.33-.338,2.19-3.318,2.87-2.141.241.419-.283,2.03-.38,2.507a26.021,26.021,0,0,1-6.839,12.954c-1,1.018-2.161,2.153-2.086,3.574a2.121,2.121,0,0,0,.265.888H338.669l-29.994-16.166H183.27l-2.693.51c-1.127-2.716-3.47-4.848-5.257-7.12a11.238,11.238,0,0,1-2.293-4.212c-.1-.41-.6-1.855-.368-2.208.541-.829,1.382.242,1.668.727a26.5,26.5,0,0,0,1.475,2.233,5.551,5.551,0,0,0,1.435,1.472,2.174,2.174,0,0,0,1.973.252,2.509,2.509,0,0,0,1.264-2.272,6.769,6.769,0,0,0-1.309-3.992,28.3,28.3,0,0,0-2.784-3.238q-1.069-1.159-2.057-2.389c-.716-.892-3.614-6.324-1.43-7.063a1.6,1.6,0,0,1,1.52.455,16.559,16.559,0,0,1,1.069,1.276,4.407,4.407,0,0,0,3.449,1.445,1.434,1.434,0,0,0,1.51-1.674,7.6,7.6,0,0,0-1.919-4.5c-1.116-1.483-1.858-3.054-2.812-4.59-1.086-1.748-2.286-3.271-2.533-5.4,1.925-1.85,3.852,4.087,6.395,3.272,1.784-.572.923-3.25-.14-4.793a33.761,33.761,0,0,1-4.939-11.8c-.472-2.086-.806-4.2-1.086-6.318-.112-.85-.029-5.423-1.963-4.146a2.768,2.768,0,0,0-.934,1.8c-.811,3.528-1.547,7.088-2.462,10.59-.733,2.8-1.075,6.572-2.864,8.928-.974,1.283-2.176,2.256-2.069,4.033a.734.734,0,0,0,.632.77c2.068.689,3.482-.822,4.813-2.185a1.9,1.9,0,0,1,.588-.462.651.651,0,0,1,.7.088c.456.455.052,1.838-.025,2.377a11.155,11.155,0,0,1-2.185,4.918c-1.73,2.351-4,4.324-5.36,6.9a3.24,3.24,0,0,0-.481,1.705,2.243,2.243,0,0,0,2.263,1.846c1.42.09,2.219-1,2.7-2.218a3.691,3.691,0,0,1,1.412-2.06c.192-.1.47-.148.594.032a.5.5,0,0,1,.066.257,10.208,10.208,0,0,1-.946,4.97,12.551,12.551,0,0,1-3.193,3.821,9.733,9.733,0,0,0-1.835,2.128,3.248,3.248,0,0,0-.47,1.962,1.955,1.955,0,0,0,1.136,1.59,2.459,2.459,0,0,0,2.527-.812c.33-.338,2.191-3.318,2.87-2.14.241.419-.283,2.029-.379,2.507a26.056,26.056,0,0,1-6.84,12.954c-1,1.016-2.161,2.152-2.086,3.572a2.157,2.157,0,0,0,.137.652l-61.775,11.71H-130.82V842.717h960V651.941Zm-572.739,2.614c-.013.082-.04.161-.054.242l-1.74.33a4.249,4.249,0,0,1,1.088-1.259.558.558,0,0,1,.394-.14C168.274,653.775,168.315,654.229,168.259,654.555Zm205.913,11.473c-.118.7-.283,1.393-.47,2.08h-2.22a9.449,9.449,0,0,1,1.985-2.766.557.557,0,0,1,.394-.14C374.186,665.248,374.226,665.7,374.172,666.028Zm5.968,2.08a5.608,5.608,0,0,1-.254-2.906c1.441.126,2.207,1.762,3.166,2.906Zm137.288,17.527h-4.721a8.152,8.152,0,0,0,2.843-2.778c1.328-2.171,3.856-4.753,5.905-3.244C521.337,682.089,519.426,684.14,517.428,685.635Zm143.205-17.918c-.025-.16-.06-.316-.079-.475.12.1.242.208.364.312Zm63.356-15.775h-4.568a8.574,8.574,0,0,0,1.794-2.056c1.328-2.172,3.857-4.754,5.905-3.244C727.021,648.74,725.628,650.531,723.99,651.941Zm11.23,0a13.746,13.746,0,0,1-.757-3.086,12.683,12.683,0,0,0,4.615,2.929,5.2,5.2,0,0,0,.9.157Z" transform="translate(0 85.552)" fill="#ca193b" stroke="#ae0721" stroke-linecap="round" stroke-linejoin="round" stroke-width="1"/>
    <path id="Path_53" data-name="Path 53" d="M769.078,693.759a7.311,7.311,0,0,0-1.258-3.191,28.515,28.515,0,0,0-2.784-3.238q-1.069-1.157-2.057-2.388c-.718-.892-3.614-6.325-1.432-7.063a1.6,1.6,0,0,1,1.522.455,16.558,16.558,0,0,1,1.069,1.276,4.407,4.407,0,0,0,3.449,1.445,1.434,1.434,0,0,0,1.51-1.674,7.609,7.609,0,0,0-1.92-4.5c-1.115-1.482-1.858-3.053-2.812-4.589-1.085-1.748-2.286-3.272-2.532-5.4,1.925-1.849,3.852,4.088,6.394,3.274,1.786-.572.924-3.25-.139-4.793a33.737,33.737,0,0,1-4.939-11.8c-.472-2.086-.806-4.2-1.086-6.318-.112-.85-.029-5.423-1.963-4.147a2.771,2.771,0,0,0-.934,1.8c-.811,3.528-1.547,7.088-2.462,10.59-.733,2.8-1.075,6.572-2.864,8.927-.976,1.283-2.176,2.256-2.069,4.034a.736.736,0,0,0,.632.77c2.068.688,3.482-.822,4.812-2.185a1.925,1.925,0,0,1,.589-.463.654.654,0,0,1,.7.088c.457.455.053,1.84-.024,2.378a11.168,11.168,0,0,1-2.185,4.918c-1.732,2.351-4,4.324-5.36,6.9a3.251,3.251,0,0,0-.482,1.7,2.243,2.243,0,0,0,2.264,1.846c1.418.091,2.218-1,2.7-2.218a3.688,3.688,0,0,1,1.412-2.059c.192-.1.47-.148.594.032a.508.508,0,0,1,.066.257,10.212,10.212,0,0,1-.946,4.97,12.555,12.555,0,0,1-3.194,3.821,9.733,9.733,0,0,0-1.834,2.128,3.24,3.24,0,0,0-.47,1.962,1.956,1.956,0,0,0,1.135,1.59,2.46,2.46,0,0,0,2.528-.814c.33-.337,2.19-3.317,2.87-2.14.241.419-.283,2.03-.38,2.507-.089.439-.217.87-.329,1.3H744.669a2.048,2.048,0,0,0,1.063-1.136,3.385,3.385,0,0,0,.064-1.567,16.841,16.841,0,0,0-4.633-9.491c-1.328-1.354-2.881-2.476-4.177-3.86-.876-.935-4.421-7-.769-6.856a2.032,2.032,0,0,1,1.236.612c.882.805,1.44,1.906,2.261,2.773a2.952,2.952,0,0,0,3.2,1c1.514-.7,1.422-2.885.911-4.475a27.544,27.544,0,0,0-5.153-9.088c-2.032-2.446-5.556-5-4.411-8.623a2.418,2.418,0,0,1,.755-1.217,2.154,2.154,0,0,1,2.3-.032,6.332,6.332,0,0,1,1.757,1.656c.757.925,3.958,6.16,5.424,3.274a2.5,2.5,0,0,0,.167-1.27,22.707,22.707,0,0,0-3.931-11.58c-2.134-3.109-5.07-5.726-6.485-9.221-.833-2.057-.974-5.786,1.909-5.844,2.422-.048,4.206,2.836,6.064,3.932,1.49.88,3.907.718,4.4-.943a3.562,3.562,0,0,0-.184-2.021,25.058,25.058,0,0,0-5.994-10.274c-2.676-2.654-4.9-4.2-6.446-7.976-.581-1.416-.866-3.359.411-4.2a2.787,2.787,0,0,1,3.227.6c.882.78,1.49,1.831,2.37,2.615a2.8,2.8,0,0,0,3.226.617,2.473,2.473,0,0,0,.907-2.49,7.278,7.278,0,0,0-1.152-2.54c-1.613-2.6-3.384-5.106-4.97-7.727-1.2-1.987-3.383-4.6-3.725-6.9a2.01,2.01,0,0,1,.809-2.2,1.713,1.713,0,0,1,1.667.308,11.917,11.917,0,0,1,1.256,1.255,5.78,5.78,0,0,0,3.209,1.6,2.5,2.5,0,0,0,2.238-.574,2.458,2.458,0,0,0,.47-1.872c-.236-2.741-2.422-4.85-4.438-6.722-1.25-1.163-7.562-8.963-4.648-10.537,2.263-1.223,5.256,5.927,7.652,2.994a3.108,3.108,0,0,0,.241-2.974A6.367,6.367,0,0,0,740.794,570a28.29,28.29,0,0,0-3.653-2.129c-1.562-.935-5.449-6.2-2.576-7.52,2.185-1.007,3.684,2.2,5.251,3.054a1.412,1.412,0,0,0,1.685-.073.977.977,0,0,0,.066-.089,1.466,1.466,0,0,0,.178-.706c.228-3.392-1.53-6.578-3.39-9.426s-3.934-5.718-4.474-9.076a3.035,3.035,0,0,1,.1-1.705,1.271,1.271,0,0,1,1.384-.79c.918.242.368,1.91,1.2,2.566a2.66,2.66,0,0,0,2.848-.019,3.69,3.69,0,0,0,1.134-4.075,13.664,13.664,0,0,0-2.252-3.9,34.427,34.427,0,0,1-5.548-13.063c-.913-4.609-.193-8.9-.262-13.482-.018-1.207.217-7.328-1.85-7.213-1.906.106-2.058,5.434-2.138,6.7-.647,10.258-1.518,21.289-8.092,29.191a7.246,7.246,0,0,0-2.021,3.407,3.124,3.124,0,0,0,5.294,2.635c.624-.618,1.379-2.209,2.454-1.148a2.563,2.563,0,0,1,.582,1.709c.252,4.212-1.717,8.23-3.965,11.8s-4.861,7-6.161,11.012a7.2,7.2,0,0,0-.356,3.948,3.307,3.307,0,0,0,2.736,2.58c2.209.158,2.551-1.934,4.222-2.791a2.184,2.184,0,0,1,2.563.27,2.457,2.457,0,0,1,.506,1.764c-.128,3.157-2.987,5.378-5.226,7.607a25.842,25.842,0,0,0-5.957,9.229,8.182,8.182,0,0,0-.654,3.148,3.5,3.5,0,0,0,1.39,2.79c1.381.932,3.343.36,4.561-.778a16.844,16.844,0,0,0,2.741-4.153,3.472,3.472,0,0,1,2.028-1.888c3.734-.8,1.064,5.484.28,6.512-4.426,5.794-10.566,11.476-10.181,18.756.061,1.164.424,2.486,1.484,2.969,1.549.7,3.128-.852,4.122-2.232.634-.88,4.852-9.535,5.418-5.01.538,4.286-2.719,6.257-5.084,9.11a30.882,30.882,0,0,0-5.886,11.11c-.5,1.733-.551,4.115,1.123,4.783,2.58,1.031,3.467-2.444,4.978-3.628a2.6,2.6,0,0,1,4.294,1.529,5.533,5.533,0,0,1-.882,3.752c-2.73,4.769-8.305,7.651-10.2,12.809-.518,1.41-.6,3.262.614,4.144,2.01,1.458,3.964-1.062,5.288-2.24a2.343,2.343,0,0,1,1.531-.785,1.532,1.532,0,0,1,1.313,1.21,3.54,3.54,0,0,1-.168,1.883c-1.648,5.327-6.334,7.624-9.5,11.795a14.362,14.362,0,0,0-2.714,6.324,6.118,6.118,0,0,0,.21,3.335,2.9,2.9,0,0,0,2.574,1.878c1.439-.035,2.474-1.4,3.011-2.74s.842-2.828,1.835-3.869c1.25-1.308,3.9-1.144,4.067.953.132,1.6-2.443,3.78-3.266,5.068q-4.831,7.558-9.274,15.355a9.267,9.267,0,0,0-1.372,3.407,3.214,3.214,0,0,0,1.381,3.2,3.353,3.353,0,0,0,2.267.242c6.256-1.244,6.121-9.587,10.087-13.153a18.381,18.381,0,0,1-4.3,11.638c-1.17,1.386-2.6,2.756-3.877,4.177l-16,6.265c-.114-.139-.234-.277-.344-.418a11.232,11.232,0,0,1-2.293-4.211c-.1-.412-.6-1.855-.368-2.209.541-.829,1.382.242,1.668.727a26.281,26.281,0,0,0,1.475,2.233,5.549,5.549,0,0,0,1.435,1.472,2.174,2.174,0,0,0,1.973.252,2.507,2.507,0,0,0,1.264-2.272,6.773,6.773,0,0,0-1.309-3.992,28.413,28.413,0,0,0-2.784-3.238q-1.069-1.159-2.057-2.389c-.716-.892-3.614-6.324-1.43-7.063a1.6,1.6,0,0,1,1.52.455c.409.376.7.862,1.069,1.276a4.406,4.406,0,0,0,3.449,1.445,1.434,1.434,0,0,0,1.51-1.674,7.6,7.6,0,0,0-1.919-4.5c-1.116-1.483-1.859-3.053-2.812-4.59-1.086-1.747-2.287-3.271-2.533-5.4,1.925-1.85,3.852,4.087,6.395,3.272,1.784-.572.923-3.25-.14-4.793a33.76,33.76,0,0,1-4.939-11.8c-.472-2.084-.806-4.2-1.086-6.317-.112-.851-.029-5.424-1.963-4.147a2.771,2.771,0,0,0-.934,1.8c-.811,3.528-1.547,7.088-2.462,10.59-.733,2.8-1.075,6.572-2.864,8.928-.974,1.283-2.176,2.256-2.069,4.033a.736.736,0,0,0,.632.772c2.068.688,3.482-.823,4.813-2.186a1.9,1.9,0,0,1,.588-.462.652.652,0,0,1,.7.088c.456.455.052,1.838-.025,2.377a11.156,11.156,0,0,1-2.185,4.918c-1.73,2.351-4,4.324-5.36,6.9a3.241,3.241,0,0,0-.481,1.705,2.241,2.241,0,0,0,2.263,1.846c1.42.09,2.219-1,2.7-2.218a3.69,3.69,0,0,1,1.412-2.06c.192-.1.47-.146.594.032a.5.5,0,0,1,.066.257,10.207,10.207,0,0,1-.946,4.97,12.52,12.52,0,0,1-3.193,3.821,9.768,9.768,0,0,0-1.835,2.128,3.251,3.251,0,0,0-.47,1.962,1.954,1.954,0,0,0,1.136,1.59,2.459,2.459,0,0,0,2.527-.812c.33-.338,2.19-3.317,2.87-2.14.241.419-.283,2.029-.38,2.507a25.745,25.745,0,0,1-5.726,11.7l-50.478,22.046H581.2c-.082-.134-.154-.276-.241-.4a28.416,28.416,0,0,0-2.784-3.239q-1.069-1.157-2.057-2.388c-.716-.892-3.614-6.325-1.43-7.063a1.6,1.6,0,0,1,1.52.455,16.533,16.533,0,0,1,1.069,1.276,4.406,4.406,0,0,0,3.449,1.445,1.434,1.434,0,0,0,1.51-1.674,7.6,7.6,0,0,0-1.92-4.5c-1.115-1.483-1.858-3.054-2.812-4.59-1.085-1.748-2.286-3.272-2.532-5.4,1.925-1.849,3.852,4.088,6.395,3.274,1.784-.572.923-3.25-.14-4.793a33.761,33.761,0,0,1-4.939-11.8c-.472-2.086-.806-4.2-1.086-6.318-.112-.85-.029-5.423-1.963-4.147a2.771,2.771,0,0,0-.934,1.8c-.811,3.528-1.547,7.088-2.462,10.59-.733,2.8-1.075,6.572-2.864,8.928-.974,1.283-2.176,2.256-2.069,4.033a.736.736,0,0,0,.632.77c2.068.688,3.482-.822,4.813-2.185a1.883,1.883,0,0,1,.588-.462.654.654,0,0,1,.7.086c.456.455.052,1.84-.025,2.378a11.162,11.162,0,0,1-2.185,4.918c-1.732,2.351-4,4.324-5.36,6.9a3.239,3.239,0,0,0-.481,1.705,2.243,2.243,0,0,0,2.263,1.846c1.42.09,2.219-1,2.7-2.218a3.69,3.69,0,0,1,1.412-2.06c.192-.1.47-.148.594.032a.5.5,0,0,1,.066.257,10.211,10.211,0,0,1-.946,4.97,12.538,12.538,0,0,1-3.194,3.821,9.765,9.765,0,0,0-1.834,2.128,3.432,3.432,0,0,0-.476,1.624H546.876l-73.882,27L417.28,753.04l-40.141,9.115H348.358L51.608,809.107v99.432H792.694V693.759ZM570.724,734.133a1.872,1.872,0,0,1-.023,1.025h-1.99C569.4,734.3,570.3,733.392,570.724,734.133Zm190.591-41.984c.541-.83,1.382.241,1.668.726.179.3.392.588.583.884h-2.052C761.349,693.172,761.153,692.4,761.315,692.149Zm-23.48-1.834a21.535,21.535,0,0,1,2.425,2.165,6.642,6.642,0,0,0,1.9,1.279h-4.394a10.286,10.286,0,0,1-.919-1.472C736.314,691.226,735.726,688.9,737.835,690.315Z" transform="translate(36.485 76.229)" fill="#c00130" stroke="#ae0721" stroke-linecap="round" stroke-linejoin="round" stroke-width="1"/>
    <path id="Path_54" data-name="Path 54" d="M799.922,768.918a6.244,6.244,0,0,1-.808-4.16c2.245.2,2.849,4.063,5.1,4.015,1.661-.035,2.334-2.251,1.968-3.871-.775-3.43-3.635-5.887-5.723-8.542a11.226,11.226,0,0,1-2.294-4.211c-.1-.412-.6-1.855-.367-2.208.541-.83,1.382.241,1.668.726a26.008,26.008,0,0,0,1.475,2.234,5.533,5.533,0,0,0,1.435,1.472,2.175,2.175,0,0,0,1.972.251,2.505,2.505,0,0,0,1.265-2.27,6.776,6.776,0,0,0-1.309-3.994,28.415,28.415,0,0,0-2.784-3.238q-1.069-1.159-2.057-2.388c-.718-.892-3.614-6.325-1.432-7.063a1.6,1.6,0,0,1,1.522.455c.409.376.7.86,1.069,1.274a4.4,4.4,0,0,0,3.449,1.446,1.436,1.436,0,0,0,1.51-1.674,7.609,7.609,0,0,0-1.92-4.5c-1.115-1.483-1.858-3.053-2.812-4.589-1.085-1.748-2.286-3.272-2.532-5.4,1.925-1.85,3.852,4.088,6.394,3.272,1.786-.571.924-3.248-.139-4.793a33.721,33.721,0,0,1-4.939-11.8c-.472-2.086-.806-4.2-1.086-6.318-.112-.85-.029-5.424-1.963-4.147a2.771,2.771,0,0,0-.934,1.8c-.811,3.527-1.547,7.087-2.462,10.589-.733,2.8-1.075,6.574-2.864,8.928-.976,1.283-2.176,2.256-2.069,4.033a.736.736,0,0,0,.632.772c2.068.688,3.482-.822,4.812-2.185a1.923,1.923,0,0,1,.589-.463.649.649,0,0,1,.7.088c.457.455.053,1.84-.024,2.378a11.157,11.157,0,0,1-2.185,4.916c-1.732,2.352-4,4.325-5.36,6.9a3.255,3.255,0,0,0-.482,1.705,2.243,2.243,0,0,0,2.264,1.846c1.418.09,2.218-1,2.7-2.218a3.688,3.688,0,0,1,1.412-2.059c.192-.1.47-.148.594.032a.506.506,0,0,1,.066.257,10.212,10.212,0,0,1-.946,4.97,12.556,12.556,0,0,1-3.194,3.821,9.733,9.733,0,0,0-1.834,2.128,3.238,3.238,0,0,0-.47,1.961,1.956,1.956,0,0,0,1.135,1.591,2.462,2.462,0,0,0,2.528-.814c.33-.337,2.19-3.317,2.87-2.14.241.419-.283,2.03-.38,2.507a26.022,26.022,0,0,1-6.839,12.954c-1,1.018-2.162,2.153-2.086,3.574a2.237,2.237,0,0,0,.062.3l-333.668-40.7a23.134,23.134,0,0,1-5.544-10.008,22.849,22.849,0,0,0,4.45,4.331c1.188.877,2.49.756,2.977-.84a5.235,5.235,0,0,0,.084-2.069,14.165,14.165,0,0,0-1.016-4.352c-1.054-2.354-3.066-4.11-4.727-6.083s-3.058-4.517-2.483-7.031a1.428,1.428,0,0,1,.624-1.008c.581-.3,1.276.185,1.61.746.728,1.224.748,2.124,2.312,1.63a2.956,2.956,0,0,0,1.816-2.786,5.808,5.808,0,0,0-.988-2.575c-2.425-4.165-7.207-7.966-6.432-13.338a1.606,1.606,0,0,1,.45-1.032c.73-.618,1.794.194,2.33.986s1.339,1.757,2.233,1.415c.859-.328.864-1.536.638-2.426-1.028-4.045-3.584-7.508-5.284-11.32a6.121,6.121,0,0,1-.708-3.113,1.117,1.117,0,0,1,.19-.57.934.934,0,0,1,1.308,0c.844.749.924,2.255,2.346,2.434,1.327.167,2.34-1.37,2.221-2.7a8.571,8.571,0,0,0-1.673-3.6c-5.222-8.31-5.167-19.282-8.357-28.422a1.864,1.864,0,0,0-.559-.935,1.318,1.318,0,0,0-1.826.695,4.132,4.132,0,0,0-.113,2.207c.743,6.274-.43,12.6-1.6,18.806a45.075,45.075,0,0,1-1.705,7c-1.052,2.923-2.7,5.6-3.858,8.479-.586,1.454-.745,3.618.744,4.108,1.856.61,3.186-2.384,5.138-2.317,3.214.11.68,4.446.072,5.669-1.424,2.858-3.758,5.546-3.83,8.892a2.344,2.344,0,0,0,.282,1.33c1.714,2.666,4.086-1.615,4.828-2.651a1.239,1.239,0,0,1,1.56-.52c.482.314.478,1.01.419,1.583-.686,6.655-7.572,10.712-9.366,17.052a3.4,3.4,0,0,0,.006,2.411c.84,1.7,3.5,1.252,4.867-.06.96-.925,1.555-2.171,2.508-3.088.989-.95,2.782-1.469,2.332.725a4.44,4.44,0,0,1-1.211,1.952c-1.471,1.64-2.946,3.284-4.56,4.787A17.079,17.079,0,0,0,431.3,713.2a13.86,13.86,0,0,0-1.7,3.792c-.391,1.181-.7,2.687.241,3.5a2.1,2.1,0,0,0,2.171.2,5.086,5.086,0,0,0,1.747-1.464,19.3,19.3,0,0,0,2.156-3.132.846.846,0,0,1,1.129.418,2.192,2.192,0,0,1,.094,1.331,10.314,10.314,0,0,1-3.535,6.395l-71.545-8.728-38-14.587a7.428,7.428,0,0,0-1.249-3.044,28.416,28.416,0,0,0-2.784-3.238q-1.069-1.159-2.057-2.389c-.716-.892-3.614-6.324-1.43-7.063a1.6,1.6,0,0,1,1.52.455c.409.376.7.862,1.069,1.276a4.407,4.407,0,0,0,3.449,1.445,1.434,1.434,0,0,0,1.51-1.674,7.6,7.6,0,0,0-1.92-4.5c-1.115-1.483-1.858-3.053-2.812-4.59-1.085-1.747-2.286-3.271-2.532-5.4,1.925-1.85,3.852,4.087,6.395,3.272,1.784-.572.923-3.25-.14-4.793a33.762,33.762,0,0,1-4.939-11.8c-.472-2.084-.806-4.2-1.086-6.317-.112-.851-.029-5.424-1.963-4.147a2.771,2.771,0,0,0-.934,1.8c-.811,3.528-1.547,7.088-2.462,10.59-.733,2.8-1.075,6.572-2.864,8.928-.974,1.283-2.176,2.256-2.069,4.033a.736.736,0,0,0,.632.772c2.068.688,3.482-.823,4.813-2.186a1.9,1.9,0,0,1,.588-.462.652.652,0,0,1,.7.088c.456.455.052,1.838-.025,2.377a11.156,11.156,0,0,1-2.185,4.918c-1.73,2.351-4,4.324-5.36,6.9a3.24,3.24,0,0,0-.481,1.705,2.241,2.241,0,0,0,2.263,1.846c1.42.09,2.219-1,2.7-2.218a3.69,3.69,0,0,1,1.412-2.06c.192-.1.47-.146.594.032a.5.5,0,0,1,.066.257,10.208,10.208,0,0,1-.946,4.97,12.509,12.509,0,0,1-3.194,3.821c-.088.085-.175.172-.264.257l-17.07-6.554c-.508-1.943-2.387-3.87-3.922-5.434a23.152,23.152,0,0,1-5.852-10.344,22.893,22.893,0,0,0,4.451,4.332c1.188.876,2.489.756,2.977-.841a5.235,5.235,0,0,0,.084-2.069,14.165,14.165,0,0,0-1.016-4.352c-1.054-2.354-3.066-4.11-4.728-6.082s-3.056-4.518-2.482-7.031a1.433,1.433,0,0,1,.624-1.009c.581-.3,1.276.186,1.61.746.728,1.224.748,2.124,2.312,1.63a2.957,2.957,0,0,0,1.816-2.786,5.814,5.814,0,0,0-.988-2.575c-2.425-4.165-7.207-7.964-6.432-13.338a1.606,1.606,0,0,1,.45-1.031c.73-.619,1.794.193,2.33.985s1.339,1.757,2.233,1.416c.859-.329.864-1.537.638-2.428-1.028-4.045-3.584-7.507-5.284-11.318a6.127,6.127,0,0,1-.709-3.114,1.13,1.13,0,0,1,.191-.569.932.932,0,0,1,1.308,0c.844.748.924,2.254,2.346,2.432,1.327.167,2.34-1.369,2.221-2.7a8.571,8.571,0,0,0-1.673-3.6c-5.222-8.31-5.167-19.28-8.357-28.422a1.864,1.864,0,0,0-.559-.935,1.318,1.318,0,0,0-1.826.695,4.132,4.132,0,0,0-.113,2.207c.742,6.274-.43,12.6-1.6,18.808a45.11,45.11,0,0,1-1.705,7c-1.052,2.922-2.7,5.6-3.858,8.478-.586,1.456-.745,3.618.744,4.108,1.856.61,3.186-2.384,5.137-2.317,3.215.11.682,4.446.073,5.669-1.424,2.858-3.76,5.546-3.832,8.892a2.354,2.354,0,0,0,.283,1.33c1.714,2.666,4.086-1.615,4.828-2.651a1.239,1.239,0,0,1,1.56-.52c.482.314.478,1.01.419,1.583-.686,6.655-7.572,10.712-9.366,17.053a3.4,3.4,0,0,0,.006,2.41c.84,1.7,3.5,1.252,4.867-.06.96-.924,1.555-2.17,2.508-3.088.989-.95,2.782-1.469,2.33.726a4.44,4.44,0,0,1-1.21,1.951c-1.472,1.642-2.946,3.286-4.56,4.787a17.083,17.083,0,0,0-2.366,2.438,13.876,13.876,0,0,0-1.7,3.792c-.391,1.181-.7,2.687.241,3.5a2.1,2.1,0,0,0,2.171.2,5.083,5.083,0,0,0,1.747-1.464,19.246,19.246,0,0,0,2.156-3.132.846.846,0,0,1,1.129.418,2.2,2.2,0,0,1,.094,1.331,10.066,10.066,0,0,1-3.2,6.073l-10.991-4.219H246.593a20.471,20.471,0,0,0-3.727-6.509c-1.5-1.806-4.1-3.695-3.259-6.368a1.783,1.783,0,0,1,.558-.9,1.591,1.591,0,0,1,1.7-.025,4.678,4.678,0,0,1,1.3,1.224c.559.683,2.923,4.55,4.006,2.418a1.837,1.837,0,0,0,.124-.937,16.766,16.766,0,0,0-2.9-8.554c-1.577-2.3-3.745-4.23-4.79-6.811-.616-1.518-.72-4.273,1.411-4.316,1.788-.035,3.106,2.1,4.477,2.905,1.1.649,2.887.53,3.248-.7a2.622,2.622,0,0,0-.137-1.493,18.493,18.493,0,0,0-4.427-7.589c-1.976-1.961-3.619-3.106-4.76-5.892-.43-1.045-.641-2.482.3-3.1a2.056,2.056,0,0,1,2.383.439c.652.576,1.1,1.352,1.75,1.931a2.07,2.07,0,0,0,2.383.456,1.825,1.825,0,0,0,.67-1.84,5.354,5.354,0,0,0-.85-1.876c-1.192-1.924-2.5-3.772-3.672-5.707-.888-1.468-2.5-3.4-2.75-5.1a1.485,1.485,0,0,1,.6-1.624,1.265,1.265,0,0,1,1.231.227,9.047,9.047,0,0,1,.929.928,4.265,4.265,0,0,0,2.37,1.184,1.84,1.84,0,0,0,1.652-.424,1.813,1.813,0,0,0,.348-1.381c-.175-2.026-1.789-3.583-3.277-4.966-.925-.859-5.587-6.62-3.433-7.783,1.672-.9,3.882,4.378,5.651,2.212a2.3,2.3,0,0,0,.18-2.2,4.716,4.716,0,0,0-1.436-2.048,20.905,20.905,0,0,0-2.7-1.572c-1.154-.691-4.026-4.578-1.9-5.556,1.615-.743,2.722,1.627,3.88,2.256a1.044,1.044,0,0,0,1.244-.053.679.679,0,0,0,.048-.067,1.088,1.088,0,0,0,.132-.52c.168-2.507-1.13-4.86-2.5-6.962s-2.905-4.224-3.3-6.7a2.223,2.223,0,0,1,.076-1.26.938.938,0,0,1,1.021-.583c.678.18.272,1.411.884,1.895a1.961,1.961,0,0,0,2.1-.014,2.726,2.726,0,0,0,.838-3.01,10.085,10.085,0,0,0-1.663-2.88,25.416,25.416,0,0,1-4.1-9.649c-.674-3.4-.143-6.572-.193-9.958-.013-.892.161-5.413-1.367-5.328-1.408.078-1.52,4.014-1.579,4.952-.478,7.577-1.121,15.724-5.976,21.56a5.355,5.355,0,0,0-1.493,2.516,2.308,2.308,0,0,0,3.911,1.946c.461-.456,1.018-1.632,1.812-.848a1.892,1.892,0,0,1,.43,1.262c.186,3.11-1.267,6.078-2.928,8.716s-3.59,5.168-4.55,8.134a5.33,5.33,0,0,0-.264,2.916,2.44,2.44,0,0,0,2.021,1.9c1.632.118,1.884-1.428,3.119-2.06a1.612,1.612,0,0,1,1.892.2,1.809,1.809,0,0,1,.374,1.3c-.095,2.332-2.206,3.972-3.86,5.617a19.091,19.091,0,0,0-4.4,6.818,6.071,6.071,0,0,0-.484,2.323,2.589,2.589,0,0,0,1.027,2.062,2.833,2.833,0,0,0,3.368-.575,12.426,12.426,0,0,0,2.024-3.067,2.57,2.57,0,0,1,1.5-1.394c2.759-.592.787,4.05.208,4.81-3.269,4.28-7.8,8.477-7.52,13.854a2.427,2.427,0,0,0,1.1,2.192c1.144.521,2.31-.629,3.044-1.649.468-.649,3.583-7.043,4-3.7.4,3.166-2.009,4.621-3.756,6.728a22.831,22.831,0,0,0-4.348,8.206c-.368,1.28-.406,3.04.83,3.533,1.906.761,2.561-1.8,3.677-2.68a1.924,1.924,0,0,1,3.172,1.129,4.093,4.093,0,0,1-.652,2.772c-2.017,3.523-6.134,5.652-7.536,9.461-.383,1.042-.444,2.408.454,3.06,1.484,1.078,2.928-.785,3.906-1.655a1.735,1.735,0,0,1,1.13-.58,1.13,1.13,0,0,1,.97.894,2.607,2.607,0,0,1-.124,1.391c-1.217,3.934-4.678,5.63-7.015,8.712a10.58,10.58,0,0,0-1.717,3.413H170.38L93.1,650.711H88.662c-1.381-1.847-2.432-3.844-2.023-6.031,2.245.2,2.85,4.063,5.1,4.015,1.661-.035,2.335-2.251,1.968-3.871-.774-3.43-3.635-5.887-5.722-8.54a11.241,11.241,0,0,1-2.294-4.212c-.1-.412-.6-1.855-.368-2.208.542-.829,1.382.241,1.668.726a26.333,26.333,0,0,0,1.476,2.234A5.515,5.515,0,0,0,89.9,634.3a2.176,2.176,0,0,0,1.972.252,2.512,2.512,0,0,0,1.265-2.272,6.784,6.784,0,0,0-1.309-3.994,28.4,28.4,0,0,0-2.785-3.238q-1.067-1.157-2.057-2.388c-.716-.892-3.613-6.325-1.43-7.063a1.594,1.594,0,0,1,1.52.455c.409.376.7.86,1.07,1.276a4.4,4.4,0,0,0,3.448,1.445,1.435,1.435,0,0,0,1.511-1.674,7.609,7.609,0,0,0-1.92-4.5c-1.116-1.482-1.858-3.053-2.812-4.589-1.085-1.748-2.286-3.272-2.533-5.4,1.926-1.849,3.852,4.088,6.395,3.274,1.784-.572.923-3.25-.14-4.793a33.758,33.758,0,0,1-4.938-11.8c-.472-2.086-.806-4.2-1.086-6.318-.113-.85-.03-5.423-1.963-4.147a2.767,2.767,0,0,0-.935,1.8c-.81,3.528-1.546,7.088-2.462,10.59-.732,2.8-1.074,6.572-2.863,8.928-.976,1.282-2.177,2.255-2.07,4.033a.736.736,0,0,0,.634.77c2.068.688,3.482-.822,4.812-2.185a1.917,1.917,0,0,1,.588-.463.656.656,0,0,1,.7.088c.457.455.053,1.84-.025,2.378a11.154,11.154,0,0,1-2.185,4.918c-1.73,2.351-4,4.324-5.359,6.9a3.241,3.241,0,0,0-.482,1.705,2.243,2.243,0,0,0,2.263,1.844c1.42.091,2.219-1,2.7-2.216a3.689,3.689,0,0,1,1.411-2.06c.193-.1.472-.148.6.032a.508.508,0,0,1,.066.257,10.2,10.2,0,0,1-.947,4.97,12.535,12.535,0,0,1-3.193,3.821,9.772,9.772,0,0,0-1.835,2.128,3.239,3.239,0,0,0-.469,1.962,1.952,1.952,0,0,0,1.135,1.59,2.461,2.461,0,0,0,2.528-.812c.33-.338,2.19-3.318,2.869-2.141.242.419-.283,2.03-.379,2.507a26.044,26.044,0,0,1-6.84,12.954c-.995,1.018-2.161,2.153-2.084,3.574.1,1.906,2.486,2.743,4.1,2.294,2.249-.628,2.183-2.96,3.834-4.172a.554.554,0,0,1,.392-.14c.328.047.367.5.313.827a21.674,21.674,0,0,1-1.594,5.2H67.083a3.585,3.585,0,0,0-.022-.726,12.441,12.441,0,0,0-3.422-7.009c-.982-1-2.128-1.829-3.085-2.852-.647-.69-3.265-5.173-.568-5.063a1.5,1.5,0,0,1,.913.451c.65.6,1.063,1.408,1.669,2.048a2.18,2.18,0,0,0,2.362.738c1.12-.52,1.05-2.131.673-3.306A20.357,20.357,0,0,0,61.8,628.28c-1.5-1.807-4.1-3.695-3.258-6.368a1.791,1.791,0,0,1,.558-.9,1.591,1.591,0,0,1,1.7-.024,4.683,4.683,0,0,1,1.3,1.224c.559.683,2.922,4.549,4.006,2.418a1.849,1.849,0,0,0,.124-.937,16.753,16.753,0,0,0-2.9-8.554c-1.576-2.3-3.744-4.23-4.789-6.811-.616-1.519-.72-4.274,1.41-4.316,1.789-.035,3.107,2.1,4.478,2.9,1.1.65,2.886.53,3.247-.7a2.628,2.628,0,0,0-.136-1.492,18.494,18.494,0,0,0-4.427-7.589c-1.976-1.961-3.62-3.106-4.762-5.892-.428-1.046-.64-2.482.3-3.1a2.06,2.06,0,0,1,2.384.44c.652.576,1.1,1.352,1.75,1.931a2.069,2.069,0,0,0,2.383.456,1.825,1.825,0,0,0,.67-1.84,5.355,5.355,0,0,0-.851-1.876c-1.19-1.924-2.5-3.772-3.671-5.707-.888-1.469-2.5-3.4-2.752-5.1a1.485,1.485,0,0,1,.6-1.624,1.266,1.266,0,0,1,1.231.227,9.034,9.034,0,0,1,.928.928,4.269,4.269,0,0,0,2.37,1.184,1.846,1.846,0,0,0,1.654-.424,1.82,1.82,0,0,0,.347-1.382c-.174-2.024-1.788-3.582-3.277-4.966-.924-.858-5.586-6.619-3.433-7.782,1.672-.9,3.882,4.378,5.652,2.212a2.3,2.3,0,0,0,.179-2.2,4.713,4.713,0,0,0-1.436-2.048,20.883,20.883,0,0,0-2.7-1.572c-1.153-.69-4.025-4.577-1.9-5.555,1.614-.744,2.722,1.627,3.878,2.256a1.042,1.042,0,0,0,1.244-.054.555.555,0,0,0,.049-.066,1.1,1.1,0,0,0,.132-.521c.167-2.506-1.132-4.859-2.5-6.961s-2.905-4.224-3.3-6.7a2.241,2.241,0,0,1,.076-1.259.939.939,0,0,1,1.021-.583c.679.179.272,1.41.884,1.895a1.963,1.963,0,0,0,2.1-.014,2.729,2.729,0,0,0,.838-3.01,10.124,10.124,0,0,0-1.663-2.88,25.416,25.416,0,0,1-4.1-9.649c-.674-3.4-.143-6.572-.193-9.958-.013-.892.16-5.413-1.367-5.328-1.408.078-1.52,4.013-1.58,4.952-.476,7.576-1.121,15.724-5.976,21.56a5.358,5.358,0,0,0-1.493,2.515,2.308,2.308,0,0,0,3.911,1.948c.461-.456,1.019-1.632,1.812-.848A1.889,1.889,0,0,1,52.966,542c.186,3.11-1.268,6.078-2.928,8.716s-3.592,5.168-4.552,8.132a5.323,5.323,0,0,0-.263,2.917,2.44,2.44,0,0,0,2.021,1.9c1.632.118,1.884-1.428,3.119-2.062a1.614,1.614,0,0,1,1.892.2,1.806,1.806,0,0,1,.374,1.3c-.095,2.333-2.206,3.972-3.86,5.618a19.1,19.1,0,0,0-4.4,6.817,6.037,6.037,0,0,0-.484,2.324,2.6,2.6,0,0,0,1.026,2.062,2.835,2.835,0,0,0,3.37-.575,12.458,12.458,0,0,0,2.024-3.067,2.567,2.567,0,0,1,1.5-1.394c2.759-.592.787,4.05.206,4.81-3.269,4.279-7.8,8.476-7.519,13.854a2.427,2.427,0,0,0,1.1,2.192c1.144.521,2.31-.63,3.044-1.649.468-.649,3.583-7.043,4-3.7.4,3.166-2.009,4.621-3.756,6.728a22.8,22.8,0,0,0-4.348,8.206c-.37,1.279-.407,3.038.83,3.533,1.9.761,2.56-1.806,3.677-2.68a1.923,1.923,0,0,1,3.17,1.129,4.087,4.087,0,0,1-.652,2.772c-2.016,3.522-6.134,5.651-7.536,9.461-.383,1.04-.443,2.408.455,3.06,1.484,1.078,2.927-.785,3.906-1.655a1.727,1.727,0,0,1,1.13-.58,1.13,1.13,0,0,1,.97.893,2.594,2.594,0,0,1-.125,1.391c-1.217,3.935-4.676,5.632-7.014,8.712a10.6,10.6,0,0,0-2.005,4.67,4.527,4.527,0,0,0,.155,2.464,2.141,2.141,0,0,0,1.9,1.387c1.062-.025,1.826-1.037,2.222-2.023a8.445,8.445,0,0,1,1.356-2.857c.924-.967,2.876-.846,3,.7.1,1.184-1.8,2.792-2.412,3.743q-3.541,5.537-6.8,11.249H-28.85c-.1-2.214-2.288-4.471-4.039-6.254a23.147,23.147,0,0,1-5.852-10.344,22.85,22.85,0,0,0,4.451,4.331c1.188.877,2.489.757,2.977-.84a5.236,5.236,0,0,0,.083-2.069,14.129,14.129,0,0,0-1.015-4.352c-1.054-2.354-3.067-4.11-4.728-6.083s-3.056-4.517-2.483-7.031a1.429,1.429,0,0,1,.625-1.008c.581-.3,1.276.185,1.609.746.73,1.224.749,2.124,2.314,1.63a2.956,2.956,0,0,0,1.816-2.786,5.8,5.8,0,0,0-.989-2.575c-2.425-4.165-7.206-7.966-6.432-13.338a1.61,1.61,0,0,1,.451-1.031c.73-.619,1.793.193,2.33.985s1.339,1.757,2.233,1.415c.859-.328.864-1.536.637-2.426-1.027-4.045-3.583-7.507-5.284-11.318a6.138,6.138,0,0,1-.708-3.114,1.126,1.126,0,0,1,.191-.569.932.932,0,0,1,1.308,0c.844.748.923,2.254,2.346,2.432,1.327.167,2.339-1.369,2.221-2.7a8.572,8.572,0,0,0-1.673-3.6c-5.222-8.31-5.168-19.28-8.358-28.422a1.854,1.854,0,0,0-.558-.935,1.318,1.318,0,0,0-1.826.695,4.144,4.144,0,0,0-.114,2.207c.743,6.273-.428,12.6-1.595,18.807a45.248,45.248,0,0,1-1.705,7c-1.054,2.922-2.7,5.6-3.858,8.478-.586,1.456-.745,3.618.744,4.108,1.856.61,3.185-2.384,5.137-2.317,3.215.11.682,4.446.072,5.669-1.423,2.858-3.758,5.546-3.83,8.892a2.354,2.354,0,0,0,.283,1.33c1.714,2.666,4.086-1.615,4.828-2.651a1.239,1.239,0,0,1,1.56-.52c.482.314.478,1.01.419,1.583-.686,6.655-7.572,10.712-9.366,17.052a3.4,3.4,0,0,0,.006,2.411c.84,1.7,3.5,1.252,4.867-.06.96-.924,1.554-2.171,2.508-3.088.989-.95,2.782-1.469,2.33.725a4.428,4.428,0,0,1-1.211,1.952c-1.471,1.642-2.945,3.284-4.559,4.787a17.079,17.079,0,0,0-2.366,2.438,13.876,13.876,0,0,0-1.7,3.792c-.392,1.181-.7,2.687.241,3.5a2.1,2.1,0,0,0,2.171.2,5.085,5.085,0,0,0,1.747-1.464,19.252,19.252,0,0,0,2.156-3.132.847.847,0,0,1,1.129.418,2.2,2.2,0,0,1,.092,1.331c-.572,3.694-2.358,5.388-4.976,7.724-2.416,2.155-5.177,4.429-6.142,7.4h-8.112c-.221-.3-.446-.6-.674-.869-2.155-2.572-4.852-5.436-4.234-8.734,2.245.2,2.849,4.062,5.1,4.015,1.661-.035,2.334-2.251,1.968-3.872-.775-3.428-3.635-5.886-5.723-8.54A11.236,11.236,0,0,1-72.3,628.5c-.1-.412-.6-1.855-.367-2.209.541-.829,1.382.242,1.668.727a26.506,26.506,0,0,0,1.475,2.234,5.528,5.528,0,0,0,1.435,1.471,2.172,2.172,0,0,0,1.972.252,2.505,2.505,0,0,0,1.265-2.27,6.773,6.773,0,0,0-1.309-3.994,28.411,28.411,0,0,0-2.784-3.238q-1.069-1.159-2.057-2.388c-.718-.893-3.614-6.325-1.432-7.063a1.6,1.6,0,0,1,1.522.454c.409.376.7.862,1.069,1.276a4.4,4.4,0,0,0,3.449,1.445,1.719,1.719,0,0,0,.93-.264,1.731,1.731,0,0,0,.58-1.409,7.609,7.609,0,0,0-1.92-4.5c-1.115-1.483-1.858-3.053-2.812-4.589-1.085-1.748-2.286-3.272-2.532-5.4,1.925-1.85,3.852,4.088,6.394,3.272,1.786-.572.924-3.25-.139-4.793a33.755,33.755,0,0,1-4.939-11.8c-.472-2.086-.806-4.2-1.086-6.318-.112-.851-.029-5.424-1.963-4.147a2.771,2.771,0,0,0-.934,1.8c-.811,3.528-1.547,7.088-2.462,10.59-.733,2.8-1.075,6.574-2.864,8.928-.974,1.283-2.176,2.256-2.069,4.033a.922.922,0,0,0,.1.41.922.922,0,0,0,.535.361c2.068.688,3.482-.822,4.812-2.186a1.938,1.938,0,0,1,.589-.462.652.652,0,0,1,.7.088c.456.455.052,1.838-.025,2.378a11.157,11.157,0,0,1-2.185,4.916c-1.732,2.351-4,4.324-5.36,6.9a3.255,3.255,0,0,0-.482,1.705,2.243,2.243,0,0,0,2.264,1.846c1.418.09,2.218-1,2.7-2.218a3.687,3.687,0,0,1,1.412-2.059c.192-.1.47-.148.594.031a.5.5,0,0,1,.066.258,10.211,10.211,0,0,1-.946,4.97,12.555,12.555,0,0,1-3.194,3.821,9.707,9.707,0,0,0-1.834,2.128,3.237,3.237,0,0,0-.47,1.961,1.957,1.957,0,0,0,1.135,1.591,2.462,2.462,0,0,0,2.528-.814c.33-.338,2.19-3.317,2.87-2.14.241.419-.283,2.03-.38,2.507a25.978,25.978,0,0,1-1.415,4.668,25.866,25.866,0,0,1-5.424,8.286c-1,1.018-2.161,2.152-2.086,3.574.1,1.9,2.486,2.743,4.1,2.293,2.25-.628,2.184-2.959,3.834-4.172a.562.562,0,0,1,.392-.14c.328.047.367.5.313.827a21.72,21.72,0,0,1-3.58,8.777H-92.511A3.038,3.038,0,0,0-91.918,649,6.77,6.77,0,0,0-93.228,645a28.3,28.3,0,0,0-2.784-3.238q-1.069-1.159-2.058-2.389c-.716-.892-3.613-6.324-1.43-7.063a1.594,1.594,0,0,1,1.52.455,16.309,16.309,0,0,1,1.07,1.276,4.406,4.406,0,0,0,3.448,1.445,1.727,1.727,0,0,0,.93-.264,1.729,1.729,0,0,0,.581-1.41,7.606,7.606,0,0,0-1.92-4.5c-1.115-1.483-1.858-3.054-2.812-4.59-1.085-1.748-2.286-3.271-2.532-5.4,1.925-1.85,3.851,4.087,6.394,3.272,1.784-.572.923-3.25-.14-4.793a33.759,33.759,0,0,1-4.938-11.8c-.472-2.086-.806-4.2-1.086-6.318-.113-.85-.03-5.423-1.963-4.146a2.775,2.775,0,0,0-.935,1.8c-.81,3.528-1.546,7.088-2.461,10.59-.733,2.8-1.075,6.572-2.864,8.928-.976,1.283-2.177,2.256-2.07,4.033a.911.911,0,0,0,.1.41.917.917,0,0,0,.535.36c2.068.689,3.482-.822,4.812-2.185a1.9,1.9,0,0,1,.589-.462.649.649,0,0,1,.7.088c.457.455.053,1.838-.025,2.377a11.153,11.153,0,0,1-2.184,4.918c-1.732,2.351-4,4.324-5.36,6.9a3.252,3.252,0,0,0-.482,1.705,2.245,2.245,0,0,0,2.263,1.846c1.42.09,2.219-1,2.7-2.218a3.685,3.685,0,0,1,1.412-2.06c.192-.1.47-.148.594.032a.509.509,0,0,1,.066.257,10.2,10.2,0,0,1-.947,4.97,12.534,12.534,0,0,1-3.193,3.821,9.765,9.765,0,0,0-1.835,2.128,3.239,3.239,0,0,0-.469,1.962,1.956,1.956,0,0,0,1.135,1.59,2.461,2.461,0,0,0,2.528-.812c.33-.338,2.19-3.318,2.869-2.14.242.419-.282,2.029-.379,2.507a25.991,25.991,0,0,1-1.114,3.818H-130.82V850.389h960v-77.9ZM61.181,649.438a10.663,10.663,0,0,1,1.452,1.273H60.371C60.009,649.878,59.731,648.467,61.181,649.438ZM49.846,646.15a13.487,13.487,0,0,1-.836,4.561H47.172A12.9,12.9,0,0,1,49.846,646.15Zm-95.993,2.795a5.457,5.457,0,0,1-.42,1.766h-4.422C-49.606,649.062-47.734,647.774-46.147,648.944Zm-53.219-.152c-.1-.41-.6-1.855-.368-2.208.542-.829,1.382.242,1.668.727a26.5,26.5,0,0,0,1.476,2.233,6.926,6.926,0,0,0,1.022,1.166H-98.6A8.163,8.163,0,0,1-99.366,648.792ZM230.608,675.78h-2.281A1.893,1.893,0,0,1,230.608,675.78ZM792.7,764.9a.558.558,0,0,1,.392-.142c.328.047.367.5.313.828a21.488,21.488,0,0,1-.571,2.468l-2.2-.268C791.3,766.843,791.667,765.653,792.7,764.9Z" transform="translate(0 77.88)" fill="#b1082f" stroke="#ae0721" stroke-linecap="round" stroke-linejoin="round" stroke-width="1"/>
    <path id="Path_55" data-name="Path 55" d="M733.846,765.374c3.583-4.2,7.068-8.576,8.947-13.742a25.454,25.454,0,0,0,1.013-13.723,9.786,9.786,0,0,0-2.746-5.551c-3.871,6.278-7.372,13.162-8.752,20.314a340.089,340.089,0,0,1-.2-41.411,119.317,119.317,0,0,0-1.25,42.6,15.036,15.036,0,0,0-1.71-2.669,15.7,15.7,0,0,0-11.615-5.761c.809,4.2,1.753,8.44,3.774,12.208a16.951,16.951,0,0,0,7.981,7.741H689.143l-3.019-10.908h-8.354l-8.088-8.087h-25.39l-6.257,6.256H628.62l-5.263,12.739H589.409a21.139,21.139,0,0,0-.816-2.891,1.258,1.258,0,0,0-.436-.673c-.792-.5-1.688.973-2.578.684a9.138,9.138,0,0,0-8.614-9.28,21.108,21.108,0,0,0,2.484,12.16H520.224l-14.4,4.91-15.748-4.91H286.1l-33.5-5.495H183.981l-8.875,5.495H88.683l11.182-12.943c-4.745,2.568-8.224,6.953-11.336,11.563a38.832,38.832,0,0,0,.7-28.9c-4.052,4.229-5.984,10.18-6.166,16.034a35.054,35.054,0,0,0,.241,5.106,20.877,20.877,0,0,0-12.935-11.074,22.758,22.758,0,0,0,3.3,13.538,17.284,17.284,0,0,0,8,6.674H49.329l-4.949-23.09h-23.6v7.6H-.819l-8.23,15.49H-130.82V866.758h960V765.374Zm-1.655-1.13q.119.571.277,1.13h-.989A2.041,2.041,0,0,0,732.192,764.244Z" transform="translate(0 118.01)" fill="#a50a29" stroke="#ae0721" stroke-linecap="round" stroke-linejoin="round" stroke-width="1"/>
  </g>
</svg>
