<svg xmlns="http://www.w3.org/2000/svg" xmlns:xlink="http://www.w3.org/1999/xlink" width="77.808" height="77.808" viewBox="0 0 77.808 77.808">
  <defs>
    <filter id="Path_1" x="0" y="0" width="77.808" height="77.808" filterUnits="userSpaceOnUse">
      <feOffset dx="3" dy="3" input="SourceAlpha"/>
      <feGaussianBlur result="blur"/>
      <feFlood flood-opacity="0.161"/>
      <feComposite operator="in" in2="blur"/>
      <feComposite in="SourceGraphic"/>
    </filter>
  </defs>
  <g id="Logo" transform="translate(-3840.038 25.925)">
    <g id="Group_1" data-name="Group 1" transform="translate(3840.038 -25.925)">
      <g transform="matrix(1, 0, 0, 1, 0, 0)" filter="url(#Path_1)">
        <path id="Path_1-2" data-name="Path 1" d="M3851.972,38.905c-3.548-3.548-11.934-20.777-11.934-26.044s5.957-22.832,9.977-26.853,20.9-11.933,26.044-11.933,23.254,6.379,26.853,9.978S3914.846,4.9,3914.846,10.1s-7.325,24.2-9.978,26.854-19.532,11.933-26.044,11.933S3855.519,42.453,3851.972,38.905Z" transform="translate(-3840.04 25.92)" fill="#e65151"/>
      </g>
    </g>
    <g id="Group_2" data-name="Group 2" transform="translate(3855.31 -10.693)">
      <path id="Path_2" data-name="Path 2" d="M3946.124,108.684l-13.187-3.033V68c0,.964-.24-1.27,1.058-1.27l33.929.047,14.329,3.883-35.832.141" transform="translate(-3931.725 -65.538)" fill="#b32a37"/>
      <path id="Path_3" data-name="Path 3" d="M3940.575,104.331a1.225,1.225,0,0,1-.27-.031l-13.187-3.033a1.2,1.2,0,0,1-.928-1.165V62.871a1.616,1.616,0,0,1-.017-.228,3.425,3.425,0,0,1,.29-1.323,2.128,2.128,0,0,1,1.982-1.332l33.93.047a1.218,1.218,0,0,1,.312.041l14.329,3.882a1.2,1.2,0,0,1-.309,2.35l-35.831.141h0a1.2,1.2,0,0,1,0-2.391l26.977-.107-5.63-1.525-33.6-.047a1.2,1.2,0,0,0-.03.126V99.149l12.258,2.82a1.2,1.2,0,0,1-.267,2.362Z" transform="translate(-3926.175 -59.988)" fill="#262626"/>
    </g>
    <g id="Group_3" data-name="Group 3" transform="translate(3855.326 -9.915)">
      <line id="Line_1" data-name="Line 1" x1="13.336" y1="3.034" transform="translate(1.196 1.196)" fill="#b32a37"/>
      <path id="Path_4" data-name="Path 4" d="M3940.8,69.8a1.205,1.205,0,0,1-.267-.03L3927.2,66.736a1.2,1.2,0,1,1,.53-2.332l13.336,3.034a1.2,1.2,0,0,1-.265,2.362Z" transform="translate(-3926.265 -64.373)" fill="#262626"/>
    </g>
    <g id="Group_4" data-name="Group 4" transform="translate(3869.829 -5.499)">
      <path id="Path_5" data-name="Path 5" d="M4008.06,89.281" transform="translate(-4008.06 -89.281)" fill="#e50019" stroke="#1a1818" stroke-linecap="round" stroke-linejoin="round" stroke-width="16"/>
    </g>
    <g id="Group_5" data-name="Group 5" transform="translate(3868.513 -6.977)">
      <path id="Path_6" data-name="Path 6" d="M4043.659,125.006a.875.875,0,0,1-.825.919h-34.622a.876.876,0,0,1-.824-.919V88.61a.876.876,0,0,1,.824-.919h34.622a.876.876,0,0,1,.825.919Z" transform="translate(-4006.192 -86.495)" fill="#b32a37"/>
      <path id="Path_7" data-name="Path 7" d="M4037.285,121.572h-34.622a2.072,2.072,0,0,1-2.021-2.116V83.06a2.072,2.072,0,0,1,2.021-2.115h34.622a2.072,2.072,0,0,1,2.021,2.115v36.4A2.072,2.072,0,0,1,4037.285,121.572Zm-34.25-2.391h33.879V83.337h-33.879Z" transform="translate(-4000.642 -80.945)" fill="#262626"/>
    </g>
    <g id="Group_6" data-name="Group 6" transform="translate(3873.198 -0.574)">
      <path id="Rectangle_1" data-name="Rectangle 1" d="M3.443,0H23.456A3.446,3.446,0,0,1,26.9,3.446V21.978a3.45,3.45,0,0,1-3.45,3.45h-20A3.45,3.45,0,0,1,0,21.978V3.443A3.443,3.443,0,0,1,3.443,0Z" transform="translate(1.196 1.196)" fill="#fff"/>
      <path id="Path_8" data-name="Path 8" d="M4054.55,144.88h-25.679a1.809,1.809,0,0,1-1.807-1.807V118.867a1.809,1.809,0,0,1,1.807-1.807h25.679a1.809,1.809,0,0,1,1.808,1.807v24.206A1.809,1.809,0,0,1,4054.55,144.88Zm-25.1-2.392h24.511V119.452h-24.511Z" transform="translate(-4027.064 -117.06)" fill="#262626"/>
    </g>
    <g id="Group_7" data-name="Group 7" transform="translate(3856.524 -9.496)">
      <path id="Path_9" data-name="Path 9" d="M3933.019,66.734" transform="translate(-3933.019 -66.734)" fill="#e50019" stroke="#1a1818" stroke-linecap="round" stroke-linejoin="round" stroke-width="16"/>
    </g>
    <g id="Group_8" data-name="Group 8" transform="translate(3847.708 -6.643)">
      <path id="Path_10" data-name="Path 10" d="M3890.042,110.61l7.619,10.321V89.57l-7.619,1.856Z" transform="translate(-3888.846 -88.374)" fill="#b32a37"/>
      <path id="Path_11" data-name="Path 11" d="M3892.111,116.578a1.2,1.2,0,0,1-.962-.486l-7.619-10.322a1.2,1.2,0,0,1-.234-.71V85.877a1.2,1.2,0,0,1,.913-1.161l7.619-1.856a1.195,1.195,0,0,1,1.479,1.161v31.361a1.2,1.2,0,0,1-1.2,1.2Zm-6.423-11.911,5.227,7.081v-26.2l-5.227,1.274Z" transform="translate(-3883.296 -82.825)" fill="#262626"/>
    </g>
    <g id="Group_9" data-name="Group 9" transform="translate(3881.162 6.542)">
      <path id="Path_12" data-name="Path 12" d="M4075.819,159.391a1.937,1.937,0,1,1-1.92-2.2A2.072,2.072,0,0,1,4075.819,159.391Z" transform="translate(-4071.98 -157.195)" fill="#262626"/>
    </g>
    <g id="Group_10" data-name="Group 10" transform="translate(3892.535 6.542)">
      <path id="Path_13" data-name="Path 13" d="M4139.965,159.391a1.937,1.937,0,1,1-1.92-2.2A2.072,2.072,0,0,1,4139.965,159.391Z" transform="translate(-4136.125 -157.195)" fill="#262626"/>
    </g>
    <g id="Group_11" data-name="Group 11" transform="translate(3883.98 15.264)">
      <path id="Path_14" data-name="Path 14" d="M4097.746,206.385c0,3.118-2.21,5.645-4.936,5.645s-4.936-2.527-4.936-5.645Z" transform="translate(-4087.874 -206.385)" fill="#262626"/>
    </g>
    <g id="Group_12" data-name="Group 12" transform="translate(3875.589 -23.287)" opacity="0.2">
      <path id="Path_15" data-name="Path 15" d="M4069.829,49.188c2.652-2.653,9.977-21.662,9.977-26.854s-8.335-22.445-11.933-26.043c-2.106-2.106-9.186-5.165-15.726-7.34l-11.583,25.106-.015,23.024,16.1,19.842C4062.62,54.1,4068.371,50.646,4069.829,49.188Z" transform="translate(-4040.549 11.049)" fill="#fff"/>
    </g>
  </g>
</svg>
