<svg xmlns="http://www.w3.org/2000/svg" width="105" height="105" viewBox="0 0 105 105">
  <g id="Group_427" data-name="Group 427" transform="translate(395.215 16.161)">
    <path id="Path_903" data-name="Path 903" d="M-211.12-15.271a3.5,3.5,0,0,0-3.367-.931,7.754,7.754,0,0,0-2.941,1.547c-4.148,3.175-7.272,7.558-9.979,11.8l.359-1.33c.367-1.359.646-3.056-.459-4.12a3.136,3.136,0,0,0-3.188-.471c-2.456.86-4.041,3.411-4.848,7.8-.359,1.959-.651,3.944-.872,5.923a7.779,7.779,0,0,0-.922-1.091.5.5,0,0,0-.233-.129,1.787,1.787,0,0,0-1.537.316,4.4,4.4,0,0,0-1.3,2.075l.01-.25a11.745,11.745,0,0,0-.584-5.341,11.247,11.247,0,0,0-1.52-2.339c-.212-.271-.433-.548-.65-.823a.494.494,0,0,0-.165-.263c-.027-.021-.058-.033-.086-.053-5.666-7.11-13.367-15.33-23.617-18.953a3.113,3.113,0,0,0-1.4-.242,2.31,2.31,0,0,0-1.879,2.007,4.521,4.521,0,0,0,.5,2.507,21.5,21.5,0,0,0,3.668,5.066l6.178,6.978a14.092,14.092,0,0,0-4.389-1.4,8.854,8.854,0,0,0-7.422,2.183,2.486,2.486,0,0,0-.84,1.558,2.45,2.45,0,0,0,1.273,2.083A14.6,14.6,0,0,0-266.7.687l5.67,1.538c-3.117.594-5.351,1.786-6.794,3.614-1.084,1.374-1.443,3.432-.164,4.5a3.675,3.675,0,0,0,2.834.542,36.948,36.948,0,0,0,5.2-.919c.694-.175,1.106-.158,1.262.051.175.236.012.7-.19,1.162a19.024,19.024,0,0,0-.8,12.741,18.721,18.721,0,0,0,2.485,5.209c-.728.773-1.973,1.084-3.9.964a29.578,29.578,0,0,1-11.66-3.228.5.5,0,0,0-.425-.017.5.5,0,0,0-.284.317,7.744,7.744,0,0,0,.261,5.893c1.1,1.976,3.535,3.211,6.516,3.3a35.464,35.464,0,0,0,5.023-.428c1.257-.16,2.455-.313,3.429-.37a11.1,11.1,0,0,0,.222,3.7l-3.539-.079a.524.524,0,0,0-.511.489.5.5,0,0,0,.488.511l3.171.071A4.443,4.443,0,0,1-260.155,43a8.567,8.567,0,0,1-3.717,1.5.5.5,0,0,0-.4.584.5.5,0,0,0,.49.407.491.491,0,0,0,.094-.009,9.525,9.525,0,0,0,4.144-1.689,5.987,5.987,0,0,0,1.084-1.092,2.394,2.394,0,0,1-1.078,1.648,6.033,6.033,0,0,1-2.156.819.5.5,0,0,0-.385.593.5.5,0,0,0,.489.4.535.535,0,0,0,.1-.011,7.784,7.784,0,0,0,2.083-.723.5.5,0,0,0,.486.419h.023a5,5,0,0,0,3.775-2.156,8.785,8.785,0,0,0,1.165-2.832,2.6,2.6,0,0,0,.747.119,2.307,2.307,0,0,0,1.043-.243,7.883,7.883,0,0,0,.94-.632c.409-.3,1.5-1.1,1.758-.968a.475.475,0,0,0,.171.044,18.748,18.748,0,0,0,7.288,1.384c6.247,0,12.265-2.513,15.5-3.864.894-.374,1.613-.674,2-.778a8.448,8.448,0,0,0,1.146.04,2.65,2.65,0,0,0,.445.041,1.845,1.845,0,0,0,.688-.124.5.5,0,0,0,.09-.059,5.078,5.078,0,0,0,.521-.158.485.485,0,0,0,.316-.017,2.9,2.9,0,0,1,2.753.585.5.5,0,0,0,.327.122.528.528,0,0,0,.125-.015.5.5,0,0,0,.344-.312,4.63,4.63,0,0,0-.7-4.382,9.032,9.032,0,0,0,.118-1.139c-.332-4.713-5.273-4.534-8.88-4.408-.761.027-1.486.049-2.109.036a17.866,17.866,0,0,1,4.31-13.992c.188-.212.384-.42.578-.63a9.859,9.859,0,0,0,2.1-2.886,9.8,9.8,0,0,0,.471-1.7l.107-.483c1.022-4.436,3.961-8.173,6.8-11.786,1.032-1.312,2.1-2.668,3.065-4.045C-210.211-11.781-209.931-13.924-211.12-15.271Zm-44.819,58.388a4.039,4.039,0,0,1-2.59,1.681,3.557,3.557,0,0,0,.7-.885.491.491,0,0,0,.15-.032,7.565,7.565,0,0,0,2.152-1.481A5.06,5.06,0,0,1-255.939,43.117Z" transform="translate(-99 11)" fill="#ec5a5f"/>
    <rect id="Rectangle_55" data-name="Rectangle 55" width="105" height="105" transform="translate(-395.215 -16.161)" fill="none"/>
  </g>
</svg>
