<svg xmlns="http://www.w3.org/2000/svg" width="105" height="105" viewBox="0 0 105 105">
  <g id="Group_435" data-name="Group 435" transform="translate(-134.224 15.161)">
    <path id="Path_910" data-name="Path 910" d="M-148,186.413c.037-.292.083-.576.093-.9-.256-3.628-3.242-4.354-6.25-4.44l0,0a66.116,66.116,0,0,0,5.9-6.936,2.439,2.439,0,0,0,.589-1.4c.014-1.2-1.239-1.83-2.417-2.018a18.733,18.733,0,0,0-14.933,3.764,63.135,63.135,0,0,1,2.708-6.272c.6-1.233,1.181-2.658.591-3.967-.67-1.485-2.486-2.1-5.1-1.724a41.937,41.937,0,0,0-24.634,13c-.88.963-1.153,1.828-.814,2.569a2.027,2.027,0,0,0,1.023.942,4.817,4.817,0,0,0,3.476.143c-.279.333-.544.679-.793,1.042a8.945,8.945,0,0,0-1.628,4.368c-3.03,1.342-7.706.971-13.922-1.123a.5.5,0,0,0-.488.1.5.5,0,0,0-.163.47,9.2,9.2,0,0,0,4.231,6.574c3.037,1.821,7.427,1.96,12.726.407a9.466,9.466,0,0,0,.2,3.27l-3.532-.079a.5.5,0,0,0-.51.489.5.5,0,0,0,.489.511l3.171.071a4.439,4.439,0,0,1-1.735,2.753,8.538,8.538,0,0,1-3.718,1.5.5.5,0,0,0-.4.584.5.5,0,0,0,.49.408.491.491,0,0,0,.094-.009,9.52,9.52,0,0,0,4.145-1.69,6,6,0,0,0,1.083-1.09,2.4,2.4,0,0,1-1.078,1.647,5.983,5.983,0,0,1-2.156.818.5.5,0,0,0-.384.594.5.5,0,0,0,.488.4.535.535,0,0,0,.1-.011,7.789,7.789,0,0,0,2.084-.723.5.5,0,0,0,.485.419h.023a5,5,0,0,0,3.776-2.156,7.752,7.752,0,0,0,1-2.244,14.354,14.354,0,0,0,2.6,3.481,4.65,4.65,0,0,0,3.1,1.54,2.411,2.411,0,0,0,1.131-.272,3.663,3.663,0,0,0,1.26-1.241,14.531,14.531,0,0,0,2.019-4.651,22.4,22.4,0,0,0,2.363.132,26.571,26.571,0,0,0,3.887-.3,3.133,3.133,0,0,0,.065,1.526,2.537,2.537,0,0,0,2,1.849,3.406,3.406,0,0,0,2.484-1.034c.161-.126.318-.25.475-.363a5.6,5.6,0,0,0,1.183,2.632,3.266,3.266,0,0,0,2.353,1.092,2.334,2.334,0,0,0,1.331-.4c.84-.57,1.26-1.619,1.284-3.206.009-.655-.031-1.274-.07-1.873a8.306,8.306,0,0,1,.315-3.726c.815-.339,1.473-.61,1.838-.709a8.132,8.132,0,0,0,1.058.04c.08.008.161.021.239.021a1.774,1.774,0,0,0,.52-.082,5.41,5.41,0,0,0,1.555-.411.129.129,0,0,0,.021,0,2.589,2.589,0,0,1,2.614.535.5.5,0,0,0,.327.122.482.482,0,0,0,.125-.016.5.5,0,0,0,.344-.311A4.634,4.634,0,0,0-148,186.413Zm-37.515,11.723a4.047,4.047,0,0,1-2.589,1.68,3.576,3.576,0,0,0,.7-.886.457.457,0,0,0,.15-.032,7.673,7.673,0,0,0,2.17-1.524A5.106,5.106,0,0,1-185.515,198.136Z" transform="translate(363 -143)" fill="#ec5a5f"/>
    <path id="Path_912" data-name="Path 912" d="M0,0H105V105H0Z" transform="translate(134.224 -15.161)" fill="none"/>
  </g>
</svg>
