<svg xmlns="http://www.w3.org/2000/svg" width="105" height="105" viewBox="0 0 105 105">
  <g id="Group_436" data-name="Group 436" transform="translate(-204.585 15.161)">
    <g id="Group_425" data-name="Group 425" transform="translate(344 -152)">
      <path id="Path_911" data-name="Path 911" d="M-57.016,169.113a5.55,5.55,0,0,0-.579-2.159c-.649-1.162-1.943-1.936-3.955-2.365A20.4,20.4,0,0,0-81.9,172.531a32.731,32.731,0,0,1,.574-3.74l.093-.416a8.556,8.556,0,0,0,.26-3.981,5.832,5.832,0,0,0-4.087-3.911,14.729,14.729,0,0,0-5.546-.328c-4.872.38-11.121,1.236-16.234,4.505-1.485.949-3.94,2.949-3.7,5.669a1.908,1.908,0,0,0,.507,1.248,2.291,2.291,0,0,0,2.373.239c.994-.314,1.979-.669,2.947-1.061a7.815,7.815,0,0,0-1.064,2.019,2.815,2.815,0,0,0-.174,1.531,1.88,1.88,0,0,0,1.02,1.3,3.661,3.661,0,0,0,2.242.243,18.511,18.511,0,0,0-.433,9.5c.522,3.022.981,5.232,2.483,7.217l-.007.006c-.78.969-8.372,2.117-16.118-.494a.5.5,0,0,0-.488.1.5.5,0,0,0-.163.47c.585,3.142,1.906,5.379,3.927,6.649,3.636,2.283,8.63.93,11.613.12.551-.149,1.054-.285,1.443-.368a10.986,10.986,0,0,0,.226,3.64l-3.539-.079a.548.548,0,0,0-.512.488.5.5,0,0,0,.489.512l3.171.071a4.441,4.441,0,0,1-1.734,2.754,8.583,8.583,0,0,1-3.719,1.5.5.5,0,0,0-.4.584.5.5,0,0,0,.49.408.5.5,0,0,0,.094-.009,9.515,9.515,0,0,0,4.144-1.69,5.984,5.984,0,0,0,1.084-1.091,2.392,2.392,0,0,1-1.078,1.648,5.982,5.982,0,0,1-2.155.817.5.5,0,0,0-.386.593.5.5,0,0,0,.488.4.527.527,0,0,0,.1-.011,7.726,7.726,0,0,0,2.085-.723.494.494,0,0,0,.485.42h.024a5,5,0,0,0,3.775-2.156,8.786,8.786,0,0,0,1.164-2.832,2.613,2.613,0,0,0,.747.119,2.291,2.291,0,0,0,1.043-.243,7.113,7.113,0,0,0,.879-.584c.422-.31,1.3-.952,1.57-.822a.5.5,0,0,0,.562-.1,18.791,18.791,0,0,0,7.146,1.33c6.248,0,12.266-2.515,15.5-3.865.893-.373,1.612-.674,2-.779a8.044,8.044,0,0,0,1.159.044,2.583,2.583,0,0,0,.431.038,1.831,1.831,0,0,0,.689-.125.468.468,0,0,0,.084-.055,5.111,5.111,0,0,0,.649-.2.489.489,0,0,0,.3-.02,2.73,2.73,0,0,1,2.648.631.5.5,0,0,0,.328.122.482.482,0,0,0,.125-.016.5.5,0,0,0,.343-.311,4.625,4.625,0,0,0-.7-4.382,8.693,8.693,0,0,0,.118-1.14c-.332-4.712-5.272-4.541-8.881-4.408a25.651,25.651,0,0,1-2.709.011.418.418,0,0,0,0-.05c-.272-1.865.308-7.242,2.967-12.124a1.742,1.742,0,0,0,1.126.855,2.9,2.9,0,0,0,2.829-1.355,11.228,11.228,0,0,0,.628-1c.1-.177.2-.35.3-.516l.412,1.219a6.952,6.952,0,0,0,1.131,2.32,2.841,2.841,0,0,0,2.121,1.07,2.106,2.106,0,0,0,.507-.061c.963-.237,1.671-1.077,2.166-2.567A19.706,19.706,0,0,0-57.016,169.113Zm-40.668,33.795a2.044,2.044,0,0,0,.442.7,6.568,6.568,0,0,1-2.387,2.435c0-.142.007-.283,0-.425s-.01-.282,0-.422a6.88,6.88,0,0,1,.3-1.763A10.3,10.3,0,0,0-97.684,202.908Zm-.429,3.636a4.045,4.045,0,0,1-2.59,1.681,3.58,3.58,0,0,0,.7-.886.469.469,0,0,0,.15-.032A7.549,7.549,0,0,0-97.7,205.82,5.112,5.112,0,0,1-98.113,206.544Z" fill="#ec5a5f"/>
    </g>
    <rect id="Rectangle_63" data-name="Rectangle 63" width="105" height="105" transform="translate(204.585 -15.161)" fill="none"/>
  </g>
</svg>
