<svg xmlns="http://www.w3.org/2000/svg" width="105" height="105" viewBox="0 0 105 105">
  <g id="Group_434" data-name="Group 434" transform="translate(-64.785 15.161)">
    <g id="Group_423" data-name="Group 423" transform="translate(372 -124)">
      <path id="Path_909" data-name="Path 909" d="M-226.417,167.687a8.82,8.82,0,0,0,.118-1.137c-.332-4.713-5.268-4.539-8.88-4.408a13.625,13.625,0,0,1-3.478-.13,26.2,26.2,0,0,0-4.368-.466,4.715,4.715,0,0,0-1.674-.014c-9.314.136-19.763,3.494-20.3,3.668a.488.488,0,0,0-.2.045c-4.073,1.914-13.55.735-17.353-.544a.5.5,0,0,0-.487.1.5.5,0,0,0-.163.47c.715,3.839,3.042,6.769,6.224,7.838a8.677,8.677,0,0,0,2.776.447,12.28,12.28,0,0,0,6.887-2.4,23.667,23.667,0,0,0-2.87,9.812c-.122,1.956.533,3.317,1.752,3.642a2.15,2.15,0,0,0,1.652-.264,17.857,17.857,0,0,0,.28,6.327,6.414,6.414,0,0,0,2.556,4.279,4.1,4.1,0,0,0,3.877.146,4.418,4.418,0,0,0,1.913-1.622c1.362,3.992,3.012,7.613,6.4,9.556a3.387,3.387,0,0,0,1.656.531c.07,0,.139,0,.21-.009,1.776-.174,2.443-2.3,2.311-4.205a46.5,46.5,0,0,0-.844-5.581c-.118-.613-.237-1.226-.347-1.839a67.531,67.531,0,0,1-.926-7.846,6.407,6.407,0,0,0,2.045,3.675,2.949,2.949,0,0,0,2.747.3,2.421,2.421,0,0,0,.366-.187l.212,3.72c.138,2.436,1.058,3.894,2.523,4a3.18,3.18,0,0,0,2.742-1.814c.1-.154.19-.313.284-.472a8.317,8.317,0,0,1,.684-1.048c.431,3.771,1.231,7.573,3.565,10.473a6.035,6.035,0,0,0,3.638,2.407,3.466,3.466,0,0,0,.562.045,3.316,3.316,0,0,0,3.274-2.213,4.578,4.578,0,0,0,.049-1.788,48.723,48.723,0,0,0-1.774-7.646,36.374,36.374,0,0,1-1.881-9.678,17.974,17.974,0,0,1,1.368-6.992.5.5,0,0,0-.127-.563,31.232,31.232,0,0,1-3.747-4.057,5.888,5.888,0,0,1,.7-.279,8.293,8.293,0,0,0,1.146.041,2.612,2.612,0,0,0,.442.04,1.826,1.826,0,0,0,.688-.125.484.484,0,0,0,.087-.057,5.379,5.379,0,0,0,.527-.159.5.5,0,0,0,.313-.018,2.9,2.9,0,0,1,2.754.585.5.5,0,0,0,.327.122.48.48,0,0,0,.125-.015.5.5,0,0,0,.345-.312A4.637,4.637,0,0,0-226.417,167.687Z" fill="#ec5a5f"/>
    </g>
    <rect id="Rectangle_61" data-name="Rectangle 61" width="105" height="105" transform="translate(64.785 -15.161)" fill="none"/>
  </g>
</svg>
