<svg xmlns="http://www.w3.org/2000/svg" width="173.867" height="50.761" viewBox="0 0 173.867 50.761">
  <path id="Path_881" data-name="Path 881" d="M325.926,704.042c23.932-.91,48.546.788,72.53,2.511,11.983.422,23.932-.911,35.881-2.243,6.91-1.141,32.326,9.308,36.648,4.753l.63-.024c4.729-15.986-9.023-10.194-13.5-13.537-7.678-5.855-4.157-19.161-10.627-27.7-9.7-12.8-19.523.742-24.338,12.341-3.607,8.919.767,7-7.386,9.063-3.761,1.021-7.764-10.243-8.153,2.066-8.273-4.076-22.06-.039-31.558-2.312-3.149.12-11.3,2.186-13.873-.351-4.495-4.22-5.382-17.358-11.783-22.383-19.272-18.586-11.863,5.72-22.346,17.534-8,9.964-22.009,2.594-29.326,15.166,6.436,6.78,15.762.278,23.406,4.378Z" transform="translate(-298.724 -659.458)" fill="rgba(255,255,255,0.2)"/>
</svg>
