<svg xmlns="http://www.w3.org/2000/svg" width="208.201" height="98.271" viewBox="0 0 208.201 98.271">
  <g id="Group_412" data-name="Group 412" transform="translate(-265.938 -220.474)">
    <path id="Path_863" data-name="Path 863" d="M473.768,300.724a17.517,17.517,0,0,0-1.78-3.934c-4.416-7.169-11.663-10.03-19.435-10.892,6.082-7.42,10.117-17.453-1.749-18.471a7.881,7.881,0,0,0-2.665.56,18.016,18.016,0,0,0-.906-2.221c-1.648-3.359-4.193-6.018-7.149-6.488a3.571,3.571,0,0,0-.6-.039c-.918-12.725-4.871-22.339-14.081-30.656-12.766-10.33-29.608-12.321-40.8,3.119-5.178,6.974-8.737,18.129-9.377,29.148a9.5,9.5,0,0,0-2.1-3.557c-5.626-5.191-9.529,3.129-10.462,12.278a29.157,29.157,0,0,0-4.575-8.037c-4.477-5.259-10.288-5.525-15.787-3.833a9.623,9.623,0,0,0-3.581,2.067c-3.7,2.738-5.617,8.362-7.373,14.125a12.414,12.414,0,0,0-7.151.925,47.615,47.615,0,0,0-5.022-8.622c-8.3-8.384-22.57-6.962-27.994,5.958a29.977,29.977,0,0,0-1.775,14.472,25.68,25.68,0,0,0-1.14,4.729,33.529,33.529,0,0,0-6.457.289,23.823,23.823,0,0,0-8.721,2.956,22.553,22.553,0,0,0-6.628,5.919,3.507,3.507,0,0,0-.292,3.159,14.154,14.154,0,0,0,6.446,7.581,33.062,33.062,0,0,0,11.056,4.142,60.794,60.794,0,0,0,11.69,1.218q1.939.014,3.878-.139c22.453,9.862,44.434-15.865,66.938-12.636,13.007,1.782,25.081,9.4,38.208,6.906,11.594-2.576,21.376-9,33.247-7.813C443.537,308.219,478.076,315.526,473.768,300.724Z" fill="rgba(255,255,255,0.2)"/>
  </g>
</svg>
