<?xml version="1.0" standalone="no"?>
<!DOCTYPE svg PUBLIC "-//W3C//DTD SVG 20010904//EN"
 "http://www.w3.org/TR/2001/REC-SVG-20010904/DTD/svg10.dtd">
<svg version="1.0" xmlns="http://www.w3.org/2000/svg"
 width="129.000000pt" height="129.000000pt" viewBox="0 0 129.000000 129.000000"
 preserveAspectRatio="xMidYMid meet">
<metadata>
Created by potrace 1.11, written by Peter Selinger 2001-2013
</metadata>
<g transform="translate(0.000000,129.000000) scale(0.100000,-0.100000)"
fill="#000000" stroke="none">
<path d="M550 1216 c-97 -29 -285 -127 -318 -166 -26 -31 -73 -133 -103 -223
-36 -109 -43 -189 -23 -243 8 -22 18 -48 21 -59 17 -52 108 -218 135 -244 16
-15 47 -37 69 -46 33 -16 37 -20 26 -34 -10 -14 -10 -14 4 -4 12 10 25 9 62
-5 26 -10 44 -22 40 -27 -5 -4 -3 -5 3 -2 6 4 26 2 45 -4 30 -10 57 -16 82
-18 5 -1 5 -5 2 -11 -3 -5 -1 -10 4 -10 6 0 11 3 11 8 0 4 18 6 39 4 24 -3 62
4 96 17 31 12 61 18 67 15 7 -4 8 -2 4 4 -4 7 -1 12 7 12 34 0 224 117 233
143 3 10 11 14 17 11 7 -4 9 -4 5 0 -10 12 13 67 25 59 5 -3 7 -1 4 4 -4 6 4
36 17 66 14 30 22 58 19 61 -4 3 -2 6 4 6 5 0 10 6 10 13 0 6 8 38 18 71 12
40 15 74 11 107 -11 83 -101 275 -162 349 -15 17 -47 42 -73 54 -46 24 -208
84 -246 92 -58 12 -115 12 -155 0z"/>
</g>
</svg>
