<svg xmlns="http://www.w3.org/2000/svg" width="503.49" height="749.291" viewBox="0 0 503.49 749.291">
  <g id="Group_408" data-name="Group 408" transform="translate(0)">
    <g id="Group_327" data-name="Group 327" transform="translate(0 0)">
      <g id="Group_318" data-name="Group 318" transform="translate(0 244.878)">
        <g id="Group_317" data-name="Group 317">
          <path id="Path_783" data-name="Path 783" d="M798.422,455.037c0,105.494-85.519,191.007-191,191.007-105.506,0-191.019-85.513-191.019-191.007s85.513-191.019,191.019-191.019C712.9,264.018,798.422,349.543,798.422,455.037Z" transform="translate(-416.404 -141.631)" fill="#e0e5e9"/>
          <rect id="Rectangle_50" data-name="Rectangle 50" width="95.496" height="78.935" transform="translate(143.259 49.471)" fill="#e0e5e9"/>
          <rect id="Rectangle_51" data-name="Rectangle 51" width="126.07" height="49.471" transform="translate(127.966)" fill="#e0e5e9"/>
          <g id="Group_316" data-name="Group 316" transform="translate(304.745 100.086)">
            <rect id="Rectangle_52" data-name="Rectangle 52" width="55.458" height="53.336" transform="translate(0 61.857) rotate(-44.995)" fill="#e0e5e9"/>
            <rect id="Rectangle_53" data-name="Rectangle 53" width="23.478" height="70.428" transform="translate(33.177 16.6) rotate(-44.996)" fill="#e0e5e9"/>
          </g>
        </g>
      </g>
      <g id="Group_320" data-name="Group 320" transform="translate(26.519 336.775)">
        <g id="Group_319" data-name="Group 319">
          <path id="Path_784" data-name="Path 784" d="M420.651,298.369a166.162,166.162,0,0,0,328.994,0Z" transform="translate(-420.651 -53.389)" fill="#ee5748"/>
          <path id="Path_785" data-name="Path 785" d="M479.616,310.488a23.974,23.974,0,1,1-23.965-23.971A23.968,23.968,0,0,1,479.616,310.488Z" transform="translate(-362.877 -115.541)" fill="#ee5748"/>
          <path id="Path_786" data-name="Path 786" d="M463.336,269.082a9.947,9.947,0,1,1-9.953-9.947A9.939,9.939,0,0,1,463.336,269.082Z" transform="translate(-301.133 -259.135)" fill="#ee5748"/>
          <path id="Path_787" data-name="Path 787" d="M525.536,326.55a33.559,33.559,0,1,1-33.562-33.555A33.558,33.558,0,0,1,525.536,326.55Z" transform="translate(-222.593 -81.57)" fill="#ee5748"/>
          <path id="Path_788" data-name="Path 788" d="M476.872,294.767a14.383,14.383,0,1,1-14.374-14.38A14.374,14.374,0,0,1,476.872,294.767Z" transform="translate(-276.68 -147.688)" fill="#ee5748"/>
        </g>
      </g>
      <g id="Group_322" data-name="Group 322" transform="translate(104.663 599.819)">
        <g id="Group_321" data-name="Group 321">
          <path id="Path_789" data-name="Path 789" d="M479.759,324.571a23.3,23.3,0,1,1-23.29-23.31A23.286,23.286,0,0,1,479.759,324.571Z" transform="translate(-433.166 -301.262)" fill="#e0e5e9"/>
          <path id="Path_790" data-name="Path 790" d="M471.77,323.788a10.937,10.937,0,1,1-10.939-10.94A10.939,10.939,0,0,1,471.77,323.788Z" transform="translate(-345.427 -240.504)" fill="#e0e5e9"/>
          <path id="Path_791" data-name="Path 791" d="M488.253,318.763a14.942,14.942,0,1,1-14.936-14.942A14.938,14.938,0,0,1,488.253,318.763Z" transform="translate(-300.999 -287.837)" fill="#e0e5e9"/>
        </g>
      </g>
      <g id="Group_324" data-name="Group 324" transform="translate(358.354 266.966)">
        <g id="Group_323" data-name="Group 323">
          <path id="Path_792" data-name="Path 792" d="M505.294,273.594a7.824,7.824,0,1,1-7.818-7.83A7.829,7.829,0,0,1,505.294,273.594Z" transform="translate(-390.671 -154.563)" fill="#ee5748"/>
          <path id="Path_793" data-name="Path 793" d="M505.1,269.868a15.651,15.651,0,1,1-15.648-15.648A15.653,15.653,0,0,1,505.1,269.868Z" transform="translate(-473.795 -215.101)" fill="#ee5748"/>
          <path id="Path_794" data-name="Path 794" d="M538.611,275.335a27.386,27.386,0,1,1-27.387-27.38A27.405,27.405,0,0,1,538.611,275.335Z" transform="translate(-421.128 -247.955)" fill="#ee5748"/>
        </g>
      </g>
      <g id="Group_326" data-name="Group 326" transform="translate(15.217)">
        <g id="Group_325" data-name="Group 325">
          <path id="Path_795" data-name="Path 795" d="M863.318,294.241H749.47a22.257,22.257,0,1,1,0-44.514h7a22.263,22.263,0,1,0,0-44.526H445.214a22.263,22.263,0,1,0,0,44.526H547.6a22.257,22.257,0,0,1,0,44.514,22.266,22.266,0,0,0,0,44.533h16.06a22.263,22.263,0,1,1,0,44.527H501.729a22.26,22.26,0,1,0,0,44.52h26.818a22.256,22.256,0,0,1,22.285,22.26h44.527a22.254,22.254,0,0,1,22.273-22.26h63.746a22.26,22.26,0,0,0,0-44.52H664.363a22.263,22.263,0,1,1,0-44.527H863.318a22.266,22.266,0,0,0,0-44.533Z" transform="translate(-397.304 -205.2)" fill="#ee5748"/>
          <path id="Path_796" data-name="Path 796" d="M441.114,233.723a22.26,22.26,0,1,0,22.254,22.26A22.266,22.266,0,0,0,441.114,233.723Z" transform="translate(-418.841 -55.623)" fill="#ee5748"/>
          <path id="Path_797" data-name="Path 797" d="M507.221,249.726a22.263,22.263,0,1,0-22.266-22.272A22.271,22.271,0,0,0,507.221,249.726Z" transform="translate(-72.134 -205.2)" fill="#ee5748"/>
        </g>
      </g>
    </g>
  </g>
</svg>
