<svg xmlns="http://www.w3.org/2000/svg" xmlns:xlink="http://www.w3.org/1999/xlink" width="1484" height="1027" viewBox="0 0 1484 1027">
  <defs>
    <clipPath id="clip-path">
      <rect id="Rectangle_54" data-name="Rectangle 54" width="1484" height="1027" transform="translate(5055 -321)" fill="#fff" stroke="#1e5a9b" stroke-width="2"/>
    </clipPath>
  </defs>
  <g id="Mask_Group_6" data-name="Mask Group 6" transform="translate(-5055 321)" clip-path="url(#clip-path)">
    <path id="Path_854" data-name="Path 854" d="M522.516,748.162c-4.3-24.068,3.035-47.957-.987-72-5.069-30.3-17.956-57.961-29.96-85.958-4.153-3.492-8.4-14.3-15.651-7.1.607-3.944-.794-8.576-1.794-12.279-4.832-.3-18.121,6.9-21.519,4.257-6.953-5.419,3.429-14.951,7.926-17.042-10.42-1.446-3.766-7.593-8.051-12.485-7.5-8.567-10.993-8.786-23.813-10.917-18.743-3.114-28.282-10.234-44.793-14.318-1.578-20.941-9.415-7.238-18.7-9.5s-20.363-9.793-25.649-18.619c7.527-7.154,20.587-4.023,29.906-9.145-2.968-1.857-3.9-5.577-9.289-6.732,19.139-11.37,29.823-15.31,10-29.421-8.338-5.936-19.86-10.926-24.016-21.663-14.3,7.053-16.464-14.194-25.033-15.944-12.055-2.459-15.708,10.687-28.232,4.831-11.067-5.173-15.92-24.688-3.2-31.28,10.091-5.229,19.817,2.79,29.121-9.01,5.438-6.9,6.314-16.884,5.127-25.205-2.189.3-5.182-.754-7.351-.448.346-6.118.148-12.792-2.072-18.265a19.79,19.79,0,0,0-7.278,0c-3.274,10.73-23.757,11.454-20.724-.739.935-3.757,12.842-1.32,12.776-8.928-.046-5.523-9.347-7.69-12.67-9.337-7.917-3.925-25.529-10.713-34.067-11.42-11.594-.959-15.209,10.4-25.144,8.01,1.737-15.4-14.625-15.255-11.189-29.49,4.179-17.319-16.255-16.247-26.479-18.745,4.949-12.568-15.794-18.164-24.674-19.91,3.581-1.744,6.132-6.277,9.137-8.238-5.953-9.358-19.741-8.334-29.962-7.869-21.835,1-49.553,1.02-70.4,6.258,8.934,12.74.968,37.235,4.7,51.714,5.925,22.994,21.959,40.847,33.53,63.88,11.293,22.474,28.49,39.954,36.412,64.523,9.328,28.928-12.366,59.446-5.927,89.113,7.915,36.47,15.112,57.442-.9,89.132-21.541,42.628-8.63,93.1,14.1,136.368,21.576,41.065,49.134,57.944,94.34,48.451,28.986-6.088,56.435-18.6,86.371-20.595,32.293-2.15,63.347,9.35,95.469,9.715,31.024.352,61.425-4.023,92.307-4.109C523.675,754.583,523.1,751.415,522.516,748.162Z" transform="translate(5114.486 -85.919)" fill="#19dde9" stroke="#1e5a9b" stroke-miterlimit="10" stroke-width="2"/>
    <path id="Path_855" data-name="Path 855" d="M812.872,240.264c-16.766,0-38.131-3.64-54.28.53-8.165,2.107-15.483,11.63-28.849,12.9,1.911,3.194,1.183,8.3,4.479,12.094-16.4,6.993-28.118,24.811-43.593,26.222-.952-3.535-2.526-6-3.51-9.522-13.935-1.8-19.588,9.834-18.214,22.644-25.353,5.166-11.794-46.32-43.972-43.454-24.131,2.151,18.334,30.81,10.037,51.284-14.986,3.02-20.758-9.717-18.273-22.891-13.788,6.434-10.832,15.3-4.877,26.022.456.822,21.919,24.335,20.8,23.494,16.507,12.394,40.332,10.5,33.674,41.238-9.141.331-18.756.561-27.925.663,1.615,6.851-.818,14.549,1.942,20.75-11.487,4.229-26.921,1.687-38.375,4.77-1.791-7.414-7.447-10.006-10.948-15.59-9.286,3.412-16.353,9.012-20.563,17.8,9.837,10.063,23.35,13.648,35.557,21.026-12.241,2.453-85.269,10.9-85.317,29.421-.041,14.585,44.768,13.09,56.542,12.866-14.437,3.572-29.008.283-40.89,11.278,12.566,5.575,31.271,7.769,46.161,9.6-8.865,3.922-31.971,5.651-30.749,18.33C552.92,524.1,574.654,520.3,583,524.217c-41.13,2.3-56.824,33.448-95.982,11.348-.846,2.542-.1,4.734-.822,7.306-21.317-32.532-38.042,1.555-23.948,13.177-10.7,5.371-15.027,16.719-15.225,28.334-18.454,2.679-40.486,27.857-40.782,46.852-.446,28.467,29.121,29.447,48.96,41.863,25.451,15.929,32.43,48.6,54.6,66.163,21.411,16.962,58.375,10.293,83.686,10.083,103.144-.852,182.712-59.89,260.253-121.789,60.89-48.607,81.97-103.337,96.839-178.768,10.328-52.4,23.453-93.52-14.548-136.964-27.825-31.813-51.48-36.574-90.724-40.234-17.919-1.672-34.235-3.648-45.487-18.273" transform="translate(5397.551 -72.444)" fill="#19dde9" stroke="#1e5a9b" stroke-miterlimit="10" stroke-width="2"/>
    <path id="Path_856" data-name="Path 856" d="M365.11,504.265c.2-3.494.574-6.821.568-9.261-.024-12.346,1.065-24.624-2.224-36.7-2.091-7.675-5.051-14.166-5.858-25.8-1.144-16.475-18.443-45.778-6.38-59.235,15.475,11.254,10.282,52.973,16.877,69.938,4.349,11.191,10.55,14.1,12.7,27.375,1.707,10.524-.156,22.018-1.831,32.461-.324,2.018-2.925,8.062.135,8.71,2.229.472,5.353-5.012,5.949-6.612,1.74-4.668.02-8.625-.046-13.211-.133-9.132,3.831-15.842.935-25.27-1.35-4.4-1.629-8.732-2.533-13.246-1.018-5.092-3.224-7.217-5.268-11.693-4.346-9.51,2.181-22.3,1.222-32.541-.276-2.942-2.542-9.874,2.361-10.359,4.107-.407,4.407,4.9,4.347,7.676a141.7,141.7,0,0,1-2.226,21.25c-.526,2.918-2.013,5.431-1.474,8.569.663,3.859,3.631,5.023,5.545,7.332,5,6.027,3.971,15.153,5.421,22.3,1.005,4.957-1.946,22.73,3.623,24.709,5.43,1.929,8.591-6.914,8.628-10.7.048-5.053-3.3-9.443-4.621-14.349-1.631-6.055-1.585-12.116-1.305-18.256.333-7.28-1.951-11.778-3.466-18.686-.787-3.588-1.939-9.408,1.346-11.874,3.092-2.324,5.279-.581,6.61,2.633,1.535,3.7-.981,7.441-1.089,11.094-.105,3.507,1,5.225,1.974,8.423,1.337,4.386-1.831,23.929,4.784,23.84,8.265-.111,1.8-23.566,1.583-27.845-.326-6.532-2.4-12.765-2.674-19.275-.25-6.055,1.178-11.789,1.622-17.756.4-5.4-1.515-18.145,6.336-19.408,4.827,9.274-3.8,17.03-3.75,26.251.048,8.108,3.022,16.175,3.185,24.268.1,4.71.106,8.345,2.348,12.446,2.37,4.336,4.42,5.969,4.5,11.439.135,8.695-.361,16.292.517,24.755.268,2.576.191,11.409,2.637,13.059,3.668,2.476,6.516-3.438,7.46-6.125,1.846-5.244.65-9.25-.735-14.042-1.442-4.983-1.128-8.693-.885-13.975a104.947,104.947,0,0,0-1.2-19.1c-.974-7.2-.424-13.781-.924-20.876-.157-2.207-4.09-19.528,3.7-15.123,3.69,2.085,1.574,16.166,1.439,19.812-.274,7.4,2.883,14.037,4.2,21.641,1.1,6.3.594,12.637,1.714,18.562,1.035,5.479.626,8.935-.383,14.472-.883,4.86-2.924,22.591,6.327,16,6.236-4.442,6.464-10.882,6.156-17.29a200.116,200.116,0,0,1,.579-24.646c.328-4.423-1.074-8.517-1.592-12.848-.65-5.44.909-7.415,2.107-12.411,1.163-4.853.307-9.18-.555-13.79-.483-2.585-2.179-9.9,1.6-11.476,4.688-1.959,4.053,9.358,4.216,12.561.344,6.784,2.918,15.155.948,21.63-.928,3.049-2.72,3.712-2.529,7.486s2.416,5.977,3.309,9.48c1.15,4.512-1.074,8.138-1.226,12.57-.115,3.325,1,6.173,1.6,9.321,1.713,9.008-5.98,20.01-11.335,27.708-2.874,4.129-4.36,8.815-7.965,12.35-8.045,7.891-20.319,11.909-31.352,12.7-11.467.826-31.1,2.557-41.395-4.266C364.938,518.076,364.727,510.87,365.11,504.265Z" transform="translate(5347.078 42.071)" fill="#19dde9" stroke="#1e5a9b" stroke-miterlimit="10" stroke-width="2"/>
    <path id="Path_857" data-name="Path 857" d="M-27.854,251.755c23.957-6.019,55.807-6.049,80.9-7.191,11.744-.537,27.59-1.713,34.428,9.039-3.451,2.255-6.384,7.462-10.5,9.467,10.206,2.007,34.041,8.438,28.355,22.88,11.748,2.868,35.229,1.637,30.425,21.539-3.947,16.356,14.853,16.194,12.857,33.887,11.418,2.75,15.57-10.308,28.9-9.2,9.809.813,30.047,8.613,39.145,13.124,3.82,1.892,14.5,4.383,14.559,10.728.076,8.741-13.607,5.943-14.681,10.259-3.485,14.009,20.052,13.177,23.815.848a22.792,22.792,0,0,1,8.362,0c2.553,6.29,2.781,13.961,2.385,20.989,2.49-.35,5.93.863,8.445.515,1.363,9.561.357,21.037-5.893,28.964-10.691,13.559-21.865,4.344-33.461,10.352-14.616,7.575-9.039,30,3.675,35.946,14.394,6.729,18.59-8.378,32.443-5.551,9.846,2.009,12.337,26.425,28.766,18.321,4.777,12.335,18.017,18.071,27.6,24.892,22.776,16.214,10.5,20.741-11.494,33.805,6.188,1.328,7.264,5.6,10.676,7.736-10.709,5.888-25.718,2.287-34.365,10.509,6.073,10.141,18.791,18.786,29.473,21.394,10.663,2.605,19.669-13.14,21.482,10.922,18.971,4.694,29.932,12.872,51.473,16.453,14.729,2.448,18.739,2.7,27.36,12.542,4.923,5.623-2.722,12.687,9.252,14.348-5.169,2.4-17.1,13.355-9.108,19.582,3.9,3.042,19.173-5.24,24.726-4.892,1.148,4.255,2.759,9.578,2.063,14.112,10.4-10.333,15.423,11.6,21.569,9.152,15.907-6.336.661-14.266-3.823-22.237s-9.2-16.149-3.4-22.417c10.956-11.82,14.492,1.672,19.412,7.228,3.246,3.664,3.5,20.584,14.818,13.618s-3.1-16.653-5.521-23.107c-3.66-9.739-2.018-18.171-3.5-28.353-1.472-10.1-4.871-16.54-7.277-26.342-2.864-11.659.876-23.937.178-35.287-.517-8.421-6.616-15.46-7.4-23.572-.343-3.559.356-4.655-2.148-7.732-2.113-2.594-5.112-3.944-5.955-7.489-1.1-4.646,3.079-7.578,2.442-11.844,5.975-.47,5.029,12.613,5.832,15.681,1.9,7.252,8.973,8.689,7.473,16.76-.389,2.094-1.627,4.89-.594,7.09s4.1,4.081,5.321,6.693a27.65,27.65,0,0,1,2.15,14.3c-.593,6.23-2.975,12.07.293,18.077,1.792,3.3,3.2,4.436,3.279,8.4.057,2.962-1.768,7.845.544,10.052,2.6,2.487,4.71-.913,6.219,3.592,1.333,3.981.018,8.758,1.44,12.9,1.668,4.868,1.5,24.426,11.7,14.872,6.549-6.13-3.333-14.273-3.725-21.035-.37-6.386.081-8.38-4.684-12.761-4.833-4.44-4.375-6.653-5.2-12.507-1.424-10.148-1.283-20.395-2.235-30.834-.567-6.192-4.908-8.1-6.816-13.472-.735-2.068.061-4.023-.3-6.08-.594-3.381-.35-1.829-2.357-4.462-1.5-1.97-2.759-2.537-3.075-5.292-.213-1.84,1.246-3.809.881-5.5-.6-2.777-3.329-8.136-4.966-10.6-2.357-3.546-5.969-3.753-5.9-8.741.044-3.542,2.083-7.5,5.288-6.31,2.381.881,4.22,6.012,5.758,8.076,1.653,2.224,3.1,3.72,3.757,6.551.631,2.724-.835,6.182.026,8.782,1.344,4.053,5.719,4.623,7.143,8.947,1.685,5.116.217,8.352,3.24,12.7a22.851,22.851,0,0,1,3.955,11.022c.8,6.477,1.055,7.251,5.394,11.813,6.821,7.177-2.339,14.105.844,21.707,1.266,3.026,3.725,3.514,4.286,7.262.67,4.484-2.2,9.732.994,13.078.942.985,3.218.691,4.333,2.07,1.061,1.313.631,3.535,1.407,5.008a89.2,89.2,0,0,0,6.066,9.752c1.559,2.172,3.67,3.509,4.631,5.927,1.505,3.786-.9,8.565.9,12.189,1.628,3.268,7.347,7.945,10.043,3.918,1.815-2.711.576-7.451-.683-9.88-.659-1.274-2.105-1.555-2.638-3-.966-2.611,1.111-6.412-.03-8.993-1.972-4.462-5.368-4.273-6.343-9.576-.987-5.368-.365-13.777-2.779-18.589-2.935-5.849-9.03-4.494-5.964-12.479,3.331-8.669,8.171-15.618,4.066-25.209-4.29-10.024-12.241-19.826-4.222-29.917,5.46,1.891,5.584,5.555,5.077,10.924-.672,7.108,3.24,7.467,6.075,13.39,1.866,3.9,2.216,12.148,1.937,16.581-.257,4.075-5.245,9.448-2.574,13.5,2.416,3.664,6.851,2.488,7.943,7.962.561,2.814-.537,5.99-.465,8.852.1,4.131,1.337,5.456,3.251,8.889,2.266,4.066,5.271,8.384,6.753,12.572,1.411,3.983,2.866,8.526,4.823,12.046-.115,3.2,1.94,4.6,4.964,2.379,2.714-1.989.7-5.245.318-7.841-.62-4.221.424-7.112.909-11.148.752-6.282-3.153-9.887-4.875-15.573-1.357-4.477-.565-8.626-.418-13.213.228-7.214-1.216-11.615,1.709-18.562,4.025-9.56,2.17-16.934,2.327-26.934.1-6.475,3.855-11.287,5.771-17.247,1.948-6.056.044-9.145-2.627-14.553-1.739-3.523-3.225-7.423-2.716-11.435.228-1.8,2.97-10.319,5.425-10.189,3.181.167,1.685,8.212,1.37,10.143-.326,2-2.4,6.023-1.8,7.949.291.922,2.866,2.444,3.583,3.4,4.97,6.632,4.7,10.234,1.676,17.74-2.335,5.8-5.333,13.259-3.616,19.589,2.051,7.571,3.727,9.739,1.007,17.629a17.452,17.452,0,0,0-.557,9.315,35.6,35.6,0,0,1,.1,15.39c-.548,3.129-.779,5.686.924,8.441,1.779,2.879,4.857,3.372,5.884,6.836,1.255,4.227.7,12.72.767,17.2.024,1.748-1.218,6.68.035,7.912,4.594,4.512,5.845-4.5,5.9-6.867.128-5.238-1.5-10.254-1.816-15.453-.361-5.932,2.092-11.954,1.4-17.812-.6-5.038-3.857-8.83-4.083-14.15-.292-6.9,2.542-14.081,4.951-20.454.926-2.446,1.4-6.775,4.4-6.951,3.76,6.334-3.112,13.814-2.507,20.626.7,7.9,3.162,14.909,3.155,22.6-.006,7.808,6.092,15.718,4.877,23.67-.578,3.786-3.3,7.621-1.983,11.613.459,1.391,2.326,2.052,2.77,3.346.333.972-.531,3.623.048,4.325,2.813,3.407,5.758-2.161,6.793-4.742,2.407-6,.572-9.343-.5-14.827-.941-4.818,2.031-8.015,3.437-12.509,1.82-5.819,1.383-12.837,1.1-18.884-.25-5.353-1.518-10.65,1.318-15.507,3.764-6.445,8.523-10.424,10.03-18.188,1.085-5.588,1.426-12.335-1.924-17.356-2.683-4.023-5.049-4.786-5.388-10.111-.2-3.174-.452-10.03,3.148-11.778,3.575-1.735,3.633.918,3.614,3.729-.018,3.077-1.755,5.849-.5,8.9,1.224,2.981,4.562,5.214,6.325,7.86,4.955,7.43,6.156,19.091,2.683,27.349-3.364,7.995-8.038,13.274-8.524,22.411-.23,4.318.909,7.191,1.92,11.239,1.263,5.062.1,7.425-1.483,12.159-.689,2.063-2.126,5.379-1.84,7.545.368,2.8,1.735,2.581,2.561,4.7,1.853,4.758.119,7.23-1.179,12.054-1.416,5.256,1.828,11.252-1.757,15.5-1.8,2.129-4.216,2.524-5.749,5.392-1.4,2.624-.383,3.646-.97,6.136-.77,3.27-6.388,9.393-1.739,10.928s6.56-5.742,10.92-3.633c3.044,1.472,2.176,7.027,5.588,8.15,2.005.663,3.609-1.018,5.423-.2s3.875,4.718,5.834,6.01c1.609-.387,1.663-3.064,3.1-4.035,1.294-.874,2.964.237,4.1-.428,3.014-1.763,3.379-3.873,4.808-6.841,2.187-4.54,1.446-3.631,5.407-3.092,3.385.461,2.861,1.613,6.438.135.148,1.02,1.007,1.816.931,2.985,2.453-2.094,7.334-7.4,9.852-1.5-1.233-5.007,6.4-8.376,9.441-4.9-1.9-6.492,6.271-2.333,8.058.6-.454-2.546.246-6.627,3.011-7.265-1.268-4.257-2.727-9.384,3.631-9.076-5.949-7.684,7.651-16.669,6.034-6.7,1-1.679,1.787-1.913,3.144-.829.987-.978,2.126-.737,2.99-1.2a46.441,46.441,0,0,1,1.011,5.647c3.716-4.6,7.032-5.453,11.2-1.178.3-.256.674-.676.976-.931a4.626,4.626,0,0,1,2.163,3.77c-.126-5.316,6-3.559,8.089-.65,3.157-3.535,8.312-9.213,9.967-.989,2.316-.091,3.8,1.757,3.518,4.118,3.275.006,9.4-3.675,11.565-5.814,6.316-6.232,11.511-20.173,22.976-18.41.5,4.007-1.75,8.336-3.392,11.881,3.94-3.183,9.521-10.463,15.1-10.522-.026,2.738-1.511,5.51-2.6,8,3.1-1.529,7.406-5.955,11.122-5.738,4.444.257,3.059,3.283,3.283,7.106,9.748-2.885,19.441-18.264,30.858-16.253,14.279,2.516-14.333,34.757-17.443,38.742,3.079-1.474,8.893-3.057,9.069,2.231,3.2-3.842,9.472-6.373,13.09-1.379.946-.911,3.336-2.951,4.82-2.716,4.388.7,2.072,6.993,4.06,9.561,2.005,2.59,1.813.276,5.379.842,1.853.294,2.8.055,3.25,2.177,4.536-3.659,4.944,4.483,7.527,6.28,1.255.872,3.485-.041,5.066.972a7.307,7.307,0,0,1,3.025,5.4c10.97-6.058-1.109-15.957-2.618-22.691-1.352-6.029,3.264-11.774,2.648-18.052-.591-6.043-5.031-10.946-6.806-16.653-1.448-4.659-2.818-15.522,1.809-19.424,3.259-2.748,4.681-1.274,6,1.892,2.666,6.4-.124,12.085,4.264,18.3,5.377,7.615,6.929,11.672,3.572,20.224a24.672,24.672,0,0,0-1.676,11.037c.459,5.014,2.859,5.682,5.64,9.415,3.011,4.04,1.028,24.7,10.907,16.462,3.3-2.748,3.25-11.255,1.474-14.788-1.737-3.451-5.8-5.162-7.706-8.543-4.516-8,1.7-14.435,2.618-22.45.43-3.74.344-7.184-1.337-10.426-1.531-2.955-3.885-4.66-4.427-8.125-.57-3.642.7-8.1,4.625-9.119,4.9-1.274,4.87,2.276,5.3,6.221.839,7.747-.716,15.868.315,23.439,1.142,8.365,5.253,13.363,10.019,19.812,3.912,5.292,3.136,11.113,3.138,17.408,0,3.662-.526,6.588,1.727,9.628,3.633,4.9,8.21,1.5,9.417-3.588,1.426-6-5.14-12.763-6.1-18.976-.591-3.823,2.057-7.56,1.3-11.146-.787-3.716-5.475-5.506-6.254-9.372-.687-3.407,1.54-7.843,4.979-9.078,4.586-1.648,4.9,1.931,5.818,5.973,1.078,4.742-.326,8.969.318,13.605.618,4.453,4.068,5.8,5,10.034.818,3.731-.23,7.434.868,11.122,1.4,4.707,1.79,5.9.122,10.9-1.278,3.822-3.144,7.447-.144,11.054,2.751,3.307,6.219,3.377,8.595.126,4.153-5.684-1.848-13.252-.944-19.25.563-3.733,1.781-7.678,2.283-11.585.365-2.85-.25-9.245.876-11.726,3.246-7.149,6.677,2.172,6.312,6.288-.691,7.81-5.579,10.034-.909,17.577,3.981,6.429.215,13.4,4.845,20.023,4.558,6.519,6.927,8.515,4.919,16.36-.861,3.366-1.137,5.558.418,8.21,1.613,2.748,5.984,3.957,1.953,8.432,1.574-.791,4.8-3.042,6.651-3.572,1.976-.568,3.314,1.137,5.253-.456,2.54-2.085.937-7.31,2.12-10.309,2.946,1.289,3.653-.968,6.2-1.877,2.857-1.017,5.264.278,7.639-.417,11.7-3.416,6.456-4.12,10.03-11.552.724-1.5-4.6-7.365-3.051-11,2.194-5.168,7.521-4.836,10.15-8.452,7.725-10.624,14.457-17.725.5-30.619,5-1.605,12.955-7.7,17.96-7.767,4.49-.061,10.215,9.2,14.337,7.582,14.149-5.555.694-22.746-2.268-28.938-18.193-38.016-7.556-82.038-15.66-122.283-1.39-6.906-7.164-10.587-5.214-19.512,20.478,2.566,19.038,55.2,21.232,70.285,1.913,13.146,8.593,26.062,10.857,39.506,3.194,18.964,8.43,18.96,19.376,33.739,6.234-35.083-5.7-53.41-14.981-80.875-5.244-15.52-1.67-26.79-4.747-42.263-2.007-10.093-16.406-21.265-6.827-29.832,14.237,8.745,6.845,23.263,10.739,36.172,3.562,11.813,13.174,22.931,17.614,34.118,3.809,9.595,4.236,22.759,7.562,34.2,3.914,13.464,13.537,22.511,12.887,39.227,27.01-3.185,5.229-41.789,3.336-53.745-1.641-10.354-.917-18.1-3.6-28.181-1.863-6.99-8.7-28.427,6.827-16.268,4.418,3.462,8.147,21.526,8.995,26.479,2.4,14.029,2.214,20.606,7.586,32.4,14.5,31.859,16.177,3.47,18.214-15.868,7.654-2.761,16.2-2.629,21.3,3.324,14.446-8.091-4.355-27.879,12.313-27.24.154-2.087-.145-4.671.544-6.682,2.659,2.288,9.258,4.938,12.313,8.967,16.775-13.05-.791-18.154-7.454-27.234,7-15.62,24.189-7.575,34.777-22.245,10.015-13.879,6.058-18.932,23.25-24.848,25.94-8.926,42.439,4.329,62.695,18.788,9.687,6.915,39.282,32.717,53.154,30.01,16.314-3.183,9.667-25.922,27.89,1.981,22.332,34.192,13.1,69.861,2.039,106.006-16.938,55.333-23.083,113.233-42.16,167.831-10.856,31.063-25.5,77.869-62.86,84.025-22.185,3.655-45.617,1.765-68.279,5.7-38.658,6.716-68.215-1.559-106.451-5.327-35.613-3.509-68.913,7.282-103.912,10.459-39.977,3.627-80.638.48-120.23,7.682-74.03,13.468-142.152,10.161-217.038,10.163-38.308,0-74.156-7.725-112.141-10.683-44.232-3.448-87.163,4.34-131.186,3.842-36.912-.418-72.6-13.633-109.706-11.163-34.4,2.29-65.939,16.669-99.246,23.665-51.945,10.909-83.612-8.486-108.4-55.674C40.155,770.523,41.9,716.015,66.652,667.03c18.4-36.414,34.95-66.059,25.855-107.967-7.4-34.091-23.874-67.1-34.592-100.339-9.1-28.23-10.233-63.365-23.209-89.193-13.3-26.464-50.351-31.932-57.159-58.355C-26.741,294.541-17.587,266.393-27.854,251.755Z" transform="translate(5027.906 -67.809)" fill="#19acd1" stroke="#1e5a9b" stroke-miterlimit="10" stroke-width="2"/>
    <path id="Path_858" data-name="Path 858" d="M320.049,365.423a40.793,40.793,0,0,1,4.925-1.54c-1.2-2.505-4.4-2.833-5.568-5.162-.774-1.544.046-3.67-.191-5.286-.567-3.86-.881-6.321-5.136-2.82-.513-2.866-3.572-1.568-5.942-.939,2.477-1.339,3.068-7.136-.478-7.369-2.176-.143-2.611,2.864-3.9,3.5-1.061.528-3.218.524-4.353.855-.552-3.89-2.476-.53-4.364-.878-2.1-.389-3.338-2.466-6.467-1.981-2.642-2.929-8.049-1.616-8.3,2.761-1.242-5.436-5.036-1.913-7.741.135-1.3-4.8-5.508-1.105-7.825-3.472-1.985-2.029,1.222-6.6-4.427-4.39.117-1.515-.263-3.225-.146-4.74-3.253-.278-9.991.772-12.154-.563a7.076,7.076,0,0,0,6.7-.537c-.256-3.488-3.833-4.479-5.694-6.714,6.425-.905-1.809-5.681-4.618-7.4a2.046,2.046,0,0,0,.215-.085c2.163-4.57-6.114-8.793-9.208-10.707,6.479-1.189,4.373-6.184-.417-8.171,1.052-2.6-3.985-7.708-6.541-7.956,3.7.335,3.266-10.348-.917-10.343-.561-2.353-.12-1.835-2.433-2.437,1.5-6.864-7.062-5.358-10.77-5.88.637-4.1-2.7-5.8-6.345-5.381,1.172-6.108-7.377-3.031-6.432-11.172,2.4,1.241,14.918,6.5,14.1-.4-4.331-1.892-9.758-2.477-13.7-4.988,2.438-.833,17.169-.905,11.468-4.977-2.322-1.659-8.728,1.511-10.422-.391-3.733-4.192,9.534-2.935,9.011-6.878a4.716,4.716,0,0,0,4.268-2.866c2.02.757,8.191,4.083,9.684,3.394a9.435,9.435,0,0,1-.531-1.291c2.733,1.2,10.121,3.564,7.917-1.652.528-1,2.257-.607,1.161-2.4,1.761,1.752,11.422-9.306,1.468-10.4.05-.568-.32-1.605-.257-2.287-.824.111-1.977-.309-2.788-.146-.4-2.438-2.977-3.264-5.379-2.935-.126-.465-.017-.867-.144-1.333-3.157,2.8-7.008-2.327-10.2,1.405a4.04,4.04,0,0,0-5.762.437c-1.6-1.915-3.135-2.029-3.6.467-2.079-.359-4.19-.27-4.392,1.957-1.857-.309-2.348-.087-3.362,1.052-1.715-2.2-4.675-2.085-5.869.439-2.566-1.983-6.854-3.272-8.767.4-2.363-2.214-5-4.44-8.228-4.751,10.435.041,22.259.263,30.8-6.36-1.1-2.725-5.251-2.327-7.854-2.825,3.433-.663,7.3-.472,10.554-1.566-4.621-3.238-11.172-3-16.353-4.792,7.171-.543,15.364.681,21.928-1.091-8.06-6.5-18.917-7-29.241-6.819,2.529-1.068,7.464-1.861,9.621-3.329,6.7-4.56-1.6-3.688-4.9-4.033,2.783-.53,8.524-2.588,7.751-6.284-3.164-.752-4.607,2.016-7.589,1.907,1.49-1,5.827-3.522,4.627-5.9-1.45-2.877-5.777.387-7.965,1.948,2.463-1.972,6.556-7.793,1.7-8.33-2.524-.28-6.386,7.878-8.217,9.665-2.222-6.267-8.154-.063-10.761,2.057-.941-3.238-3.931-2.768-6.442-1.907,4.146-2.74.739-6.338-3.307-5.258,1.215-2.7-.248-4.923-3.475-4.1.535-3.918-.652-6.693-4.955-5.8.789-3.736-.978-6.273-4.818-5.453.089-1.154-.729-2.126-.635-3.277-2.057-.211-2.933-.154-3.327,1.737-1.881-4.7-7.6-1.542-5.453,2.935-1.678-.67-2.526-1.044-4.5-.635a4.377,4.377,0,0,0-4.744-2.642c2.577-3.353.537-6.54-3.751-5.934,1.011-3.037,2.814-5.9,2.211-9.191-.448.231-.937.5-1.431.787-2.146-3.192-1.448-6.188-6.2-7.086,5.484-1.446,8.23-2.494,2.724-7.051-8.086-6.693-21.3-8.1-31.041-12.124,5.371,2.011,21.926,5.893,24.2.887,2-4.41-9.765-10.269-12.4-11.567a25.8,25.8,0,0,0,7.462.354c-1.437-3.059-5.4-4.558-8.676-5.806,5-.761,9.672,3.7,14.6,1.368-2.559-6.019-11.256-5.636-14.716-10.183-1.92-2.524-2.114-8.974-7.106-4.562a6.835,6.835,0,0,0-3.892-4.984c2.222-.391,3.944-3.294,4.344-5.529,2.809.093,7.428-.019,6.825-3.866,1.631,2.159,9.361,5.058,12.113,4.7-.13-.829.3-1.983.137-2.8,2.15.467,3.916,1.914,6.21,1.82.291-3.777-2.881-6.051-5.675-7.273-.942-.413-2.688.533-3.566.044-.9-.5-.848-2.079-1.444-2.5a24.393,24.393,0,0,0-4.427-2.909c-2.6-1.246-6.358-1.864-8.421-3.781-3.59-3.336-2.883-4.908-9.086-5.1-.146-4.618-2.9-4.049-5.455-5.8-2.226-1.526-4.347-5.147-7.851-3.351-1.007-2.924-2.82-3.231-5.843-3.983-.444-.111-.929.048-1.394-.048.418-3.666-2.825-5.1-5.327-3.068-.9-6.621-54.98-20.036-60.044-20.387L-8.776,784.454c0,29.1-.443,58.061,2.364,87.074,2.4,24.79,6.014,49.584,9.221,74.289,3.329,25.663,15.133,47.35,41.863,52.989,25.44,5.368,53.221,1.746,78.193-4.745,11.006-2.861,21.337-9.382,32.872-9.7,9.939-.272,19.334.8,29.291-.363,12.091-1.409,34.309-.9,40.945-12.235,1.587-2.711.194-2.885,3.427-4.873,2.229-1.372,5.629-1.361,6.891-4.407,2.816-6.8-4.751-12.12-9.006-4.781-1.646,2.842-.383,4.638-3.757,6.617-1.648.966-5.371,2.15-6.88-.072-3.5-5.164,8.991-9,10.472-12.526,1.233-2.935-1.046-12.507-4.072-14.107-1.387-.733-7.576.268-7.906,1.861-.4,1.929,4.868,4.646,5.512,6.382,1.765,4.764-3.857,11.428-8.789,10.18,1.724-7.1-7.664-4.777-10.872-1.976-4.029,3.522-2.616,8.856-7.025,12.444-7.439,6.056-5.223-5.916-11.117-6.416-.444-.037-4.455,2.635-5.164,2.981-2.064,1.009-4.658,2.27-6.906,2.261-1.042-5.8-7.134-4.5-9.876-7.878-1.072-1.32-.6-3.431-1.566-4.773-1.55-2.144-1.185-1.222-3.24-2.448-2.863-1.707-4,1.468-5.473-2.9-.676-2.009.335-3.548,2.477-3.935-.056-4.866,6.375-1.2,9.4-2.777,2.388-1.246,6.262-5.618,5.832-8.4,4.888-.248,14.107,2.507,18.067-1.15,2.414-2.225,2.842-11.1,8.2-9.611.589,5.225,5.658,3.072,8.019,6.6,1.042-1.892,3.046-3.707,5.353-3.749,3.722-.069,3.716,3.151,7.106,3.942,7.09,1.653,8.145-8.117,13.79-8.3-1.155,5.934-.318,10.365,5.993,11.206,6.928.922,13.75-3.7,13.116-10.863-.2-2.231-1.131-7.736-4.421-7.162-2.153.374-2.763,6.475-4.979,7.436-6.738,2.92-2.131-9.206-8.691-8.5-3.7.4-7.567,9.971-11.261,3.05-.909-1.707-.978-6.366.354-7.928,1.776-2.083,3.733-.848,5.99-1.95,5.949-2.907,9.541-25.675-.891-22.909-.1,3.944,3.127,11.113.07,14.631-2.372,2.727-6.453.409-9.45,2.781-3.872,3.063-.144,7.1-2.029,11.391-2.116,4.825-11.965,6.865-12.618-.022,2.222.078,5.64-1.357,6.306-3.79.613-2.231-2.176-3.74-1.963-5.51.241-2,2.733-2.84,3.049-4.894.283-1.844-1.937-3.39-2.013-5.368-.2-5.136,8.2-6.6,6.771-11.661-.828.081-2.016-.481-2.713-.422a6.026,6.026,0,0,0,.976-6.168c-.387-.97-2.161.228-2.748-.791-.565-.981-.472-3.536-1.174-4.116-4.858-4-5.321,4.808-4.616,8.826-1.826-1.833-6.712-2.407-7.256.637-.146-.583-4.566-3.857-5.881-6-1.779-2.9-2.1-5.418-2.911-8.6-.581-2.27-2.131-14.125-5.379-9.058-5.4-2.375-3.973,3.266-5.012,6.5-2.324-2.905-4.546-.776-7.143-.035-.715-5.123-4.3-3.312-6.932-5.793,3.109-.283,10.735-5.4,4.442-5.49,2.874-1.007,4.342-5.879-.367-4.733,2.426-2.046,2.461-6.54-1.616-5.951,1.237-1.994,1.842-4.7-.942-4.929,1.076-2.211.942-4.879-1.931-4.892.639-3.214-3.1-6.542-4.594-2.9,0-.567-.867-2.464-.957-3.348-1.322.941-2.348.485-3.74.9.354-2.857-.622-4-2.387-5.819-1.05-1.085-4.2-1.97-4.653-2.555-2.461-3.2.918-7.225-.418-11.567-2.164.276-4.957-3.757-4.886-5.949.076-2.333,3.557-2.883,2-5.371,9-.635,18.021-.492,26.988-1.674,3.187-.418,12.052-.459,14.69-3.1,3.1-3.092.511-4.046-3.383-4.988.828-3.888,6.964-2.95,10.108-3.033-.785-1.844-3.192-3.468-5.732-4.4,7.2.155,15.5-1.067,21.8-1.739,8.7-.93,35.942-9.8,13.781-13.84,5.384-.537,9.332-.881,10.378-5.736.644-2.994-.848-5.7,1.066-8.447,2.894-4.14,5.127-3.011,5.662-8.68.248-2.631-.587-6.936,2.874-6.893.18,2.722,2.822,6.8,4.862,8.186,1.663-3.257-1.516-7.838,1.959-10.18,2.187,4.633.256,11.528,3.033,15.562,4.149-1.892.331-18.823,4.888-16.531,1.274-1.635,1.078-3.651,1.542-5.832,1.787-.728,4.6,1.207,5.8.435,2.57-1.648,0-6.754,2.437-9.322,3.131-3.3,8.58-2.061,7.9-8.632,7.088-.585,8.023-3.9,11.172-9.952,3.448.591,4.081,4.284,7.851,3.418,3.914-.9,3.875-5.192,4.964-8.136,6.836,5.769,15.945-4.594,15.5-11.446-.128-1.957-2.833-1.592-2.816-3.351.015-1.629,2.422-2.505,2.8-3.777.887-3.014-.15-7.11-2.368-8.9,1.6-.024,7.138.1,8.139-1.516,1.574-2.537-1.972-4.062-1.857-5.94s2.788-1.465,2.563-3.39c-.206-1.74-3.51-1.833-3.468-2.931,5.927-3.331,4.662-6.466-.081-9.293,6.8-6.751-15.74-2.329-17.453-2.518-.33-2.583-2.977-3.288-5.368-2.935-1.3-3.955-2.122-7.047-7.421-7.264,5.993.344,13.189-2.527,18.545-4.864-2.5-3.529-11.006-3.981-15.122-5.406a23.371,23.371,0,0,1,5.331-2.433c-1.964-2.687-8.882-3.159-12.178-2.946,4.638-5.58-19.386-5.945-21.519-6.358,1.59-.07,10.2-2.6,10.789-4.01,1.142-2.72-3.068-3.811-5.408-4.792-3.3-5.01-5.068-6.623-11.665-6.886-.152-2.811.854-7.995-1.9-9.876-1.729-1.181-5.9.307-6.99,1.92-1.7-1.442-5.014-1-7.325-.809.18-7.756-4.866-14.222-13.742-11.3-.948-1.546-.652-4.812-1.909-5.819,6.449,2.831,23.92,3.4,18.11-7.271,2.653-.117,6.108.552,8.6-.446,3.853-1.544,1.309-.324,1.274-2.659-.037-2.507-1.587-6.3-4.962-5.836.333-.452.62-1.426,1.013-1.905-.567-.378-3.3-.718-3.494-.931a18.528,18.528,0,0,1-1.568-2.468c-2.692-1.631-3.494-1.968-7.149-2.031a4.275,4.275,0,0,0-4.979-3.838c2.05-.65,7.96-3.994,7.849-6.386-.268-5.831-8.232-.917-10.783-.461,11.7-6.221,3.59-15.286-2.933-6.847,1.9-2.907,4.883-5.8,2.481-9.243-3.749.844-5.747,4.964-7.371,7.882-1.613-1.611-.291-3.9-1.959-5.536-.489.191-.981.33-1.381.476.118-3.194-.081-7.24-4.414-6.358.048-2.514-2.083-5.621-4.473-6.3a4.373,4.373,0,0,0,4.222-4.982c.033.009.065.02.1.028.107-1.924,2.8-4.733,5-3.749,2.066.926,1.27,2.633,1.453,4.5.265,2.681-1.328,14.04,5.357,8.774,3.594,2.637,7.741-1.974,6.812-5.8,3.242,7.88,13.329-4.386,6.969-6.714,2.6-2.331,1.365-7.08-1.883-8.154,2.314-1.944,3.679-5.327,1.318-7.862,4.094,3.4,10.946,4.7,13.763-.6.737-1.383-.859-3.033-.1-4.425.5-.926,3.014-1.2,3.518-2.289,1.329-2.881-1.337-5.049-1.548-7.876-.17-2.27,2.859-4.555-.774-5.329,1.613-3.873-2.762-4.394-4.558-1.552-2.572-1.942-4.977-.918-8.339-.917,3.375-1.046,6.032-3.588,9.415-4.67,3.007-.959,6.127-.2,9.01-1.287,3.677-1.383,11.239-9.473,3.133-10.269,1.513-2.8,5.192-4,6.255-6.2-.807.165-1.961-.194-2.8-.12-.163-2.829-1.131-7.08,1.84-8.339-1.352-2.368-4.631-3.164-6.317-5.3,5.151-6.727,6.371-5.521,4.881-13.979-.507-2.881,1.6-10.9-.879-12.028.85-2.642.315-5.129-2.005-6.641,4.644-2.244,2.3-5.747-.868-7.871,4.183,1.487,8.606,1.513,13,1.32-.152-1.461-.067-2.981-.9-4.314,3.76,1.079,6.434,4.042,10.657,3.335-.011-2.083-1.405-3.577-3.211-4.753,3.842.781,16.266,8.6,16,.426,3.094,2.574,11.635,5.556,13.763,1.05,5.419.052,11.718,1.013,9.724-5.9a31.145,31.145,0,0,0,5.355-1.113C321.552,367.477,321.108,366.1,320.049,365.423Zm-76.322-46.944c-.057-.039-.107-.074-.144-.1A.225.225,0,0,1,243.726,318.479Z" transform="translate(5044.131 -259.156)" fill="#0b87a9" stroke="#1e5a9b" stroke-miterlimit="10" stroke-width="2"/>
    <path id="Path_859" data-name="Path 859" d="M1017.346,816.914c-5.284-41.328-11.159-82.829-17.854-123.957-2.615-16.068-14.05-45.331-6.682-61.379l-4.144-504.859c-9.332-20.091-16.886-41.073-27.96-60.321a135.443,135.443,0,0,0-19.458-26.634c-3.472-3.607-9.408-6.888-12.078-10.987-2.374-3.642-2.368-9.13-4.34-13.12-2.505-5.068-8.871-8.617-10.587-14.907-1.811-6.64,5.486-24.426-8.274-25.111-4.488-.224-4.868,3.011-4.136,6.627.337,1.668,3.683,1.637,4.158,3.485.774,3.02-.261,4.051-.455,6.856-.4,5.821-2.168,9.658-.415,15.727,1.811,6.269,6.58,10.158,5.493,17.164-8.913,1.613-7.164-10.411-9.8-14.816-3.261-5.445-7.54-5.164-9.154,2.466-2.392,11.309,7.619,17.64,12.448,25.7,4.494,7.5,1.309,5.636-3.5,8.1-1.777.913-3.792.489-6.24,2.029-2.12,1.337-2.857,4.638-5.41,6.28-8.25,5.308-22.228-1.111-19.543,14.114,9.935,2.155,16.631,8.271,13.142,18.427-2.313,6.732-9.623,19.167-15.568,12.391-2.635-3.005.28-10.559-6.858-8.165-3.87,1.3-2.618,6.7-8.269,8.188-9.43,2.483-11.422-2.957-11.713,10.63-5.36-.824-10.237,1.289-9.119,7.46-5.9-1.189-10.339,3.361-5.677,8.415-5.471,1.22-10.321-1.964-9.943-7.48.346-5.062,5.008-4.875,6.875-8.208,2.918-5.208.8-21.774-2.881-25.8-8.78-9.595-9.556,4.3-8.767,9.943.572,4.1,3.274,7.952-1,11.044-6.143,4.451-6.055-1.855-8.326-4.557-2.164-2.574,0-7.6-6.654-5.634-4.005,1.179-4.664,5.158-4.123,9.156.816,6.034,5.612,9.874,7.458,15.733,1.835,5.814,4.535,13.089,10.759,15.768,6.753,2.907,14.188,2.45,19.082,9.932,2.877,4.4.237,14.355-.122,21.428-13.648.959,16.449,17.642,17.347,21.034,1.989,7.525-10.1,4.538-15.871,5.6-6.94,1.281-34.174,9.452-32.537,18.11,8.843,2.379,18.216.459,26.849,4.1-7.56,1.681-13.887,3.314-19.8,8.432,3.022,4.229,9.782,2.933,11.63,8.349-16.46,3.949-33.093,7.949-49.664,13.268-2.542.815-12.687,1.89-13.307,4.91-1.159,5.653,9.821,6.456,13.3,6.858-4.449.785-10.482.194-13.092,5.184-2.822,5.392.387,9.285,4.992,11.213a1.341,1.341,0,0,1-1.844.829c-5.656-1.52-14.122.124-18.279-2.429-3.429-2.105-2.97-9.043-5.512-11.73-5.688-6.006-15.709-3.672-19.317-12.35-3.833-9.217,5.447-14.538,4.994-22.4-.713-12.342-11.009-3.673-13.1,3.749-1.191,4.234-.778,8.819-2.033,12.642-1.357,4.133-5.134,5.19-3.353,11.791,1.216,4.5,16.473,17.9,1.905,16.658-10.417-.891-9.232-16.845-15.912-21.648-2.835-2.039-6.988-1.757-9-4.107-3.229-3.775.809-8.658-.75-11.665-4.07-7.854-13.14-.185-13.527,6.878-.3,5.455,4.494,12.84,9.532,16.162,2.19,1.444,6.651.759,8.121,1.994,3.253,2.729,1.916,4.92,3.279,8.165,2.94,7,6.438,7.778,11.441,13.244,2.412,2.635,2.122,6.225,5.345,8.1,2.729,1.587,5.458-.035,8.082,1.039,4.7,1.924,9.019,6.3,1.677,9.139-2.707,1.044-5.07-1.779-7.462-1.7-2.468.085-6.425,2.59-8.306,2.363-6.792-.822-11.3-8.412-7.565-14.818-5.453-4.823-12.337-6.643-12.537,1.054-.094,3.611,8.976,13.7,1.883,15.625-6.945,1.887-6.191-11.037-9.911-13.153-9.123-5.194-14.951,8.049-11.724,14.611,2.161,4.394,13.446,12.865,18.278,13.607,5.329.818,13.135-3.84,18.442-5.816,3.272-1.218,11.952-4.864,15.586-2.694,3.3,1.974,3.686,10.439,4,14.818-6.321.85-9.175,4.623-11.293,10.252-.757,2.013.329,4.414-.311,6.471s-5.127,3.459-4.1,6.63c4.7,14.549,19.471-9.358,21.778-13.161,8.282.967,6.419.28,10.843-5.721,1.72-2.335,6.223-11.224,11.23-7.5,3.333,2.483-.38,10.024-.843,13.1-1.152,7.638-.865,13.974-5.684,20.719-1.979,2.772-5.27,5.208-6.793,8.25-4.3,8.582-.326,11.883-9.7,9.161-9.285-2.7-29.414-9.909-27.251,8.167,4.47,1.222,10.267-.152,13.968.892,4.918,1.389,6.9,6.549,12.289,6.832,2.535,4.853-1.115,8.312-1.639,13-5.912-1.215-9.708,5.762-10.876,10.034-2.264,8.289.524,11.672,9.2,12.6,6.119,11.594,1.831,8.584-7.341,10.639-4.758,1.065-22.287,9.124-24.861,13.279-6.568,10.6,13.431,5.46,18.043,5.738,8.678.524,14.2,4.847,23.311,3.5-1.69,7.708-17.414,3.172-21.422,9.8,15.053,12.479,28.923,2.725,45.572,6.651,9.391,2.214,5.027,6.24-3.357,7.458-3.2.467-7.582-1.063-10.571.172-3.742,1.546-4.727,4.736-8.328,5.753.735,7.514,16.151,7.954,22.13,8.3.135,1.879.605,4.636.126,6.506-1.124,4.375-6.379,2.459-10.633,1.783-.726,5.207-7.762,4.9-10.106,9.821-1.03,2.159,2.068,3.049,1.568,4.957-.631,2.407-2.661,4.747-3.357,7.375-7.995-1.62-6.217,7.615-4.086,12.411-6.408-.559-6.01,6.453-2.4,10.078-6.121-.737-3.925,4.788-6.819,7.48-4.525,4.212-2.176,3.029-7.688,2.283-2.8-.378-3.875-5.02-7.873-2.84-3.057,1.666-1.122,5.523-2.49,7.188-.828,1.009-2.353,3.1-3.09,3.983.068-.083-3.837-.285-5.051.939-1.427,1.435-.226,5.062-1.1,6.64-2.418,4.377-4.883,6.358-9.6,8.154-6.682,2.542-23.057,1.631-23.368,11.644,6.8-.45,10.4,4.609,16.4,4.414-.2.494-35.975,14.544-21.53,19.086-9.63,7.253,16.012,10.6,20.848,10.613,8.571.024,14.594.107,23.028,1.677,3.862.718,17.691.554,20.08,3.238,6.51,7.312-8.711,7.851-12.329,10.983a10.1,10.1,0,0,0,4.575,11.481c-19.108,7.43,10.633,17.8,16,21.53-.361,2.342-3.051,5.831-2.648,8.113.7,3.959,5.76,5.831,7.038,9.089,2.946,7.521-3.774,15.175,2.027,23.068,11.983,16.31,33.246,7.858,47.468,16.1-5.825.981-18.4.794-20.765,7.464-2.163,6.1,5.756,8.517,9.948,9.156,11.772,1.8,23.765,1.37,35.181,5.518-4.471,3.855-8,4.164-3.712,10.03,3.944,5.392,17.062,6.64,23.137,8.6-.008,4.884,5.693,5.943,9.971,5.784,1.352,7.243-4.638,4.255-8.182,6.464-5.1,3.179-6.423,6.33-5.912,13.176-8.493-.622-17.325-10.35-16.579,5-1.077-.668-4.4-.8-5.51-1.446-2.19,4.934-.7,9.454,2.318,13.157-3.807-1.092-9.854,3.14-11.605,4.936-3.592,3.683-5.6,7.03-4.973,13.3-.585-2.42-4.072-3.453-6.688-4.1-.607,2.483-1.231,5.4-1.748,8.158-6.962-3.616-9.337,8.3-9.928,13.1-5.331-6.336-9.906,5.436-10.774,10.067-6.677.3-9.7-9.637-5.121-14.02-3.577-.285-6.6,1.215-8.08,4.32,1.454-4.664-5.758-7.662-9.345-4.331,4.094-6.025,3.266-15.688-5.408-15-.705-1.381.657-1.011.72-1.516-1.742-3.1-3.692-4.753-7.4-5,.776-4.347,1.653-28.36-8.169-14.981-2.018-11.139-7.662.248-7.756,5.81-18.276-.37-14.038,26.038-8.182,38.216-5.345,2.766-5.06,14.024-4.161,20.08,1.307,8.8,12.717,12.352,13.355,18.86.55,5.6-9.191,10.535-8.61,17.223.257,2.946,3.025,5.629,3.6,8.5.8,3.984-1.815,6.953.79,11.6-3.268,1.635-5.682,8.674-5.927,12.326-8.573-.489-3.855-10.852-13.946-5.712-4.274,2.174-.6,7.438-7.3,2.5-4.088-3.011-3.084-10.1-6.8-13.274-9.713-8.282-9,4.783-7.5,10.791,1.676,6.717,1.777,19.23-8.06,10.195-7.212-6.627-1.679-21.035-1.054-29.219.409-5.375,2.839-9.237-4.188-10.878-6.132-1.433-7.032,2.248-8.247,6.917-1.409,5.412,1.9,9.891-2.474,14.087-3.466,3.323-7.6-.072-10.563,4.734-4.688,7.614,8.219,19.325-3.527,25.151-13.089,6.493-11.548-16.325-8.371-23.35-23.028-3.583-13.855,26.04-5.071,35.353,8.212,8.708,14.509,5.379,24.216,1.833,5.488-2.005,16.816-2.9,20.543,3.5,3.307,5.684-3.56,14.494-9.491,15.6-9.161,1.711-15.422-11.863-20.347.187-4.06,9.932,6.012,13.322,14.5,12.2,6.606-.872,12.19-5.844,18.837-6.708,8.382,8.38-6.536,16.01-9.113,22.469-11.841,29.662,119.462,36.048,136.216,31.032,20.436-6.117,36.666-17.5,59.172-15.077,11.266,1.215,22.076,4.351,33.448,5.094,10.322.674,21.435-1.018,31.613.3,15.9,2.063,29.04,10.683,45.644,11.7,18.453,1.126,34.679-1.62,48.512-14.55,22.045-20.6,29.7-57.494,32.68-86.191C1027.457,906.247,1023.03,861.351,1017.346,816.914Z" transform="translate(5551.42 -296.54)" fill="#0b87a9" stroke="#1e5a9b" stroke-miterlimit="10" stroke-width="2"/>
  </g>
</svg>
