<svg xmlns="http://www.w3.org/2000/svg" width="752.268" height="658.147" viewBox="0 0 752.268 658.147">
  <g id="Group_260" data-name="Group 260" transform="translate(-314.848 -154.607)">
    <g id="Group_190" data-name="Group 190">
      <path id="Path_228" data-name="Path 228" d="M539.6,511.59a.5.5,0,0,1-.5-.5V155.607a.5.5,0,0,1,1,0V511.09A.5.5,0,0,1,539.6,511.59Z" fill="#1991ce" stroke="#005782" stroke-miterlimit="10" stroke-width="1"/>
    </g>
    <g id="Group_191" data-name="Group 191">
      <path id="Path_229" data-name="Path 229" d="M602.079,260.1S601,228,604,228s318,58,322,60,14.076,43.1,11.076,43.1S607.079,262.1,602.079,260.1Z" fill="#e2e9e1" stroke="#005782" stroke-miterlimit="10" stroke-width="1"/>
    </g>
    <g id="Group_192" data-name="Group 192">
      <path id="Path_230" data-name="Path 230" d="M561,248.9S601,228,604,228s318,58,322,60-27,31.9-30,31.9S566,250.9,561,248.9Z" fill="#0f5b81" stroke="#005782" stroke-miterlimit="10" stroke-width="1"/>
    </g>
    <g id="Group_193" data-name="Group 193">
      <path id="Path_231" data-name="Path 231" d="M689,252c-.722,3.075-60.828-7.654-60.293-12.678C630.086,226.393,639.373,166.859,641,161c1.108-3.987,57.474,7.184,60.6,7.642S690.844,244.149,689,252Z" fill="#ddc546" stroke="#005782" stroke-miterlimit="10" stroke-width="1"/>
    </g>
    <g id="Group_194" data-name="Group 194">
      <path id="Path_232" data-name="Path 232" d="M1032,638c4-3,9.2-14.677,7-14-13,4-24,2-47,13-13.836,6.618-20,10-29,22-16.145,21.526-18.665,22.614-27.334,21.667-74.025-8.091-290-68-290-68L516.717,692.64C503.717,692.64,415,665,403,665l-1,3s80.64,21.333,103.64,28.333c9.83,2.992,73.829,22.149,90.441,33.223C599.412,731.773,554,748,542,765c-14.463,20.49-8.148,40.846,44.852,44.846s112.51-47.3,125.51-44.3c14.773,3.409,76.677,21.033,111.331,27.636C826.668,793.748,790.336,806,797,808c2.889.867,32.635-13.13,35.333-12.666,13.016,2.238,17.868,2.139,20.36,1.516C864.7,793.848,901,731,912,733c23.469,4.268,41,2,42-19,17.646-4.593,52.063-.109,66-24,14-24,28-37,46-48C1072.5,638.027,1024.758,643.432,1032,638Z" fill="#e2e9e1" stroke="#005782" stroke-miterlimit="10" stroke-width="1"/>
    </g>
    <g id="Group_196" data-name="Group 196">
      <g id="Group_195" data-name="Group 195">
        <path id="Path_233" data-name="Path 233" d="M427.264,606.157c15.648-11.471,32.108-21.8,47.428-33.721,15.691-12.207,30.431-25.647,46.572-37.279,2.59-1.866.1-6.206-2.523-4.317-15.51,11.176-30.036,23.776-44.829,35.866-15.6,12.747-32.94,23.235-49.171,35.134-2.572,1.885-.081,6.227,2.523,4.317Z" fill="#95cae5" stroke="#005782" stroke-miterlimit="10" stroke-width="1"/>
      </g>
    </g>
    <g id="Group_198" data-name="Group 198">
      <g id="Group_197" data-name="Group 197">
        <path id="Path_234" data-name="Path 234" d="M456.592,484.334c-9.36,33.35-16.053,67.573-27.967,100.162-4.855,13.281-9.814,26.439-14.2,39.894-4.507,13.823-8.807,27.753-14.166,41.277-1.189,3,3.648,4.29,4.821,1.329,5.161-13.024,9.337-26.426,13.667-39.742,4.543-13.97,9.576-27.67,14.7-41.429,12.1-32.493,18.615-66.843,27.966-100.162.873-3.111-3.951-4.429-4.821-1.329Z" fill="#95cae5" stroke="#005782" stroke-miterlimit="10" stroke-width="1"/>
      </g>
    </g>
    <g id="Group_200" data-name="Group 200">
      <g id="Group_199" data-name="Group 199">
        <path id="Path_235" data-name="Path 235" d="M878.559,514.912c7.351,59.575,18.536,118.6,25.888,178.173.389,3.157,5.394,3.2,5,0-7.352-59.575-18.537-118.6-25.888-178.173-.39-3.157-5.394-3.195-5,0Z" fill="#95cae5" stroke="#005782" stroke-miterlimit="10" stroke-width="1"/>
      </g>
    </g>
    <g id="Group_201" data-name="Group 201">
      <path id="Path_236" data-name="Path 236" d="M892.73,679.522s3.153,40.107,5.64,48.61,40.523,8.073,43.175,1.871,8.34-47.157,8.34-47.157Z" fill="#ddc546" stroke="#005782" stroke-miterlimit="10" stroke-width="1"/>
    </g>
    <g id="Group_203" data-name="Group 203">
      <g id="Group_202" data-name="Group 202">
        <path id="Path_237" data-name="Path 237" d="M769.037,624.475c5.16,60.632,20.3,119.9,25.466,180.523.271,3.188,5.273,3.215,5,0C794.341,744.37,779.2,685.1,774.037,624.475c-.271-3.188-5.273-3.214-5,0Z" fill="#95cae5" stroke="#005782" stroke-miterlimit="10" stroke-width="1"/>
      </g>
    </g>
    <g id="Group_204" data-name="Group 204">
      <path id="Path_238" data-name="Path 238" d="M607.5,728.362c-2.1,2.543-1.834,9.32-1.7,12.947.075,2.052,8.11,5.087,13.7,3.939,5-1.026,8.553-5.878,14-8.674a49.1,49.1,0,0,0,10.5-7.7c4-4.106,4.142-10.02-.5-11.877-5-2-11,0-19.5,3.152C618.334,722.251,610.241,725.053,607.5,728.362Z" fill="#5b3c32" stroke="#005782" stroke-miterlimit="10" stroke-width="1"/>
    </g>
    <g id="Group_205" data-name="Group 205">
      <path id="Path_239" data-name="Path 239" d="M607.975,717.583l-.472,10.779a18.446,18.446,0,0,0,10.243,2.908c5.257-.022,11.978-.342,11.978-7.014a44.553,44.553,0,0,1,.945-10.265Z" fill="#c0a58d" stroke="#005782" stroke-miterlimit="10" stroke-width="1"/>
    </g>
    <g id="Group_207" data-name="Group 207">
      <g id="Group_206" data-name="Group 206">
        <path id="Path_240" data-name="Path 240" d="M585.5,658v58.981c0,15.505-.341,31.1.775,46.575.23,3.2,5.232,3.218,5,0-1.116-15.476-.775-31.07-.775-46.575V658c0-3.224-5-3.224-5,0Z" fill="#1991ce" stroke="#005782" stroke-miterlimit="10" stroke-width="1"/>
      </g>
    </g>
    <g id="Group_209" data-name="Group 209">
      <g id="Group_208" data-name="Group 208">
        <path id="Path_241" data-name="Path 241" d="M536.373,778.2c17.155-4.58,35.082-5.55,52.122-10.621,3.082-.917,1.769-5.743-1.33-4.821-17.04,5.071-34.967,6.041-52.122,10.62-3.112.831-1.79,5.655,1.33,4.822Z" fill="#1991ce" stroke="#005782" stroke-miterlimit="10" stroke-width="1"/>
      </g>
    </g>
    <g id="Group_211" data-name="Group 211">
      <g id="Group_210" data-name="Group 210">
        <path id="Path_242" data-name="Path 242" d="M616.544,796.335c-7.1-12.353-18.631-21.333-25.826-33.605-1.63-2.779-5.952-.264-4.317,2.524,7.2,12.281,18.735,21.263,25.826,33.6,1.6,2.794,5.926.277,4.317-2.524Z" fill="#1991ce" stroke="#005782" stroke-miterlimit="10" stroke-width="1"/>
      </g>
    </g>
    <g id="Group_213" data-name="Group 213">
      <g id="Group_212" data-name="Group 212">
        <path id="Path_243" data-name="Path 243" d="M590.205,760.787c-10.566-5.019-18.034-15.2-28.675-20.082-2.908-1.336-5.451,2.973-2.524,4.317,10.641,4.888,18.108,15.063,28.676,20.083,2.9,1.375,5.435-2.935,2.523-4.318Z" fill="#1991ce" stroke="#005782" stroke-miterlimit="10" stroke-width="1"/>
      </g>
    </g>
    <g id="Group_215" data-name="Group 215">
      <g id="Group_214" data-name="Group 214">
        <path id="Path_244" data-name="Path 244" d="M635.088,756.838c-15.249,2.062-30.605,3.919-45.966,4.9-3.2.2-3.222,5.205,0,5,15.809-1.006,31.6-2.953,47.295-5.076,3.183-.43,1.822-5.248-1.329-4.821Z" fill="#1991ce" stroke="#005782" stroke-miterlimit="10" stroke-width="1"/>
      </g>
    </g>
    <g id="Group_216" data-name="Group 216">
      <ellipse id="Ellipse_23" data-name="Ellipse 23" cx="7.825" cy="8.184" rx="7.825" ry="8.184" transform="translate(551.943 744.863)" fill="#1991ce" stroke="#005782" stroke-miterlimit="10" stroke-width="1"/>
    </g>
    <g id="Group_217" data-name="Group 217">
      <ellipse id="Ellipse_24" data-name="Ellipse 24" cx="8.746" cy="9.242" rx="8.746" ry="9.242" transform="translate(528.003 777.757)" fill="#1991ce" stroke="#005782" stroke-miterlimit="10" stroke-width="1"/>
    </g>
    <g id="Group_218" data-name="Group 218">
      <path id="Path_245" data-name="Path 245" d="M662.391,742.342c-2.1,2.543-1.834,9.41-1.7,13.037.075,2.052,8.222,4.517,13.812,3.369,5-1.026,8.735-4.888,13.888-8.193,2.945-1.89,5.977-5.6,8.612-8.307,4-4.106,2.771-11.028.112-12.357-4-2-11.612,1.607-18.224,4.239C673.274,736.366,665.129,739.033,662.391,742.342Z" fill="#5b3c32" stroke="#005782" stroke-miterlimit="10" stroke-width="1"/>
    </g>
    <g id="Group_219" data-name="Group 219">
      <path id="Path_246" data-name="Path 246" d="M663.268,726l-1.515,18a17.723,17.723,0,0,0,9.75,2c6.5-.5,11.166-2.235,11.166-9.666A85.575,85.575,0,0,1,684,722Z" fill="#c0a58d" stroke="#005782" stroke-miterlimit="10" stroke-width="1"/>
    </g>
    <g id="Group_220" data-name="Group 220">
      <path id="Path_247" data-name="Path 247" d="M644.037,578.968c5.872,1.064,12.065,5.038,10.427,28.606S638.669,697.737,637,713.477c-1.083,10.228-33.334,13.687-33,4.449.569-15.789.991-87.118,6.666-104.706S634.822,577.3,644.037,578.968Z" fill="#ddc583" stroke="#005782" stroke-miterlimit="10" stroke-width="1"/>
    </g>
    <g id="Group_221" data-name="Group 221">
      <path id="Path_248" data-name="Path 248" d="M678.9,593.515c5.963.025,14.323,5.23,16.6,28.741s-3.441,87-3.5,93.742c-.09,10.288-30.885,18.421-31.667,12.535-2-15.056-6.53-84.808-3.843-103.129S669.543,593.474,678.9,593.515Z" fill="#1991ce" stroke="#005782" stroke-miterlimit="10" stroke-width="1"/>
    </g>
    <g id="Group_222" data-name="Group 222">
      <path id="Path_249" data-name="Path 249" d="M660.464,651.244s14.665-8.25,18.491-14.647,6.989-12.842,6.989-12.842-1.369,9.256-4.43,14.373-13.273,16.379-14.491,23.641-5.2,15.653-5.972,8.24S660.464,651.244,660.464,651.244Z" fill="#ddc546" stroke="#005782" stroke-miterlimit="10" stroke-width="1"/>
    </g>
    <g id="Group_223" data-name="Group 223">
      <path id="Path_250" data-name="Path 250" d="M501,673c1.43-6.063,48.922-42.2,72.3-45.061,50.612-6.2,99.726,16.235,98.217,36.178-1.458,19.278-46.03,42.782-58.947,45.684s-38.673-2.583-64.58-12.541S498.637,683.03,501,673Z" fill="#0f5b81" stroke="#005782" stroke-miterlimit="10" stroke-width="1"/>
    </g>
    <g id="Group_224" data-name="Group 224">
      <path id="Path_251" data-name="Path 251" d="M522.545,636.131c-3.389,4.951-6.961,34.573,29.048,44.651s54.516,8.47,71.376-2.289,46.741-34.572,55.986-41.9,16.676-34.841,3.219-42.545-41.456,8.9-41.456,8.9,11.067-22.562-3.921-27.708-44.679,7.318-62.969,19.3S530.813,624.053,522.545,636.131Z" fill="#1991ce" stroke="#005782" stroke-miterlimit="10" stroke-width="1"/>
    </g>
    <g id="Group_225" data-name="Group 225">
      <path id="Path_252" data-name="Path 252" d="M415.105,515.589S792.6,636.6,796.6,636.6,919.665,503.725,919.665,503.725L555,402.665Z" fill="#30799e" stroke="#005782" stroke-miterlimit="10" stroke-width="1"/>
    </g>
    <g id="Group_226" data-name="Group 226">
      <path id="Path_253" data-name="Path 253" d="M597.477,506.417c1.942-10.678,18-16.667,22-18s99.851,29.366,102,33.666c2.667,5.334-18,25.667-24.666,25.667S596.144,513.75,597.477,506.417Z" fill="#0f5b81" stroke="#005782" stroke-miterlimit="10" stroke-width="1"/>
    </g>
    <g id="Group_227" data-name="Group 227">
      <path id="Path_254" data-name="Path 254" d="M613.618,498.479s7.516-4.39,12.9-4.661,12.71.932,11.973,4.461c-1.648,7.892-5.485,12.92-10.268,17.623S610.831,505.19,613.618,498.479Z" fill="#c0a58d" stroke="#005782" stroke-miterlimit="10" stroke-width="1"/>
    </g>
    <g id="Group_228" data-name="Group 228">
      <path id="Path_255" data-name="Path 255" d="M678.746,437.564c0,2.137.129,36.754.129,40.173s26.135,8.808,26.762,6.244.329-40.6.329-42.737S678.746,434.145,678.746,437.564Z" fill="#0f5b81" stroke="#005782" stroke-miterlimit="10" stroke-width="1"/>
    </g>
    <g id="Group_229" data-name="Group 229">
      <path id="Path_256" data-name="Path 256" d="M663.867,488.432c-1.6,1.411,25.441,9.867,28,7.6,3.8-3.367,9.7-7.534,13.2-11.8,1.646-2.007-24.774-9.127-26.7-8.2C675.669,477.332,669.669,483.332,663.867,488.432Z" fill="#0f5b81" stroke="#005782" stroke-miterlimit="10" stroke-width="1"/>
    </g>
    <g id="Group_230" data-name="Group 230">
      <path id="Path_257" data-name="Path 257" d="M490,519c4.263,12.791,14,19,33,30,21.23,12.291,38.961,12.514,50,8s46.754-26.71,54.6-40.1c2.544-4.339,5.483-10.313-1.478-15.519s-12.306-4.07-16.176-1.332C602.492,505.327,557.158,518.264,554,517c-12.329-4.944-29.83-12.9-40-20C497.776,485.676,485,504,490,519Z" fill="#319b6b" stroke="#005782" stroke-miterlimit="10" stroke-width="1"/>
    </g>
    <g id="Group_231" data-name="Group 231">
      <path id="Path_258" data-name="Path 258" d="M673.542,529.251S679,522,684,520s12.552-2.577,13,1c1,8-1,14-4,20S673.082,536.5,673.542,529.251Z" fill="#c0a58d" stroke="#005782" stroke-miterlimit="10" stroke-width="1"/>
    </g>
    <g id="Group_232" data-name="Group 232">
      <path id="Path_259" data-name="Path 259" d="M618.7,615.659s14.1-7.458,17.011-12.753,7.688-15.464,7.688-15.464,12.978,4.373,9.867,8.769c-1.684,2.379-33.183,21.057-33.183,21.057Z" fill="#ddc546" stroke="#005782" stroke-miterlimit="10" stroke-width="1"/>
    </g>
    <g id="Group_233" data-name="Group 233">
      <path id="Path_260" data-name="Path 260" d="M520.8,473.536S505.729,475.954,497.4,480s-26.134,18.279-17.85,59.02c3.519,17.312,17.471,40.544,17.618,43.707.881,18.914,2.112,51.178,10.006,58.156,16.791,14.84,68.475,17.981,86.563,8.652s28.737-21.109,29.1-31.227c.8-21.986-.33-61.371-1.838-81.314-2.34-30.931-17-45-44.095-53.869-3.854-1.262-5.329-9.1-23.691-13.827C527.907,462.78,520.8,473.536,520.8,473.536Z" fill="#53af85" stroke="#005782" stroke-miterlimit="10" stroke-width="1"/>
    </g>
    <g id="Group_234" data-name="Group 234">
      <path id="Path_261" data-name="Path 261" d="M472.4,551.982c3.251,13.511,11.326,80.631,14.6,88.016,5.067,11.433,28.233,18.41,45.042,22.75s51.841,11.749,56.87-2.45c3.436-9.7-8.314-73.063-11.462-83.736-2.642-8.96-13.265-19.2-27.922-22.983-16.809-4.341-52.313-18.832-62.144-19.576S469.394,539.478,472.4,551.982Z" fill="#0f5b81" stroke="#005782" stroke-miterlimit="10" stroke-width="1"/>
    </g>
    <g id="Group_235" data-name="Group 235">
      <ellipse id="Ellipse_25" data-name="Ellipse 25" cx="9.746" cy="9.184" rx="9.746" ry="9.184" transform="translate(602.25 793.886)" fill="#1991ce" stroke="#005782" stroke-miterlimit="10" stroke-width="1"/>
    </g>
    <g id="Group_236" data-name="Group 236">
      <ellipse id="Ellipse_26" data-name="Ellipse 26" cx="8.206" cy="8.409" rx="8.206" ry="8.409" transform="translate(625.447 760.848)" fill="#1991ce" stroke="#005782" stroke-miterlimit="10" stroke-width="1"/>
    </g>
    <g id="Group_237" data-name="Group 237">
      <path id="Path_262" data-name="Path 262" d="M620.27,345.493c0,5.219.586,89.767.586,98.118s151.941,39.664,154.8,33.4,5.709-96.27,5.709-101.489S620.27,337.143,620.27,345.493Z" fill="#e9b6aa" stroke="#005782" stroke-miterlimit="10" stroke-width="1"/>
    </g>
    <g id="Group_238" data-name="Group 238">
      <path id="Path_263" data-name="Path 263" d="M626.14,353.236c0,4.615.519,79.386.519,86.771s134.561,35.078,137.089,29.539,5.926-84.536,5.926-89.151S626.14,345.851,626.14,353.236Z" fill="#0f5b81" stroke="#005782" stroke-miterlimit="10" stroke-width="1"/>
    </g>
    <g id="Group_239" data-name="Group 239">
      <path id="Path_264" data-name="Path 264" d="M528.85,471.332s3.7-14,3.7-19.334,44.646-58.666,55.122-52,10.469,14.312,10.469,22.312,1.018,11.261,0,22.17c-1.14,12.23-6.267,23.72-13.662,24.386s-14.337-3.534-18.651,8.466S526.385,482.665,528.85,471.332Z" fill="#c0a58d" stroke="#005782" stroke-miterlimit="10" stroke-width="1"/>
    </g>
    <g id="Group_240" data-name="Group 240">
      <path id="Path_265" data-name="Path 265" d="M531.315,456.665c.616,2.667,21.569,4,27.732.667s14.79-20,18.487-24,6.862,4.371,8.012,7.333S588.538,431,591,423s23.58-13,12.275-11.827,13.8-6.068,5.349-8.506c-8.091-2.336,5.82-9.978,1.127-10.232s9.029-19.2,1.407-13.515-5.842-5.579-7.1-8.681c-1.165-2.862-9.874,5.3-6.594-5.678s-19.11,11.132-15.584,1.408S558.2,377.586,561,370.19s-10.454,14.923-10.748,9.854-9.8,1.535-13.425,4.505c-6.155,5.046-6.358,15.183-8.494,19.449C519.624,421.4,531.315,456.665,531.315,456.665Z" fill="#5b3c32" stroke="#005782" stroke-miterlimit="10" stroke-width="1"/>
    </g>
    <g id="Group_242" data-name="Group 242">
      <g id="Group_241" data-name="Group 241">
        <path id="Path_266" data-name="Path 266" d="M792.77,747.766c18.362-16.933,37.607-32.923,54.691-51.192a345.143,345.143,0,0,1,26.218-25.781c9.492-8.214,19.041-16.344,27.091-26.027,2.046-2.46-1.472-6.017-3.535-3.535-7.679,9.236-16.718,17.081-25.79,24.9a337.56,337.56,0,0,0-27.519,26.9c-16.971,18.355-36.343,34.273-54.691,51.193-2.375,2.19,1.17,5.717,3.535,3.535Z" fill="#95cae5" stroke="#005782" stroke-miterlimit="10" stroke-width="1"/>
      </g>
    </g>
    <g id="Group_243" data-name="Group 243">
      <ellipse id="Ellipse_27" data-name="Ellipse 27" cx="10.888" cy="29.396" rx="10.888" ry="29.396" transform="matrix(0.022, -1, 1, 0.022, 892.547, 687.986)" fill="#665355" stroke="#005782" stroke-miterlimit="10" stroke-width="1"/>
      <path id="Path_267" data-name="Path 267" d="M923.67,690.639q-.883,0-1.776-.019c-8.082-.175-15.684-1.516-21.4-3.776-6.342-2.506-9.789-5.982-9.707-9.786.174-8.028,15.166-12.228,29.886-12.228q.883,0,1.78.019c8.081.174,15.683,1.515,21.405,3.776,6.341,2.506,9.789,5.981,9.707,9.786C953.386,686.438,938.392,690.639,923.67,690.639Zm-3-21.809c-15.149,0-25.8,4.381-25.886,8.314-.042,1.922,2.708,4.213,7.177,5.979,5.291,2.091,12.4,3.333,20.02,3.5.569.013,1.131.019,1.691.019,15.151,0,25.8-4.382,25.89-8.314.042-1.923-2.708-4.214-7.177-5.98-5.292-2.091-12.4-3.332-20.021-3.5Q921.509,668.829,920.668,668.83Z" fill="#ddc546" stroke="#005782" stroke-miterlimit="10" stroke-width="1"/>
    </g>
    <g id="Group_244" data-name="Group 244">
      <path id="Path_268" data-name="Path 268" d="M919.081,676.947S906.745,662.4,892.2,644.775c-17.877-21.662-11.654-46.263-11.644-46.77L903.2,609.739l-23.264-22.406s-1.759-25.98.624-39.183a257.178,257.178,0,0,1,7.827-31.043l18.954,21.282-16.291-32.8s6.388-20.4,10.3-32.306c6.057-18.448,2.981-46.724,2.981-46.724s17.618,45.9,23.421,111.93C933.153,599.971,919.081,676.947,919.081,676.947Z" fill="#53af85" stroke="#005782" stroke-miterlimit="10" stroke-width="1"/>
    </g>
    <g id="Group_245" data-name="Group 245">
      <path id="Path_269" data-name="Path 269" d="M919.081,676.947A344.151,344.151,0,0,0,947.3,643.62c18.929-25.764,19.94-60.878,15.288-54.6-8.854,11.941-23.542,26.377-23.542,26.377s20.021-30.9,20.978-36.248c3.8-21.249,3.1-24.262-7.884-50.634l-10.449,27.637,8.6-42.556c-5.546-44.758-45.96-87.032-45.96-87.032s21.043,57.415,11.946,123.018C907.8,610.66,919.081,676.947,919.081,676.947Z" fill="#319b6b" stroke="#005782" stroke-miterlimit="10" stroke-width="1"/>
    </g>
    <g id="Group_246" data-name="Group 246">
      <path id="Path_270" data-name="Path 270" d="M921.734,676.479S914.272,661.8,905.6,644.125c-10.661-21.73,1.6-39.792,1.739-40.193l17.679,15L909.6,595.268s5.292-21.152,10.992-31.083a205.4,205.4,0,0,1,15.443-22.8l11.751,21.7-6.243-30.214s9.158-14.024,17.669-20.786c16.292-12.945,48.559-26.8,48.559-26.8s-26.742,40.581-41.267,82.967C949.771,617.1,921.734,676.479,921.734,676.479Z" fill="#53af85" stroke="#005782" stroke-miterlimit="10" stroke-width="1"/>
    </g>
    <g id="Group_247" data-name="Group 247">
      <path id="Path_271" data-name="Path 271" d="M921.734,676.479a114.138,114.138,0,0,0,31.557-21.831c17.064-16.995,33.277-55.995,27.336-52.154-11.308,7.313-17.736,9.541-17.736,9.541s15.7-14.022,18.005-18.049c9.142-15.994,3.631-24.245,10.654-41.672l-17.063,16.995,19.332-29.35c6.805-37.068,13.957-54.672,13.957-54.672a716.038,716.038,0,0,0-54.755,88.944C929,620.817,921.734,676.479,921.734,676.479Z" fill="#319b6b" stroke="#005782" stroke-miterlimit="10" stroke-width="1"/>
    </g>
    <g id="Group_248" data-name="Group 248">
      <path id="Path_272" data-name="Path 272" d="M553.518,709.628a24.216,24.216,0,0,1-10.473-2.176c-6.764-3.192-11.307-9.6-14.295-20.171-3.707-13.114-6.634-39.984-8.987-61.575l-.719-6.576a3.5,3.5,0,0,1,6.958-.768l.72,6.586c2.2,20.205,5.216,47.878,8.765,60.429,2.4,8.477,5.747,13.48,10.546,15.745,6.1,2.88,15.456,1.59,27.814-3.829a3.5,3.5,0,1,1,2.812,6.41C567.641,707.658,559.978,709.628,553.518,709.628Z" fill="#1991ce" stroke="#005782" stroke-miterlimit="10" stroke-width="1"/>
    </g>
    <g id="Group_249" data-name="Group 249">
      <path id="Path_273" data-name="Path 273" d="M552.753,699s21.5,6.75,24.5,7.75,7.5-7.65,0-9.9C570.065,694.692,552.753,699,552.753,699Z" fill="#0f5b81" stroke="#005782" stroke-miterlimit="10" stroke-width="1"/>
    </g>
    <g id="Group_250" data-name="Group 250">
      <path id="Path_274" data-name="Path 274" d="M717.232,268.252s-1.431-10.737-.716-10.737,60.844,15.032,62.991,15.747,3.058,10.351,1.163,10.469C776.376,284,720.095,269.683,717.232,268.252Z" fill="#2d72ff" stroke="#005782" stroke-miterlimit="10" stroke-width="1"/>
    </g>
    <g id="Group_251" data-name="Group 251">
      <path id="Path_275" data-name="Path 275" d="M780.67,283.731,811,263.957V252.5l-31.5,20.758S777.091,285.914,780.67,283.731Z" fill="#53af85" stroke="#005782" stroke-miterlimit="10" stroke-width="1"/>
    </g>
    <g id="Group_252" data-name="Group 252">
      <path id="Path_276" data-name="Path 276" d="M811,252.5l-59.412-12.884-35.074,17.9,62.991,15.748Z" fill="#e9b6aa" stroke="#005782" stroke-miterlimit="10" stroke-width="1"/>
    </g>
    <g id="Group_253" data-name="Group 253">
      <path id="Path_277" data-name="Path 277" d="M713.359,254.77s-2.246-10.6-1.532-10.652,61.812,10.354,64.007,10.9,3.837,10.087,1.958,10.349C773.53,265.966,716.323,255.979,713.359,254.77Z" fill="#2d72ff" stroke="#005782" stroke-miterlimit="10" stroke-width="1"/>
    </g>
    <g id="Group_254" data-name="Group 254">
      <path id="Path_278" data-name="Path 278" d="M777.792,265.371,805.5,247.5V236.079l-29.669,18.943S774.389,267.821,777.792,265.371Z" fill="#53af85" stroke="#005782" stroke-miterlimit="10" stroke-width="1"/>
    </g>
    <g id="Group_255" data-name="Group 255">
      <path id="Path_279" data-name="Path 279" d="M805.5,236.079l-60-10.58-33.676,18.62,64.007,10.9Z" fill="#e9b6aa" stroke="#005782" stroke-miterlimit="10" stroke-width="1"/>
    </g>
    <g id="Group_256" data-name="Group 256">
      <path id="Path_280" data-name="Path 280" d="M547.206,494.32c-7.463,0-18.517-3.9-24.094-10.427a13.515,13.515,0,0,1-3.447-11.242l.987.156a12.556,12.556,0,0,0,3.221,10.436c5.318,6.224,16.252,10.077,23.333,10.077,12.855,0,19.992-2.548,29.376-10.488l.645.764C567.633,491.714,560.338,494.32,547.206,494.32Z" fill="#1991ce" stroke="#005782" stroke-miterlimit="10" stroke-width="1"/>
    </g>
    <g id="Group_257" data-name="Group 257">
      <path id="Path_281" data-name="Path 281" d="M401.22,305.311c-1.457,0-1.615-.847-1.615-1.211,0-3.684-.7-37-1.253-63.769-.4-19.152-.745-35.691-.745-37,0-2.795,19.487-14.162,31.1-20.688,15.019-8.439,31.934-17.168,34.243-17.168a.886.886,0,0,1,.637.287c2.453,2.468,3.419,31.822,3.04,92.378-.016,2.574-.028,4.461-.028,5.463,0,5.929-22.529,20.1-29.434,24.3C423.3,296.342,405.99,305.311,401.22,305.311Zm61.647-138.858c-1.763.021-17.155,7.788-33.526,16.982-20.959,11.77-30.624,18.565-30.734,19.9,0,1.3.345,17.831.745,36.977.558,26.774,1.253,60.1,1.253,63.79,0,.14.207.211.615.211,8.947,0,64.382-32.765,64.382-40.709,0-1,.012-2.893.028-5.469C466.092,184.292,464.382,167.52,462.867,166.453Z" fill="#1991ce" stroke="#005782" stroke-miterlimit="10" stroke-width="1"/>
    </g>
    <g id="Group_258" data-name="Group 258">
      <path id="Path_282" data-name="Path 282" d="M318.339,408.6c-.906,0-1.23-.521-1.23-1.009,0-2.758-.612-29.727-1.105-51.4-.352-15.5-.656-28.892-.656-29.875,0-3.706,44.37-30.5,47.233-30.5a.725.725,0,0,1,.523.231c1.121,1.126,2.574,10.226,2.256,75.962-.008,1.8-.015,3.114-.015,3.8,0,4.388-14.852,14.761-21.238,19.016C334.093,401.511,321.659,408.6,318.339,408.6Zm-.23-1.02a1.2,1.2,0,0,0,.23.02c2.7,0,13.771-5.973,25.214-13.6,12.631-8.418,20.792-15.555,20.792-18.184,0-.69.007-2,.015-3.808.3-61.863-1.036-73.792-1.9-75.172-1.6.326-11.28,5.7-23.833,13.576-15.018,9.419-22.075,14.857-22.275,15.924,0,.954.305,14.338.657,29.835C317.5,377.824,318.108,404.76,318.109,407.584Z" fill="#1991ce" stroke="#005782" stroke-miterlimit="10" stroke-width="1"/>
    </g>
    <g id="Group_259" data-name="Group 259">
      <path id="Path_283" data-name="Path 283" d="M579.136,506.7c-3,13.144,17.984,62.45,29.752,75.124C625.579,599.8,644.964,599.512,656,595s31.741-34.411,39.59-47.8c2.544-4.339,1.788-11.79-5.173-17s-13.008-3.689-16.878-.951c-7.459,5.276-22.828,25.864-25.983,24.6-12.329-4.944-27.438-46.7-37.607-53.8C593.725,488.728,583.607,487.112,579.136,506.7Z" fill="#53af85" stroke="#005782" stroke-miterlimit="10" stroke-width="1"/>
    </g>
  </g>
</svg>
